<svg width="32" height="32" viewBox="0 0 32 32" fill="none" xmlns="http://www.w3.org/2000/svg">
<path d="M16 9.0011V18.0011M16 23.0011C16.0929 23.0011 16.1838 22.9735 16.2611 22.9219C16.3384 22.8702 16.3986 22.7968 16.4342 22.711C16.4698 22.6251 16.4791 22.5306 16.4609 22.4394M16 23.0011C15.8753 23.0011 15.7558 22.9516 15.6676 22.8634C15.5795 22.7753 15.53 22.6557 15.53 22.5311M16 23.0011L16.0917 22.0701M16.4609 22.4394C16.4428 22.3482 16.398 22.2645 16.3323 22.1988C16.2666 22.133 16.1828 22.0883 16.0917 22.0701M16.4609 22.4394L15.53 22.5311M16.0917 22.0701C16.0005 22.052 15.906 22.0613 15.8201 22.0969C15.7342 22.1324 15.6608 22.1927 15.6092 22.27C15.5575 22.3473 15.53 22.4381 15.53 22.5311M1 16.0011C0.999999 7.71683 7.71573 1.0011 16 1.0011C24.2843 1.0011 31 7.71683 31 16.0011C31 24.2854 24.2843 31.0011 16 31.0011C7.71573 31.0011 1 24.2854 1 16.0011Z" stroke="currentColor" stroke-width="2" stroke-linecap="round" stroke-linejoin="round"/>
</svg>
