<svg width="32" height="32" viewBox="0 0 32 32" fill="none" xmlns="http://www.w3.org/2000/svg">
<path d="M24.592 7.39709L25.6483 6.34094M9 31.0024H23C27.4183 31.0024 31 27.4207 31 23.0024V9.00244C31 4.58416 27.4183 1.00244 23 1.00244H9C4.58172 1.00244 1 4.58416 1 9.00244V23.0024C1 27.4207 4.58172 31.0024 9 31.0024ZM15.9868 22.5023C19.5767 22.5023 22.4868 19.5922 22.4868 16.0023C22.4868 12.4125 19.5767 9.50235 15.9868 9.50235C12.397 9.50235 9.48682 12.4125 9.48682 16.0023C9.48682 19.5922 12.397 22.5023 15.9868 22.5023ZM25.7868 6.86914C25.7868 7.23733 25.4883 7.53581 25.1202 7.53581C24.752 7.53581 24.4535 7.23733 24.4535 6.86914C24.4535 6.50095 24.752 6.20239 25.1202 6.20239C25.4883 6.20239 25.7868 6.50095 25.7868 6.86914Z" stroke="currentColor" stroke-width="2" stroke-linejoin="round"/>
</svg>
