<svg width="32" height="32" viewBox="0 0 32 32" fill="none" xmlns="http://www.w3.org/2000/svg">
<path d="M16.0122 5.00097C13.4427 4.99855 10.93 5.75769 8.79162 7.1825C6.65324 8.60731 4.98507 10.6339 3.99781 13.0062C3.01056 15.3786 2.74849 17.9903 3.24473 20.5115C3.74096 23.0327 4.97323 25.3503 6.78589 27.1716C8.59855 28.9928 10.9103 30.2361 13.4291 30.7442C15.948 31.2524 18.5609 31.0027 20.9379 30.0266C23.3149 29.0506 25.3493 27.3921 26.7842 25.2605C28.2191 23.1289 28.9902 20.6198 28.9999 18.0503M13 21.0001L31 3.00012M13 21.0001L12.9998 12.0001M13 21.0001H22" stroke="currentColor" stroke-width="2" stroke-linecap="round" stroke-linejoin="round"/>
</svg>
