<svg width="32" height="32" viewBox="0 0 32 32" fill="none" xmlns="http://www.w3.org/2000/svg">
<path d="M27 13.002V9.00197C27 7.8974 26.1046 7.00197 25 7.00197H13C11.8954 7.00197 11 6.10653 11 5.00196V5.00196C11 3.89739 10.1046 3.00195 9 3.00195H3C1.89543 3.00195 1 3.89738 1 5.00195V25.002V25.9118C1 27.6184 2.38352 29.002 4.09017 29.002H4.38197C5.3736 29.002 6.28013 28.4417 6.72361 27.5547V27.5547C6.90537 27.1912 7 26.7904 7 26.3839V15.002C7 13.8974 7.89543 13.002 9 13.002H27ZM27 13.002H29C30.1046 13.002 31 13.8974 31 15.002V25.002C31 27.2111 29.2091 29.002 27 29.002H4" stroke="currentColor" stroke-width="2" stroke-linecap="round" stroke-linejoin="round"/>
</svg>
