<svg width="32" height="32" viewBox="0 0 32 32" fill="none" xmlns="http://www.w3.org/2000/svg">
<path d="M11.0015 20.004C8.33435 18.1719 4.73758 18.9251 2.96786 21.6862C2.33753 22.6697 2.00137 23.8238 2.00146 25.0041M29.0013 25.0034C29.0013 21.6897 26.4066 19.0029 23.2059 19.0029C22.0659 19.0029 20.9512 19.351 20.0013 20.0037M20 12.0029C20 12.0029 20 16.0029 17.3334 16.0029M28.0001 12.0029C28.0001 12.0029 28.0001 16.0029 30.6668 16.0029M21.0015 31.0025C19.4061 28.1332 15.8743 27.151 13.1129 28.8086C12.2361 29.3349 11.508 30.0915 11.0015 31.0025M13.0015 6.00293H19.0015M16.0013 3.00293V9.00293M10.8285 9.1745C12.3906 10.7366 12.3906 13.2693 10.8285 14.8314C9.26645 16.3934 6.73378 16.3934 5.17169 14.8314C3.6096 13.2693 3.6096 10.7366 5.17169 9.1745C6.73378 7.61241 9.26645 7.61241 10.8285 9.1745ZM26.8298 9.1745C28.3919 10.7366 28.3919 13.2693 26.8298 14.8314C25.2677 16.3934 22.735 16.3934 21.1729 14.8314C19.6108 13.2693 19.6108 10.7366 21.1729 9.1745C22.735 7.61241 25.2677 7.61241 26.8298 9.1745ZM17.8857 20.784C18.9271 21.8254 18.9271 23.5138 17.8857 24.5552C16.8443 25.5966 15.1558 25.5966 14.1144 24.5552C13.073 23.5138 13.073 21.8254 14.1144 20.784C15.1558 19.7426 16.8443 19.7426 17.8857 20.784Z" stroke="currentColor" stroke-width="2" stroke-linecap="round" stroke-linejoin="round"/>
</svg>
