<svg width="32" height="32" viewBox="0 0 32 32" fill="none" xmlns="http://www.w3.org/2000/svg">
<path d="M4 28.9995H29M10 29V24.5556C10 24.2487 9.76128 24 9.46681 24H6.53319C6.23872 24 6 24.2487 6 24.5556V29M18 29V14.5556C18 14.2487 17.7613 14 17.4668 14H14.5332C14.2387 14 14 14.2487 14 14.5556V29M26 29V19.5556C26 19.2487 25.7612 19 25.4667 19H22.5323C22.2381 19.0006 22 19.2492 22 19.5556V29M10.5 8.50398L6.5 12.5M18.5 9L13.5 8M26 6L22 9M13.5 7.25C13.5 8.2165 12.7165 9 11.75 9C10.7835 9 10 8.2165 10 7.25C10 6.2835 10.7835 5.5 11.75 5.5C12.7165 5.5 13.5 6.2835 13.5 7.25ZM29 4.75053C29 5.71703 28.2165 6.50053 27.25 6.50053C26.2835 6.50053 25.5 5.71703 25.5 4.75053C25.5 3.78404 26.2835 3.00053 27.25 3.00053C28.2165 3.00053 29 3.78404 29 4.75053ZM22 9.75C22 10.7165 21.2165 11.5 20.25 11.5C19.2835 11.5 18.5 10.7165 18.5 9.75C18.5 8.7835 19.2835 8 20.25 8C21.2165 8 22 8.7835 22 9.75ZM6.5 14.25C6.5 15.2165 5.7165 16 4.75 16C3.7835 16 3 15.2165 3 14.25C3 13.2835 3.7835 12.5 4.75 12.5C5.7165 12.5 6.5 13.2835 6.5 14.25Z" stroke="currentColor" stroke-width="2" stroke-linecap="round" stroke-linejoin="round"/>
</svg>
