<svg width="32" height="32" viewBox="0 0 32 32" fill="none" xmlns="http://www.w3.org/2000/svg">
<path fill-rule="evenodd" clip-rule="evenodd" d="M16.972 1.60214L21.4333 10.4408L30.02 11.2915C30.4374 11.3262 30.7965 11.6005 30.9397 11.9941C31.083 12.3877 30.9842 12.8286 30.6867 13.1235L23.62 20.1275L26.24 29.6448C26.3495 30.0572 26.2069 30.4954 25.8758 30.7644C25.5446 31.0334 25.0865 31.0831 24.7053 30.8915L16 26.5808L7.30668 30.8861C6.92551 31.0778 6.46737 31.0281 6.13622 30.7591C5.80507 30.4901 5.66251 30.0518 5.77201 29.6395L8.39201 20.1221L1.32001 13.1181C1.02252 12.8233 0.923706 12.3823 1.06694 11.9887C1.21017 11.5951 1.56927 11.3208 1.98667 11.2861L10.5733 10.4355L15.028 1.60214C15.2148 1.23732 15.5901 1.00781 16 1.00781C16.4099 1.00781 16.7852 1.23732 16.972 1.60214Z" stroke="currentColor" stroke-width="2" stroke-linecap="round" stroke-linejoin="round"/>
</svg>
