<svg width="32" height="32" viewBox="0 0 32 32" fill="none" xmlns="http://www.w3.org/2000/svg">
<path d="M22.9999 7.00138V3.00138C23.0006 2.69271 22.9299 2.38805 22.7933 2.11127C22.6567 1.83449 22.4578 1.59309 22.2123 1.40597C21.9668 1.21885 21.6814 1.09109 21.3783 1.0327C21.0752 0.974303 20.7627 0.986857 20.4652 1.06938L6.46524 4.96271C6.03657 5.10372 5.66366 5.37703 5.40012 5.74335C5.13659 6.10967 4.996 6.55012 4.99857 7.00138M11 27.0014H21M5 29.0014C5 29.5318 5.21071 30.0405 5.58579 30.4156C5.96086 30.7907 6.46957 31.0014 7 31.0014H25C25.5304 31.0014 26.0391 30.7907 26.4142 30.4156C26.7893 30.0405 27 29.5318 27 29.0014V9.00271C27 8.47228 26.7893 7.95423 26.4142 7.57916C26.0391 7.20409 25.5304 7.0027 25 7.0027L5 7.00137V29.0014ZM16.7079 11.432L18.3719 14.708H21.2079C21.3638 14.7049 21.5169 14.7487 21.6476 14.8337C21.7782 14.9187 21.8802 15.0411 21.9405 15.1848C22.0007 15.3286 22.0163 15.4871 21.9853 15.6398C21.9543 15.7926 21.8781 15.9325 21.7666 16.0414L19.1626 18.604L20.6053 21.9174C20.6684 22.0691 20.6824 22.2367 20.6452 22.3968C20.6081 22.5568 20.5216 22.7012 20.3981 22.8095C20.2746 22.9179 20.1202 22.9847 19.9567 23.0007C19.7932 23.0167 19.6288 22.9811 19.4866 22.8987L15.9999 20.936L12.5133 22.896C12.3711 22.9784 12.2067 23.0141 12.0432 22.9981C11.8796 22.9821 11.7253 22.9152 11.6018 22.8068C11.4782 22.6985 11.3918 22.5541 11.3547 22.3941C11.3175 22.2341 11.3315 22.0664 11.3946 21.9147L12.8373 18.6014L10.2333 16.0374C10.1218 15.9285 10.0456 15.7886 10.0146 15.6358C9.98355 15.4831 9.99918 15.3246 10.0594 15.1808C10.1196 15.0371 10.2217 14.9147 10.3523 14.8297C10.4829 14.7447 10.6361 14.7009 10.7919 14.704H13.6279L15.2933 11.432C15.3613 11.3034 15.463 11.1957 15.5877 11.1206C15.7123 11.0455 15.8551 11.0058 16.0006 11.0058C16.1461 11.0058 16.2889 11.0455 16.4135 11.1206C16.5382 11.1957 16.64 11.3034 16.7079 11.432Z" stroke="currentColor" stroke-width="2" stroke-linecap="round" stroke-linejoin="round"/>
</svg>
