<svg width="32" height="32" viewBox="0 0 32 32" fill="none" xmlns="http://www.w3.org/2000/svg">
<path d="M18.99 14.9564V8.97632H13.0099V14.9564M18.99 14.9564H13.0099M18.99 14.9564L18.99 30.9034H13.0099V14.9564M3 8.97632C1.89543 8.97632 1 9.86877 1 10.9697V13.9597C1 14.5102 1.44772 14.9564 2 14.9564H30C30.5523 14.9564 31 14.5102 31 13.9597V10.9697C31 9.86877 30.1046 8.97632 29 8.97632C29 8.97632 3 8.97632 3 8.97632ZM15.0238 8.97636C10.6198 8.97636 6.05371 5.40692 6.05371 1.00293C10.4577 1.00293 15.0238 4.57237 15.0238 8.97636ZM17.0173 8.97636C21.4213 8.97636 25.9874 5.40692 25.9874 1.00293C21.5835 1.00293 17.0173 4.57237 17.0173 8.97636ZM28.9569 14.9565H3.04321V28.9972C3.04321 30.105 3.93567 31.003 5.03657 31.003H26.9635C28.0644 31.003 28.9569 30.105 28.9569 28.9972V14.9565Z" stroke="currentColor" stroke-width="2" stroke-linecap="round" stroke-linejoin="round"/>
</svg>
