<svg width="32" height="32" viewBox="0 0 32 32" fill="none" xmlns="http://www.w3.org/2000/svg">
<path d="M1 16.3949C1 18.4792 4.3575 20.1685 8.5 20.1685C12.6425 20.1685 16 18.4792 16 16.3949M16 20.0029C16 22.0872 19.3575 23.7766 23.5 23.7766C27.6425 23.7766 31 22.0872 31 20.0029M31 15.4688V25.2295C31 27.3138 27.6425 29.0031 23.5 29.0031C19.3575 29.0031 16 27.3138 16 25.2295V21.1811M16 6.73859V21.2041C16 23.2884 12.6425 24.9777 8.5 24.9777C4.3575 24.9777 1 23.2884 1 21.2041V6.73859M1 11.5856C1 13.6699 4.3575 15.3592 8.5 15.3592C12.6425 15.3592 16 13.6699 16 11.5856M8.5 10.5502C12.6421 10.5502 16 8.86066 16 6.77655C16 4.69244 12.6421 3.00293 8.5 3.00293C4.35786 3.00293 1 4.69244 1 6.77655C1 8.86066 4.35786 10.5502 8.5 10.5502ZM23.5 19.0029C27.6421 19.0029 31 17.2121 31 15.0029C31 12.7938 27.6421 11.0029 23.5 11.0029C19.3579 11.0029 16 12.7938 16 15.0029C16 17.2121 19.3579 19.0029 23.5 19.0029Z" stroke="currentColor" stroke-width="2" stroke-linecap="round" stroke-linejoin="round"/>
</svg>
