<svg width="32" height="32" viewBox="0 0 32 32" fill="none" xmlns="http://www.w3.org/2000/svg">
<path d="M5 31.0028L2.31467 27.8281C1.46364 26.7643 1 25.4425 1 24.0801V17.1841C1 16.0795 1.69549 13.0029 4 13.0029C6.30451 13.0029 6 16.0795 6 17.1841V22.1841M13 31.0031V27.0031C13 27.0031 10.3333 20.3364 10 20.0031C9.66667 19.6698 7.6 19.2033 6 20.0033V22.0033C6 22.0033 6 23.0033 8 26.003M27 31.0028L29.6853 27.8281C30.5364 26.7643 31 25.4425 31 24.0801V17.1841C31 16.0795 30.3045 13.0029 28 13.0029C25.6955 13.0029 26 16.0795 26 17.1841V22.1841M19 31.0031V27.0031C19 27.0031 21.6667 20.3364 22 20.0031C22.3333 19.6698 24.4 19.2033 26 20.0033V22.0033C26 22.0033 26 23.0033 24 26.003M17.4194 16.5602C17.0436 16.9413 16.5307 17.1559 15.9954 17.1559C15.4602 17.1559 14.9473 16.9413 14.5714 16.5602L7.47276 9.36025C5.94595 7.89176 5.56233 5.59602 6.52876 3.71091C7.28565 2.29407 8.66332 1.31431 10.2501 1.06439C11.8369 0.814465 13.449 1.32332 14.6048 2.43891L15.9954 3.79091L17.3874 2.43891C18.5432 1.32332 20.1553 0.814465 21.7421 1.06439C23.3289 1.31431 24.7065 2.29407 25.4634 3.71091C26.4322 5.59765 26.0479 7.89654 24.5181 9.36558L17.4194 16.5602Z" stroke="currentColor" stroke-width="2" stroke-linecap="round" stroke-linejoin="round"/>
</svg>
