<svg width="32" height="32" viewBox="0 0 32 32" fill="none" xmlns="http://www.w3.org/2000/svg">
<path d="M4 17.0029H9.6C10.1658 17.0029 10.7084 17.2136 11.1085 17.5887C11.5086 17.9638 11.7333 18.4725 11.7333 19.0029C11.7333 20.0638 12.1829 21.0812 12.983 21.8314C13.7832 22.5815 14.8684 23.0029 16 23.0029C17.1316 23.0029 18.2168 22.5815 19.017 21.8314C19.8171 21.0812 20.2667 20.0638 20.2667 19.0029C20.2667 18.4725 20.4914 17.9638 20.8915 17.5887C21.2916 17.2136 21.8342 17.0029 22.4 17.0029H28.2667M5 3.00293H27C28.1046 3.00293 29 3.89836 29 5.00293V27.0029C29 28.1075 28.1046 29.0029 27 29.0029H5C3.89543 29.0029 3 28.1075 3 27.0029V5.00293C3 3.89836 3.89543 3.00293 5 3.00293Z" stroke="currentColor" stroke-width="2" stroke-linecap="round" stroke-linejoin="round"/>
</svg>
