<svg width="32" height="32" viewBox="0 0 32 32" fill="none" xmlns="http://www.w3.org/2000/svg">
<path d="M11 31.0044L12 25.0044M20 25.0044L21 31.0044M8 31.0044H24M23.5 10.5031L16 6.00305L8.5 10.5031L16 14.5031L23.5 10.5031ZM23.5 10.5031V14.5419M20.5 12.6531V16.0183C20.4999 19.9143 11.5 20.0806 11.5 16.0183V12.6531M23.5 17.0031V17.1031M3 1.00439H29C29 1.00439 31 1.00439 31 3.00439V23.0044C31 23.0044 31 25.0044 29 25.0044H3C3 25.0044 1 25.0044 1 23.0044V3.00439C1 3.00439 1 1.00439 3 1.00439Z" stroke="currentColor" stroke-width="2" stroke-linecap="round" stroke-linejoin="round"/>
</svg>
