<svg width="32" height="32" viewBox="0 0 32 32" fill="none" xmlns="http://www.w3.org/2000/svg">
<path d="M23.4291 12.9005L16.0076 14.587M16.0076 14.587V19.5594M16.0076 14.587L8.57088 12.9005M16.0076 19.5594L20.6641 25.0545M16.0076 19.5594L11.3663 25.0545M31 16.0028C31 24.2871 24.2843 31.0028 16 31.0028C7.71573 31.0028 1 24.2871 1 16.0028C1 7.71854 7.71573 1.00281 16 1.00281C24.2843 1.00281 31 7.71854 31 16.0028ZM18 9.00281C18 10.1074 17.1046 11.0028 16 11.0028C14.8954 11.0028 14 10.1074 14 9.00281C14 7.89824 14.8954 7.00281 16 7.00281C17.1046 7.00281 18 7.89824 18 9.00281Z" stroke="currentColor" stroke-width="2" stroke-linecap="round" stroke-linejoin="round"/>
</svg>
