<svg width="32" height="32" viewBox="0 0 32 32" fill="none" xmlns="http://www.w3.org/2000/svg">
<path d="M14.9993 20.0029L28.9993 2.00293M4.1609 20.0029C2.96704 20.0029 1.99924 19.1748 1.99927 18.0313C1.99928 17.3175 2.38317 16.654 3.01511 16.2757L26.6928 1.31837C27.7042 0.712118 29.0373 1.00599 29.6702 1.97474C29.9589 2.41657 30.0628 2.94648 29.9613 3.45854L25.2846 27.3153C25.0636 28.439 23.9334 29.1784 22.7602 28.9668C22.2296 28.8711 21.7557 28.5887 21.4315 28.1751L15.158 20.0029H4.1609ZM15.4357 20.0029H11.9976L11.9993 27.8127C11.9993 29.0223 12.9833 30.0029 14.1972 30.0029C14.639 30.0029 15.0706 29.8702 15.4357 29.6221L18.9993 25.5029L15.4357 20.0029Z" stroke="currentColor" stroke-width="2" stroke-linecap="round" stroke-linejoin="round"/>
</svg>
