<svg width="32" height="32" viewBox="0 0 32 32" fill="none" xmlns="http://www.w3.org/2000/svg">
<path d="M12.9922 24.9952C6.36911 24.9952 1 19.6261 1 13.003C1 6.37985 6.36911 1.01074 12.9922 1.01074C18.6779 1.01074 23.4394 4.96745 24.6734 10.2775M2.08527 10.9951H8.04906C8.44096 10.9952 8.8216 11.1224 9.1305 11.3566C9.4394 11.5908 9.65883 11.9185 9.75393 12.2876L10.6327 15.701C10.6975 15.9526 10.7025 16.2152 10.6471 16.4689C10.5917 16.7227 10.4775 16.9608 10.3131 17.1652C10.1488 17.3697 9.93862 17.5351 9.69858 17.6488C9.45854 17.7626 9.19496 17.8217 8.92786 17.8218H7.66356L6.67193 22.9874M19.1083 13.0029H17.556C17.3319 13.0029 17.1108 12.951 16.9094 12.8511C16.708 12.7512 16.5317 12.606 16.3938 12.4265C16.2559 12.2471 16.1601 12.038 16.1136 11.8152C16.0672 11.5925 16.0713 11.3619 16.1257 11.141L16.863 8.14437C16.9428 7.82028 17.1269 7.53257 17.386 7.32697C17.6452 7.12137 17.9645 7.00968 18.2933 7.00965C19.1455 7.00343 23.3216 7.00947 23.3216 7.00947M21.0217 20.0029V18.5029C21.0217 16.5699 22.5887 15.0029 24.5217 15.0029C26.4547 15.0029 28.0217 16.5699 28.0217 18.5029V20.0029M19.1366 29.0029C18.509 29.0029 18.0002 28.5552 18.0002 28.0029V21.0029C18.0002 20.4506 18.509 20.0029 19.1366 20.0029H29.3639C29.9915 20.0029 30.5002 20.4506 30.5002 21.0029V28.0029C30.5002 28.5552 29.9915 29.0029 29.3639 29.0029H19.1366Z" stroke="currentColor" stroke-width="2" stroke-linecap="round" stroke-linejoin="round"/>
</svg>
