<svg width="32" height="32" viewBox="0 0 32 32" fill="none" xmlns="http://www.w3.org/2000/svg">
<path d="M14.0122 5.00085C11.4427 4.99843 8.93 5.75757 6.79162 7.18237C4.65324 8.60718 2.98507 10.6337 1.99781 13.0061C1.01056 15.3785 0.748492 17.9902 1.24473 20.5114C1.74096 23.0326 2.97323 25.3502 4.78589 27.1714C6.59855 28.9927 8.91029 30.2359 11.4291 30.7441C13.948 31.2522 16.5609 31.0025 18.9379 30.0265C21.3149 29.0505 23.3493 27.3919 24.7842 25.2603C26.2191 23.1287 26.9902 20.6197 26.9999 18.0501M13 19L29 3M29 3L28.9998 11.7713M29 3L20.2161 3.00084" stroke="currentColor" stroke-width="2" stroke-linecap="round" stroke-linejoin="round"/>
</svg>
