<svg width="32" height="32" viewBox="0 0 32 32" fill="none" xmlns="http://www.w3.org/2000/svg">
<path d="M15.5 4.55071V2.8396M4.37761 13.1063H2.6665M4.37793 4.55078L6.08904 6.26189M26.6221 13.1063H28.3332M26.6227 4.55078L24.9116 6.26189M23.3298 23.373H7.66978C6.76215 23.373 5.8917 23.7336 5.2499 24.3754C4.60811 25.0172 4.24756 25.8876 4.24756 26.7953C4.24756 27.2491 4.42784 27.6843 4.74873 28.0052C5.06963 28.3261 5.50485 28.5064 5.95867 28.5064H25.0409C25.4947 28.5064 25.9299 28.3261 26.2508 28.0052C26.5717 27.6843 26.752 27.2491 26.752 26.7953C26.752 25.8876 26.3914 25.0172 25.7497 24.3754C25.1079 23.7336 24.2374 23.373 23.3298 23.373ZM18.476 8.00281H12.524C11.6817 8.00272 10.8689 8.31328 10.2413 8.87503C9.61366 9.43679 9.21525 10.2103 9.12231 11.0474L7.75 23.3728H23.25L21.8811 11.0474C21.7881 10.2097 21.3892 9.43572 20.7609 8.87389C20.1325 8.31205 19.3189 8.00188 18.476 8.00281Z" stroke="currentColor" stroke-width="2" stroke-linecap="round" stroke-linejoin="round"/>
</svg>
