<svg width="32" height="32" viewBox="0 0 32 32" fill="none" xmlns="http://www.w3.org/2000/svg">
<path d="M18.5 22.5001H26.5M22.5 26.5L22.5 18.4999M6 8L16 8M6 12L16 12M6 16L12 16M11 27H3C1.89543 27 1 26.1046 1 25V3C1 1.89543 1.89543 1 3 1H17.172C17.7021 1.00011 18.2104 1.21064 18.5853 1.58533L22.4147 5.41467C22.7894 5.7896 22.9999 6.29794 23 6.828V11M22.5 31C27.1944 31 31 27.1944 31 22.5C31 17.8056 27.1944 14 22.5 14C17.8056 14 14 17.8056 14 22.5C14 27.1944 17.8056 31 22.5 31Z" stroke="currentColor" stroke-width="2" stroke-linecap="round" stroke-linejoin="round"/>
</svg>
