<svg width="32" height="32" viewBox="0 0 32 32" fill="none" xmlns="http://www.w3.org/2000/svg">
<path d="M26.9798 12.333V4.33301C26.9798 3.22844 26.085 2.33301 24.9813 2.33301H2.99844C1.89473 2.33301 1 3.22844 1 4.33301V20.333C1 21.4376 1.89473 22.333 2.99844 22.333H10.9922M1 8.33301H26.9798M4.99689 13.3291H12.9907M4.99689 17.3291H8.99378M23.6671 29.9984C27.7137 29.9984 30.9941 26.7154 30.9941 22.6657C30.9941 18.616 27.7137 15.333 23.6671 15.333C19.6205 15.333 16.3401 18.616 16.3401 22.6657C16.3401 26.7154 19.6205 29.9984 23.6671 29.9984ZM20.4622 25.109C20.7631 25.109 21.0471 24.9702 21.2322 24.7329C21.4173 24.4956 21.4829 24.1861 21.4099 23.8941L20.9214 21.9387C20.8126 21.5035 20.422 21.1983 19.9738 21.1982H16.4874C15.9381 23.8986 16.9486 26.6791 19.103 28.3953L19.7595 25.109H20.4622ZM29.5195 18.2666H26.8727C26.4245 18.2666 26.0338 18.5719 25.9251 19.007L25.4366 20.9624C25.3636 21.2545 25.4291 21.5639 25.6142 21.8013C25.7994 22.0386 26.0834 22.1773 26.3842 22.1774H27.4126L27.9278 25.2734C28.0064 25.7448 28.4141 26.0902 28.8917 26.0901H30.1454C31.4736 23.5828 31.2295 20.5324 29.5195 18.2685V18.2666Z" stroke="currentColor" stroke-width="2" stroke-linecap="round" stroke-linejoin="round"/>
</svg>
