<svg width="32" height="32" viewBox="0 0 32 32" fill="none" xmlns="http://www.w3.org/2000/svg">
<path d="M21.7143 8.4142L15.3732 5.10435C14.9795 4.83971 14.4819 4.77141 14.0292 4.91988L11.321 5.81249C10.822 5.97605 10.4452 6.38151 10.3255 6.88368C10.2059 7.38584 10.3605 7.9129 10.734 8.27612L13.8572 11.2713M25.9954 7.18641L8.01688 13.2483L5.6072 10.8475L2.03415 12.053C1.55051 12.2155 1.1808 12.6111 1.05039 13.1057C0.919985 13.6003 1.04638 14.1275 1.38672 14.5086L6.22024 19.9353C7.03054 20.8459 8.30478 21.183 9.45743 20.7917L14.7523 19.0078L13.6799 26.679C13.6064 27.2014 13.8077 27.7247 14.2121 28.0621C14.6164 28.3994 15.1661 28.5027 15.6647 28.335L18.4184 27.4056C18.8447 27.2612 19.1854 26.935 19.3491 26.5146L23.3834 16.0976L28.4172 14.401C30.4034 13.7285 31.47 11.5683 30.7996 9.57606C30.1292 7.5838 27.9755 6.51392 25.9893 7.18641H25.9954Z" stroke="currentColor" stroke-width="2" stroke-linecap="round" stroke-linejoin="round"/>
</svg>
