<svg width="32" height="32" viewBox="0 0 32 32" fill="none" xmlns="http://www.w3.org/2000/svg">
<path d="M5.40674 12.0028C6.07203 6.00291 11.1744 1.33618 17.37 1.33618C24.0177 1.33618 29.4067 6.70876 29.4067 13.3362C29.4067 18.5782 26.0352 23.0352 21.3361 24.6695M16.5 9.00293V13.0029L21.5 18.0029M16 19.0029V26.3363C16 28.3615 12.8663 30.0029 9 30.0029C5.13367 30.0029 2 28.3615 2 26.3363V19.0029M2 22.5029C2 24.7123 5.13367 26.5029 9 26.5029C12.8663 26.5029 16 24.7123 16 22.5029M9 22.3362C12.866 22.3362 16 20.7692 16 18.8362C16 16.9032 12.866 15.3362 9 15.3362C5.13401 15.3362 2 16.9032 2 18.8362C2 20.7692 5.13401 22.3362 9 22.3362Z" stroke="currentColor" stroke-width="2" stroke-linecap="round" stroke-linejoin="round"/>
</svg>
