<svg width="32" height="32" viewBox="0 0 32 32" fill="none" xmlns="http://www.w3.org/2000/svg">
<path d="M9 28.0029C8.44772 28.0029 8 28.4506 8 29.0029C8 29.5552 8.44772 30.0029 9 30.0029V28.0029ZM23 30.0029C23.5523 30.0029 24 29.5552 24 29.0029C24 28.4506 23.5523 28.0029 23 28.0029V30.0029ZM3 18.0029C2.44772 18.0029 2 18.4506 2 19.0029C2 19.5552 2.44772 20.0029 3 20.0029V18.0029ZM29 20.0029C29.5523 20.0029 30 19.5552 30 19.0029C30 18.4506 29.5523 18.0029 29 18.0029V20.0029ZM9 30.0029H23V28.0029H9V30.0029ZM3 20.0029H29V18.0029H3V20.0029ZM6.46667 4.00293H25.5333V2.00293H6.46667V4.00293ZM25.5333 4.00293C26.8866 4.00293 28 5.11317 28 6.50293H30C30 4.02669 28.0092 2.00293 25.5333 2.00293V4.00293ZM28 6.50293V20.5029H30V6.50293H28ZM28 20.5029C28 21.8927 26.8866 23.0029 25.5333 23.0029V25.0029C28.0092 25.0029 30 22.9792 30 20.5029H28ZM25.5333 23.0029H6.46667V25.0029H25.5333V23.0029ZM6.46667 23.0029C5.11336 23.0029 4 21.8927 4 20.5029H2C2 22.9792 3.99079 25.0029 6.46667 25.0029V23.0029ZM4 20.5029V6.50293H2V20.5029H4ZM4 6.50293C4 5.11317 5.11336 4.00293 6.46667 4.00293V2.00293C3.99079 2.00293 2 4.02669 2 6.50293H4ZM15 24.0029V29.0029H17V24.0029H15Z" fill="currentColor"/>
</svg>
