<svg width="32" height="32" viewBox="0 0 32 32" fill="none" xmlns="http://www.w3.org/2000/svg">
<path d="M22.8118 7.00055L24.5438 8.00055C25.5004 8.55283 25.882 9.74771 25.3297 10.7043L20.8941 18.5005M19.2903 13.0571L22.791 6.99374C23.3433 6.03716 23.0155 4.81398 22.0589 4.26169L20.3269 3.26169C19.3703 2.70941 18.1471 3.03716 17.5948 3.99374L14.0942 10.0571M8.24805 26.0144L6.49414 29.0006M6.76264 22.7825C6.21035 23.7391 6.5381 24.9623 7.49469 25.5146L9.22674 26.5146C10.1833 27.0669 11.4065 26.7391 11.9588 25.7825L19.4581 12.7933L14.262 9.7933L6.76264 22.7825Z" stroke="currentColor" stroke-width="2" stroke-linecap="round" stroke-linejoin="round"/>
</svg>
