<svg width="32" height="32" viewBox="0 0 32 32" fill="none" xmlns="http://www.w3.org/2000/svg">
<path fill-rule="evenodd" clip-rule="evenodd" d="M15.9983 9.00284C11.3402 8.93232 6.5226 11.8538 3.49385 14.8458C2.83538 15.5018 2.83538 16.4982 3.49385 17.1543C6.45673 20.083 11.2604 23.0719 15.9983 23.0003C20.7361 23.0719 25.541 20.083 28.5062 17.1543C29.1646 16.4982 29.1646 15.5018 28.5062 14.8458C25.4739 11.8538 20.6564 8.93232 15.9983 9.00284Z" stroke="currentColor" stroke-width="2" stroke-linecap="round" stroke-linejoin="round"/>
<path fill-rule="evenodd" clip-rule="evenodd" d="M19.546 16.0025C19.5455 17.9354 17.9579 19.5019 15.9999 19.5016C14.0419 19.5012 12.4549 17.9342 12.4551 16.0013C12.4553 14.0684 14.0426 12.5016 16.0005 12.5016C16.9411 12.5013 17.8432 12.8701 18.5082 13.5268C19.1731 14.1834 19.5465 15.074 19.546 16.0025Z" stroke="currentColor" stroke-width="2" stroke-linecap="round" stroke-linejoin="round"/>
</svg>
