<svg width="32" height="32" viewBox="0 0 32 32" fill="none" xmlns="http://www.w3.org/2000/svg">
<path d="M6.84758 9.79734L3.30584 11.0755L1.5 6.156M20.4508 2.89358C16.8203 1.50814 12.6397 1.69029 9.0397 3.7491C6.42956 5.24183 4.52931 7.48972 3.45146 10.0641M2.70611 17.9336C2.99565 19.3118 3.50917 20.6703 4.25999 21.9585C7.10691 26.8429 12.5441 29.3065 17.7919 28.5894M25.1644 25.023C29.4586 20.8926 30.5214 14.1953 27.3497 8.75354C27.0826 8.29534 26.7928 7.85845 26.4824 7.4435M25.3049 11.1863L26.5086 7.3089L30.5 8.21493M11 20.0003L21 10.0003M11.7143 11.4289C12.1088 11.4289 12.4286 11.1091 12.4286 10.7146C12.4286 10.3201 12.1088 10.0003 11.7143 10.0003M11.7143 11.4289C11.3198 11.4289 11 11.1091 11 10.7146C11 10.3201 11.3198 10.0003 11.7143 10.0003M11.7143 11.4289V10.0003M20.2858 20.0007C20.6802 20.0007 21 19.6809 21 19.2864C21 18.8919 20.6802 18.5721 20.2858 18.5721M20.2858 20.0007C19.8913 20.0007 19.5715 19.6809 19.5715 19.2864C19.5715 18.8919 19.8913 18.5721 20.2858 18.5721M20.2858 20.0007V18.5721M15.9839 25.3323L18.4358 28.7109L14.3696 31.0009" stroke="currentColor" stroke-width="2" stroke-linecap="round" stroke-linejoin="round"/>
</svg>
