<svg width="32" height="32" viewBox="0 0 32 32" fill="none" xmlns="http://www.w3.org/2000/svg">
<path d="M14 19.3363L15.5319 13.2086C15.6111 12.8918 15.8957 12.6696 16.2222 12.6696C16.5487 12.6696 16.8333 12.8918 16.9125 13.2086L18.4444 19.3363M14.5556 17.114H17.8889M25.4444 12.6696L23.9125 18.7973C23.8333 19.114 23.5487 19.3363 23.2222 19.3363C22.8957 19.3363 22.6111 19.114 22.5319 18.7973L21 12.6696M7.66669 19.3363V12.6696L11 19.3363V12.6696M26.6066 5.39633C32.4645 11.2542 32.4645 20.7517 26.6066 26.6095C20.7487 32.4674 11.2513 32.4674 5.3934 26.6095C-0.464467 20.7517 -0.464467 11.2542 5.3934 5.39633C11.2513 -0.461537 20.7487 -0.461537 26.6066 5.39633Z" stroke="currentColor" stroke-width="2" stroke-linecap="round" stroke-linejoin="round"/>
</svg>
