<svg width="32" height="32" viewBox="0 0 32 32" fill="none" xmlns="http://www.w3.org/2000/svg">
<path d="M14.3346 25.002H27M14.3346 25.002C14.3346 26.6586 12.9917 28.0017 11.335 28.002C9.67836 28.0022 8.33509 26.6586 8.3346 25.002M14.3346 25.002C14.3346 24.2061 14.0183 23.4428 13.4554 22.8802C12.8925 22.3175 12.1291 22.0016 11.3333 22.002C9.67658 22.0027 8.3341 23.3453 8.3346 25.002M5 25.002H8.3346M14.3346 7.00195H27M14.3346 7.00195C14.3346 8.65863 12.9917 10.0017 11.335 10.002C9.67836 10.0022 8.33509 8.65952 8.33459 7.00284C8.3341 5.34616 9.67658 4.00269 11.3333 4.00195C12.1291 4.0016 12.8925 4.31751 13.4554 4.88016C14.0183 5.44281 14.3346 6.20607 14.3346 7.00195ZM5 7.00195H8.30562M16.3346 16.002H5M16.3346 16.002C16.3351 14.3453 17.6784 13.0017 19.335 13.002C20.9917 13.0022 22.3346 14.3453 22.3346 16.002M16.3346 16.002C16.3341 17.6586 17.6766 19.0012 19.3333 19.002C20.9903 19.002 22.3339 17.659 22.3346 16.002M27 16.002H22.3346" stroke="currentColor" stroke-width="2" stroke-linecap="round" stroke-linejoin="round"/>
</svg>
