<svg width="32" height="32" viewBox="0 0 32 32" fill="none" xmlns="http://www.w3.org/2000/svg">
<path d="M26 7.66943L25.1055 8.11648C25.2748 8.45536 25.6212 8.66943 26 8.66943V7.66943ZM24.5533 4.77477L25.4478 4.32772L25.4477 4.32743L24.5533 4.77477ZM22.764 3.66943L22.764 4.66943L22.7643 4.66943L22.764 3.66943ZM15.236 3.66943L15.2357 4.66943H15.236V3.66943ZM13.4467 4.77477L12.5523 4.32743L12.5522 4.32772L13.4467 4.77477ZM12 7.66943V8.66943C12.3788 8.66943 12.7252 8.45536 12.8945 8.11648L12 7.66943ZM1 9.66943H0H1ZM1 25.6694H0H1ZM6 7.66943C6 8.22172 6.44772 8.66943 7 8.66943C7.55228 8.66943 8 8.22172 8 7.66943H6ZM8 5.66943C8 5.11715 7.55228 4.66943 7 4.66943C6.44772 4.66943 6 5.11715 6 5.66943H8ZM19 24.6693C23.2342 24.6693 26.6666 21.2368 26.6666 17.0026H24.6666C24.6666 20.1322 22.1296 22.6693 19 22.6693V24.6693ZM26.6666 17.0026C26.6666 12.7684 23.2342 9.33594 19 9.33594V11.3359C22.1296 11.3359 24.6666 13.873 24.6666 17.0026H26.6666ZM19 9.33594C14.7658 9.33594 11.3333 12.7684 11.3333 17.0026H13.3333C13.3333 13.873 15.8704 11.3359 19 11.3359V9.33594ZM11.3333 17.0026C11.3333 21.2368 14.7658 24.6693 19 24.6693V22.6693C15.8704 22.6693 13.3333 20.1322 13.3333 17.0026H11.3333ZM26.8945 7.22239L25.4478 4.32772L23.6588 5.22182L25.1055 8.11648L26.8945 7.22239ZM25.4477 4.32743C24.9393 3.31099 23.9002 2.66909 22.7637 2.66943L22.7643 4.66943C23.1431 4.66932 23.4895 4.88329 23.659 5.2221L25.4477 4.32743ZM22.764 2.66943H15.236V4.66943H22.764V2.66943ZM15.2363 2.66943C14.0998 2.66909 13.0607 3.31099 12.5523 4.32743L14.341 5.2221C14.5105 4.88329 14.8569 4.66932 15.2357 4.66943L15.2363 2.66943ZM12.5522 4.32772L11.1055 7.22238L12.8945 8.11648L14.3412 5.22182L12.5522 4.32772ZM12 6.66943H3V8.66943H12V6.66943ZM3 6.66943C1.34315 6.66943 0 8.01258 0 9.66943H2C2 9.11715 2.44772 8.66943 3 8.66943V6.66943ZM0 9.66943V25.6694H2V9.66943H0ZM0 25.6694C0 27.3263 1.34315 28.6694 3 28.6694V26.6694C2.44772 26.6694 2 26.2217 2 25.6694H0ZM3 28.6694H29V26.6694H3V28.6694ZM29 28.6694C30.6569 28.6694 32 27.3263 32 25.6694H30C30 26.2217 29.5523 26.6694 29 26.6694V28.6694ZM32 25.6694V9.66943H30V25.6694H32ZM32 9.66943C32 8.01258 30.6569 6.66943 29 6.66943V8.66943C29.5523 8.66943 30 9.11715 30 9.66943H32ZM29 6.66943H26V8.66943H29V6.66943ZM6.16669 12.6694C5.89054 12.6694 5.66669 12.4456 5.66669 12.1694H7.66669C7.66669 11.341 6.99511 10.6694 6.16669 10.6694V12.6694ZM5.66669 12.1694C5.66669 11.8933 5.89054 11.6694 6.16669 11.6694V13.6694C6.99511 13.6694 7.66669 12.9979 7.66669 12.1694H5.66669ZM6.16669 11.6694C6.44283 11.6694 6.66669 11.8933 6.66669 12.1694H4.66669C4.66669 12.9979 5.33826 13.6694 6.16669 13.6694V11.6694ZM6.66669 12.1694C6.66669 12.4456 6.44283 12.6694 6.16669 12.6694V10.6694C5.33826 10.6694 4.66669 11.341 4.66669 12.1694H6.66669ZM5.17578 11.6694V12.6748H7.17578V11.6694H5.17578ZM8 7.66943V5.66943H6V7.66943H8Z" fill="currentColor"/>
</svg>
