<svg width="32" height="32" viewBox="0 0 32 32" fill="none" xmlns="http://www.w3.org/2000/svg">
<path d="M10.5 9.47213V3.87023C10.5 2.83895 11.3208 2.00293 12.3334 2.00293H21.6578C22.1437 2.00293 22.6096 2.1996 22.9533 2.54943L26.4636 6.12469C26.8071 6.47474 27.0001 6.94935 27.0001 7.44424V20.6759C27.0001 21.7072 26.1793 22.5432 25.1668 22.5432H21.5001M21.5002 28.1452C21.5002 29.1765 20.6793 30.0125 19.6668 30.0125H6.83335C5.82082 30.0125 5 29.1765 5 28.1452V11.3395C5 10.3082 5.82082 9.47217 6.83335 9.47217H16.1578C16.6437 9.47217 17.1096 9.66883 17.4533 10.0187L20.9636 13.5939C21.3071 13.944 21.5002 14.4186 21.5002 14.9135V28.1452Z" stroke="currentColor" stroke-width="2" stroke-linecap="round" stroke-linejoin="round"/>
</svg>
