<svg width="32" height="32" viewBox="0 0 32 32" fill="none" xmlns="http://www.w3.org/2000/svg">
<path d="M10.9836 22.4979H2.94486C1.87074 22.4979 1 21.6253 1 20.5488V4.95532C1 3.87882 1.87074 3.00614 2.94486 3.00614H21.0586C22.1327 3.00614 23.0034 3.87882 23.0034 4.95532V10.9865M1 9.00293H23M7 5.28162V1.00293M17 5.28162V1.00293M25.2459 22.4853H21.918V19.0685M22.1557 30.0029C26.488 30.0029 30 26.4909 30 22.1587C30 17.8264 26.488 14.3144 22.1557 14.3144C17.8235 14.3144 14.3115 17.8264 14.3115 22.1587C14.3115 26.4909 17.8235 30.0029 22.1557 30.0029Z" stroke="currentColor" stroke-width="2" stroke-linecap="round" stroke-linejoin="round"/>
</svg>
