<svg width="32" height="32" viewBox="0 0 32 32" fill="none" xmlns="http://www.w3.org/2000/svg">
<path d="M30.1901 15.2647L31.1887 15.2124C31.1598 14.6608 30.6893 14.2372 30.1378 14.2661L30.1901 15.2647ZM30.3994 19.2592L30.4518 20.2579C30.7166 20.244 30.9651 20.1254 31.1426 19.9284C31.3201 19.7313 31.412 19.4717 31.3981 19.2069L30.3994 19.2592ZM2.44274 20.7244L1.44411 20.7767C1.47302 21.3282 1.94355 21.7519 2.49508 21.723L2.44274 20.7244ZM2.2334 16.7299L2.18106 15.7312C1.91621 15.7451 1.66772 15.8636 1.49025 16.0607C1.31279 16.2578 1.22089 16.5173 1.23477 16.7822L2.2334 16.7299ZM18.2066 15.8933L17.2079 15.9456L17.2603 16.9443L18.2589 16.8919L18.2066 15.8933ZM17.8926 9.90153L17.8402 8.90291L16.8416 8.95524L16.8939 9.95387L17.8926 9.90153ZM27.2103 9.41321L28.2089 9.36088L28.1566 8.36225L27.1579 8.41458L27.2103 9.41321ZM27.5243 15.405L27.5766 16.4036L28.5752 16.3513L28.5229 15.3527L27.5243 15.405ZM24.698 4.64575L25.6966 4.59342L25.6443 3.59479L24.6456 3.64712L24.698 4.64575ZM24.9541 9.53221L25.0064 10.5308L26.005 10.4785L25.9527 9.47987L24.9541 9.53221ZM15.8193 10.0109L14.8207 10.0633L14.873 11.0619L15.8716 11.0096L15.8193 10.0109ZM15.5632 5.12449L15.5109 4.12586L14.5122 4.17819L14.5646 5.17682L15.5632 5.12449ZM3.80704 8.63751L3.75471 7.63888L2.75608 7.69122L2.80841 8.68985L3.80704 8.63751ZM4.22573 16.6265L3.2271 16.6789L3.27944 17.6775L4.27807 17.6252L4.22573 16.6265ZM11.2969 16.256L11.3492 17.2546L12.3479 17.2023L12.2955 16.2036L11.2969 16.256ZM10.8782 8.26693L11.8768 8.21459L11.8245 7.21596L10.8259 7.2683L10.8782 8.26693ZM5.99991 27.003C5.44763 27.003 4.99991 27.4507 4.99991 28.003C4.99991 28.5553 5.44763 29.003 5.99991 29.003L5.99991 27.003ZM25.9999 29.003C26.5522 29.003 26.9999 28.5553 26.9999 28.003C26.9999 27.4507 26.5522 27.003 25.9999 27.003L25.9999 29.003ZM29.1915 15.317L29.4008 19.3116L31.3981 19.2069L31.1887 15.2124L29.1915 15.317ZM30.3471 18.2606L2.39041 19.7257L2.49508 21.723L30.4518 20.2579L30.3471 18.2606ZM3.44137 20.672L3.23203 16.6775L1.23477 16.7822L1.44411 20.7767L3.44137 20.672ZM2.28573 17.7285L30.2424 16.2633L30.1378 14.2661L2.18106 15.7312L2.28573 17.7285ZM19.2052 15.841L18.8912 9.8492L16.8939 9.95387L17.2079 15.9456L19.2052 15.841ZM17.9449 10.9002L27.2626 10.4118L27.1579 8.41458L17.8402 8.90291L17.9449 10.9002ZM26.2116 9.46555L26.5256 15.4573L28.5229 15.3527L28.2089 9.36088L26.2116 9.46555ZM27.4719 14.4064L18.1542 14.8947L18.2589 16.8919L27.5766 16.4036L27.4719 14.4064ZM23.6993 4.69809L23.9554 9.58455L25.9527 9.47987L25.6966 4.59342L23.6993 4.69809ZM24.9017 8.53358L15.767 9.01232L15.8716 11.0096L25.0064 10.5308L24.9017 8.53358ZM16.8179 9.95861L16.5618 5.07215L14.5646 5.17682L14.8207 10.0633L16.8179 9.95861ZM15.6155 6.12312L24.7503 5.64438L24.6456 3.64712L15.5109 4.12586L15.6155 6.12312ZM2.80841 8.68985L3.2271 16.6789L5.22436 16.5742L4.80567 8.58518L2.80841 8.68985ZM4.27807 17.6252L11.3492 17.2546L11.2446 15.2573L4.1734 15.6279L4.27807 17.6252ZM12.2955 16.2036L11.8768 8.21459L9.87958 8.31926L10.2983 16.3083L12.2955 16.2036ZM10.8259 7.2683L3.75471 7.63888L3.85938 9.63614L10.9305 9.26556L10.8259 7.2683ZM18.9999 24.003C18.9999 25.6598 17.6568 27.003 15.9999 27.003V29.003C18.7613 29.003 20.9999 26.7644 20.9999 24.003H18.9999ZM15.9999 27.003C14.3431 27.003 12.9999 25.6598 12.9999 24.003H10.9999C10.9999 26.7644 13.2385 29.003 15.9999 29.003V27.003ZM12.9999 24.003C12.9999 22.3461 14.3431 21.003 15.9999 21.003V19.003C13.2385 19.003 10.9999 21.2416 10.9999 24.003H12.9999ZM15.9999 21.003C17.6568 21.003 18.9999 22.3461 18.9999 24.003H20.9999C20.9999 21.2416 18.7613 19.003 15.9999 19.003V21.003ZM5.99991 29.003L25.9999 29.003L25.9999 27.003L5.99991 27.003L5.99991 29.003Z" fill="currentColor"/>
</svg>
