<svg width="32" height="32" viewBox="0 0 32 32" fill="none" xmlns="http://www.w3.org/2000/svg">
<path d="M10.6267 19.9547C10.2359 20.3449 10.2354 20.9781 10.6256 21.3689C11.0158 21.7598 11.649 21.7602 12.0398 21.37L10.6267 19.9547ZM21.3732 12.0511C21.764 11.6609 21.7645 11.0277 21.3743 10.6369C20.984 10.2461 20.3509 10.2456 19.96 10.6358L21.3732 12.0511ZM13.5866 10.9575L14.2932 10.2498L14.2932 10.2498L13.5866 10.9575ZM13.5866 13.5932L14.2932 14.3009L14.2932 14.3009L13.5866 13.5932ZM10.9467 13.5932L10.2402 14.3009L10.2402 14.3009L10.9467 13.5932ZM10.9467 10.9575L10.2402 10.2498L10.2402 10.2498L10.9467 10.9575ZM6.10896 25.9147L6.81552 25.2071L6.81552 25.2071L6.10896 25.9147ZM25.9488 6.10554L25.2422 6.8132L25.2422 6.8132L25.9488 6.10554ZM15.3461 31.0019C15.8978 31.0268 16.3653 30.5998 16.3902 30.048C16.4151 29.4963 15.988 29.0289 15.4363 29.0039L15.3461 31.0019ZM29.0041 14.8273C29.0541 15.3773 29.5405 15.7826 30.0905 15.7326C30.6405 15.6827 31.0459 15.1962 30.9959 14.6462L29.0041 14.8273ZM20.6667 21.9049H19.6667C19.6667 22.4572 20.1144 22.9049 20.6667 22.9049V21.9049ZM28.1333 21.9049V22.9049C28.6856 22.9049 29.1333 22.4572 29.1333 21.9049H28.1333ZM24.4 25.596L24.4 26.596L24.4 25.596ZM12.0398 21.37L21.3732 12.0511L19.96 10.6358L10.6267 19.9547L12.0398 21.37ZM12.88 11.6651C13.2178 12.0023 13.2178 12.5484 12.88 12.8856L14.2932 14.3009C15.4134 13.1824 15.4134 11.3683 14.2932 10.2498L12.88 11.6651ZM12.88 12.8856C12.5415 13.2236 11.9919 13.2236 11.6533 12.8856L10.2402 14.3009C11.3596 15.4185 13.1738 15.4185 14.2932 14.3009L12.88 12.8856ZM11.6533 12.8856C11.3156 12.5484 11.3156 12.0023 11.6533 11.6651L10.2402 10.2498C9.11994 11.3683 9.11994 13.1824 10.2402 14.3009L11.6533 12.8856ZM11.6533 11.6651C11.9919 11.3271 12.5415 11.3271 12.88 11.6651L14.2932 10.2498C13.1738 9.13216 11.3596 9.13215 10.2402 10.2498L11.6533 11.6651ZM6.81552 25.2071C1.72816 20.1275 1.72816 11.8927 6.81552 6.8132L5.4024 5.39789C-0.467467 11.2587 -0.467467 20.7616 5.4024 26.6224L6.81552 25.2071ZM6.81552 6.8132C11.9037 1.73284 20.154 1.73284 25.2422 6.8132L26.6553 5.39789C20.7863 -0.462057 11.2714 -0.462057 5.4024 5.39789L6.81552 6.8132ZM15.4363 29.0039C12.3005 28.8624 9.20921 27.597 6.81552 25.2071L5.4024 26.6224C8.16289 29.3786 11.7321 30.8387 15.3461 31.0019L15.4363 29.0039ZM25.2422 6.8132C27.4851 9.05266 28.7383 11.9027 29.0041 14.8273L30.9959 14.6462C30.6892 11.2722 29.2416 7.98015 26.6553 5.39789L25.2422 6.8132ZM21.6 22.9073H27.2V20.9073H21.6V22.9073ZM29 24.703V27.188H31V24.703H29ZM27.2 28.9837H21.6V30.9837H27.2V28.9837ZM19.8 27.188V24.703H17.8V27.188H19.8ZM21.6 28.9837C20.6044 28.9837 19.8 28.1783 19.8 27.188H17.8C17.8 29.2858 19.5028 30.9837 21.6 30.9837V28.9837ZM29 27.188C29 28.1783 28.1956 28.9837 27.2 28.9837V30.9837C29.2972 30.9837 31 29.2858 31 27.188H29ZM27.2 22.9073C28.1956 22.9073 29 23.7127 29 24.703H31C31 22.6052 29.2972 20.9073 27.2 20.9073V22.9073ZM21.6 20.9073C19.5028 20.9073 17.8 22.6052 17.8 24.703H19.8C19.8 23.7127 20.6044 22.9073 21.6 22.9073V20.9073ZM24.4 15.9348C21.9014 15.9348 19.6667 17.7571 19.6667 20.2482H21.6667C21.6667 19.0794 22.7749 17.9348 24.4 17.9348V15.9348ZM19.6667 20.2482V21.9049H21.6667V20.2482H19.6667ZM20.6667 22.9049H28.1333V20.9049H20.6667V22.9049ZM29.1333 21.9049V20.2482H27.1333V21.9049H29.1333ZM29.1333 20.2482C29.1333 17.7571 26.8986 15.9348 24.4 15.9348V17.9348C26.0251 17.9348 27.1333 19.0794 27.1333 20.2482H29.1333ZM24.4 26.596C24.0425 26.596 23.75 26.3062 23.75 25.9454H25.75C25.75 25.1987 25.1441 24.596 24.4 24.596L24.4 26.596ZM23.75 25.9454C23.75 25.5847 24.0425 25.2949 24.4 25.2949V27.2949C25.1441 27.2949 25.75 26.6922 25.75 25.9454H23.75ZM24.4 25.2949C24.7575 25.2949 25.05 25.5847 25.05 25.9454H23.05C23.05 26.6922 23.6559 27.2949 24.4 27.2949V25.2949ZM25.05 25.9454C25.05 26.3062 24.7575 26.596 24.4 26.596V24.596C23.6559 24.596 23.05 25.1987 23.05 25.9454H25.05ZM23.4 25.2467V26.6444H25.4V25.2467H23.4Z" fill="currentColor"/>
</svg>
