<svg width="32" height="32" viewBox="0 0 32 32" fill="none" xmlns="http://www.w3.org/2000/svg">
<path d="M31 31L27 24.8462V18.6897C27 16.4069 22.6283 13.0541 20 11M23 20L19.381 15.7089C19.1117 15.4606 17.6499 14.3499 16.5301 15.5412C15.3718 16.7734 16.3899 18.1817 16.9576 18.9144L20.008 22.7552V26.8776C20.008 28.7178 22.5023 31 22.5023 31M20 16V5C20 2.79086 18.2091 1 16 1H7.644C6.67767 0.999647 5.7508 1.38327 5.06738 2.06644C4.38396 2.74961 4 3.67634 4 4.64267V25.356C3.99965 26.3226 4.38345 27.2496 5.06691 27.9331C5.75037 28.6165 6.67744 29.0004 7.644 29H16.356C17.4919 28.9963 18.1691 28.7061 18.94 27.9331C19.7085 27.1626 20 26.32 20 25.356V23.7874M4 23H19M12 5.00039C12.7865 4.98439 16 5.57776 16 6.41056V9.79443C16 12.2939 14.6541 14.0753 12.4787 14.9111C12.3246 14.9704 12.1623 15 12 15M12 5.00039C11.2135 4.98439 7.99999 5.46288 8 6.41056V9.79443C8 12.2939 9.34593 14.0753 11.5213 14.9111C11.6754 14.9704 11.8377 15 12 15M12 5.00039V15M13 19H8" stroke="currentColor" stroke-width="2" stroke-linecap="round" stroke-linejoin="round"/>
</svg>
