<svg width="32" height="32" viewBox="0 0 32 32" fill="none" xmlns="http://www.w3.org/2000/svg">
<path d="M6.5 5.50293H25.5M6.5 5.50293C5.39543 5.50293 4.5 6.39836 4.5 7.50293C4.5 8.6075 5.39543 9.50293 6.5 9.50293H25.5C26.6046 9.50293 27.5 8.6075 27.5 7.50293C27.5 6.39836 26.6046 5.50293 25.5 5.50293M6.5 5.50293L7.87433 2.60826C8.19632 1.93063 8.85442 1.5027 9.5742 1.50293H22.4258C23.1456 1.5027 23.8037 1.93063 24.1257 2.60826L25.5 5.50293M24.1973 28.6353C24.0846 29.6987 23.2284 30.5031 22.2093 30.5029H9.79067C8.77164 30.5031 7.91544 29.6987 7.80267 28.6353L6 9.50293H26L24.1973 28.6353ZM16 22.0029C17.933 22.0029 19.5 20.4359 19.5 18.5029C19.5 16.5699 17.933 15.0029 16 15.0029C14.067 15.0029 12.5 16.5699 12.5 18.5029C12.5 20.4359 14.067 22.0029 16 22.0029Z" stroke="currentColor" stroke-width="2" stroke-linecap="round" stroke-linejoin="round"/>
</svg>
