<svg width="32" height="32" viewBox="0 0 32 32" fill="none" xmlns="http://www.w3.org/2000/svg">
<path d="M23.8 25.0028H29C30.1046 25.0028 31 24.1074 31 23.0028V15.0028M31 15.0028H1M31 15.0028L27.5533 8.10826C27.2144 7.43063 26.5217 7.0027 25.764 7.00293H23M1 15.0028V23.0028C1 24.1074 1.89543 25.0028 3 25.0028H8.2M1 15.0028L4.44667 8.10826C4.78559 7.43063 5.47834 7.0027 6.236 7.00293H9M13 27.0029H19M23 21.0029H9L7 31.0029H25L23 21.0029ZM9 1.00293H23V11.0029H9V1.00293ZM27.5 19.0029C27.2239 19.0029 27 19.2268 27 19.5029C27 19.7791 27.2239 20.0029 27.5 20.0029C27.7761 20.0029 28 19.7791 28 19.5029C28 19.2268 27.7761 19.0029 27.5 19.0029Z" stroke="currentColor" stroke-width="2" stroke-linecap="round" stroke-linejoin="round"/>
</svg>
