<svg width="32" height="32" viewBox="0 0 32 32" fill="none" xmlns="http://www.w3.org/2000/svg">
<path d="M15.9425 5.67059L9.10991 12.719M5.92187 16.5456L15.4793 26.2898M19.567 23.1425L26.063 16.6464M23.356 12.7191L19.5669 9.11652M20.5 5.50391C20.5 7.98919 18.4853 10.0039 16 10.0039C13.5147 10.0039 11.5 7.98919 11.5 5.50391C11.5 3.01862 13.5147 1.00391 16 1.00391C18.4853 1.00391 20.5 3.01862 20.5 5.50391ZM20.5 26.5C20.5 28.9853 18.4853 31 16 31C13.5147 31 11.5 28.9853 11.5 26.5C11.5 24.0147 13.5147 22 16 22C18.4853 22 20.5 24.0147 20.5 26.5ZM10 16.002C10 18.4872 7.98528 20.502 5.5 20.502C3.01472 20.502 1 18.4872 1 16.002C1 13.5167 3.01472 11.502 5.5 11.502C7.98528 11.502 10 13.5167 10 16.002ZM31 16.002C31 18.4872 28.9853 20.502 26.5 20.502C24.0147 20.502 22 18.4872 22 16.002C22 13.5167 24.0147 11.502 26.5 11.502C28.9853 11.502 31 13.5167 31 16.002Z" stroke="currentColor" stroke-width="2" stroke-linecap="round"/>
</svg>
