<svg width="32" height="32" viewBox="0 0 32 32" fill="none" xmlns="http://www.w3.org/2000/svg">
<path d="M6.98025 24H4.5909C3.71227 24 3 23.2773 3 22.3859V4.61411C3 3.72266 3.71227 3 4.5909 3H15.4175C16.2915 3 17 3.72266 17 4.61411V6M24 17V12.5631C24 12.0571 23.8011 11.5719 23.4472 11.214L19.8306 7.55873C19.4765 7.20107 18.9964 7 18.4958 7H8.88889C7.84568 7 7 7.85473 7 8.90909V26.0909C7 27.1453 7.84568 28 8.88889 28H15M11 13.0005L17 13M11 17.0018L19 17.001M11 21.001L19 21M30.4358 19.564C29.6776 18.8094 28.4515 18.8124 27.6971 19.5708C27.6932 19.5747 27.6893 19.5787 27.6854 19.5827L19.9707 27.2975L19 31L22.7024 30.0296L30.4171 22.3147C31.1816 21.5677 31.196 20.3423 30.4492 19.5776C30.4448 19.5731 30.4403 19.5685 30.4358 19.564Z" stroke="currentColor" stroke-width="2" stroke-linecap="round" stroke-linejoin="round"/>
</svg>
