<svg width="32" height="32" viewBox="0 0 32 32" fill="none" xmlns="http://www.w3.org/2000/svg">
<path d="M28.4536 15.0105L28.6515 15.9907L28.4536 15.0105ZM30.4783 9.33125L31.3983 8.93939C31.2124 8.50291 30.7454 8.25713 30.2804 8.35103L30.4783 9.33125ZM28.4325 9.74437L27.4531 9.94647C27.5644 10.4857 28.0907 10.8336 28.6304 10.7246L28.4325 9.74437ZM20.2491 11.3969L19.2697 11.599L20.2491 11.3969ZM25.3848 15.6302L25.1869 14.6499L25.3848 15.6302ZM25.271 7.3441C25.5529 7.81905 26.1664 7.97559 26.6413 7.69373C27.1163 7.41188 27.2728 6.79837 26.991 6.32342L25.271 7.3441ZM19.6008 3.09287L19.7988 4.07308L19.6008 3.09287ZM15.2382 12.9335L16.2176 12.7314L15.2382 12.9335ZM23.5682 22.3191L22.7043 22.8228C22.9199 23.1924 23.3467 23.384 23.7662 23.2993L23.5682 22.3191ZM28.7112 15.2591C28.7676 14.7097 28.3679 14.2186 27.8185 14.1622C27.2691 14.1059 26.778 14.5055 26.7216 15.0549L28.7112 15.2591ZM15.2182 12.3765C15.7596 12.2672 16.1098 11.7397 16.0005 11.1983C15.8912 10.657 15.3637 10.3067 14.8223 10.4161L15.2182 12.3765ZM8.78728 12.6549L8.92644 13.6452C8.94613 13.6424 8.96573 13.6391 8.98522 13.6351L8.78728 12.6549ZM4.71646 18.7459L5.69582 18.5438C5.69174 18.5241 5.68706 18.5044 5.68179 18.4849L4.71646 18.7459ZM5.8252 29.0671C5.93681 29.608 6.46577 29.956 7.00666 29.8444C7.54755 29.7328 7.89554 29.2038 7.78393 28.6629L5.8252 29.0671ZM11.2283 19.5383C11.1167 18.9975 10.5877 18.6495 10.0469 18.7611C9.50596 18.8727 9.15797 19.4017 9.26958 19.9425L11.2283 19.5383ZM5.77165 23.8407C5.23029 23.95 4.88006 24.4775 4.98937 25.0188C5.09869 25.5602 5.62617 25.9104 6.16753 25.8011L5.77165 23.8407ZM12.9524 26.2288L11.9829 26.4738L12.0512 26.7439L12.2492 26.9398L12.9524 26.2288ZM14.2964 28.9649C14.689 29.3533 15.3222 29.3499 15.7106 28.9573C16.099 28.5646 16.0956 27.9315 15.7029 27.5431L14.2964 28.9649ZM12.9879 22.2878C12.8526 21.7523 12.3088 21.428 11.7734 21.5633C11.2379 21.6986 10.9135 22.2424 11.0489 22.7778L12.9879 22.2878ZM9.43813 22.045C8.89677 22.1543 8.54654 22.6818 8.65586 23.2232C8.76517 23.7645 9.29265 24.1147 9.83401 24.0054L9.43813 22.045ZM15.9686 21.7465L15.7707 20.7662L15.7707 20.7662L15.9686 21.7465ZM21.5714 26.0217C22.0159 26.3495 22.642 26.2549 22.9698 25.8104C23.2975 25.3659 23.2029 24.7399 22.7584 24.4121L21.5714 26.0217ZM4.61458 16.3781C5.12404 16.5914 5.7099 16.3512 5.92315 15.8418C6.13639 15.3323 5.89626 14.7465 5.3868 14.5332L4.61458 16.3781ZM1.95554 10.7686C1.79269 10.2409 1.23287 9.94507 0.705138 10.1079C0.177408 10.2708 -0.118388 10.8306 0.0444601 11.3583L1.95554 10.7686ZM28.6515 15.9907C29.8942 15.7397 30.7784 15.1521 31.3276 14.3301C31.8585 13.5356 32.0034 12.6312 32.0003 11.857C31.9972 11.0784 31.8444 10.3521 31.7009 9.83502C31.6282 9.57287 31.5553 9.3557 31.4996 9.20159C31.4717 9.12435 31.448 9.06245 31.4304 9.01811C31.4216 8.99593 31.4144 8.9781 31.409 8.9649C31.4063 8.9583 31.404 8.95285 31.4022 8.94859C31.4013 8.94645 31.4006 8.94462 31.3999 8.94309C31.3996 8.94232 31.3993 8.94163 31.399 8.94101C31.3989 8.9407 31.3987 8.9403 31.3987 8.94014C31.3985 8.93976 31.3983 8.93939 30.4783 9.33125C29.5583 9.7231 29.5581 9.72277 29.558 9.72246C29.558 9.72238 29.5579 9.72209 29.5578 9.72193C29.5577 9.72161 29.5575 9.72136 29.5575 9.72118C29.5573 9.72082 29.5573 9.72075 29.5574 9.72095C29.5575 9.72136 29.5582 9.72289 29.5593 9.72549C29.5614 9.7307 29.5653 9.74022 29.5706 9.75379C29.5814 9.78094 29.598 9.82411 29.6186 9.88119C29.66 9.9957 29.7167 10.1641 29.7738 10.3699C29.89 10.7885 29.9982 11.3271 30.0003 11.865C30.0025 12.4073 29.897 12.8712 29.6647 13.219C29.4507 13.5393 29.0588 13.8681 28.2557 14.0303L28.6515 15.9907ZM30.2804 8.35103L28.2345 8.76416L28.6304 10.7246L30.6763 10.3115L30.2804 8.35103ZM29.4118 9.54228C28.8374 6.75845 26.0979 4.97931 23.3076 5.54278L23.7035 7.50321C25.4327 7.15402 27.105 8.2594 27.4531 9.94647L29.4118 9.54228ZM23.3076 5.54278C20.5141 6.10687 18.6946 8.81178 19.2697 11.599L21.2285 11.1948C20.881 9.51107 21.9774 7.85176 23.7035 7.50321L23.3076 5.54278ZM19.2697 11.599C19.5988 13.1937 20.1733 14.6535 21.224 15.6202C22.3335 16.641 23.8103 16.9683 25.5828 16.6104L25.1869 14.6499C23.8906 14.9117 23.1128 14.6403 22.5782 14.1484C21.9848 13.6024 21.5258 12.6358 21.2285 11.1948L19.2697 11.599ZM25.5828 16.6104L28.6515 15.9907L28.2557 14.0303L25.1869 14.6499L25.5828 16.6104ZM26.991 6.32342C25.2893 3.45598 22.4182 1.50377 19.4029 2.11265L19.7988 4.07308C21.6499 3.69928 23.8014 4.86761 25.271 7.3441L26.991 6.32342ZM19.4029 2.11265C17.3075 2.5358 15.7488 4.0921 14.8662 6.08321C13.9828 8.07609 13.7315 10.5802 14.2588 13.1356L16.2176 12.7314C15.7646 10.5361 15.9993 8.4623 16.6946 6.8937C17.3908 5.32334 18.5036 4.33463 19.7988 4.07308L19.4029 2.11265ZM14.2588 13.1356C15.0035 16.7441 16.8718 18.5833 18.7281 19.8565C19.1798 20.1663 19.6296 20.4422 20.047 20.6954C20.4721 20.9533 20.8541 21.1821 21.2092 21.4175C21.9224 21.8903 22.4091 22.3163 22.7043 22.8228L24.4322 21.8155C23.9027 20.9073 23.1055 20.275 22.3143 19.7505C21.9171 19.4872 21.4918 19.2326 21.0843 18.9854C20.6691 18.7336 20.261 18.4827 19.8593 18.2072C18.3022 17.1392 16.8302 15.7002 16.2176 12.7314L14.2588 13.1356ZM23.7662 23.2993C25.3439 22.9807 26.492 21.7719 27.2625 20.3477C28.0415 18.9077 28.5223 17.0995 28.7112 15.2591L26.7216 15.0549C26.5519 16.7092 26.1254 18.2464 25.5034 19.396C24.8729 20.5614 24.1262 21.1863 23.3703 21.3389L23.7662 23.2993ZM14.8223 10.4161L8.58935 11.6747L8.98522 13.6351L15.2182 12.3765L14.8223 10.4161ZM8.64813 11.6647C6.97129 11.9003 5.47327 12.8356 4.53541 14.2389L6.19823 15.3502C6.81683 14.4247 7.80912 13.8022 8.92644 13.6452L8.64813 11.6647ZM4.53541 14.2389C3.59718 15.6427 3.3109 17.3788 3.75112 19.0069L5.68179 18.4849C5.39278 17.416 5.58 16.2753 6.19823 15.3502L4.53541 14.2389ZM3.73709 18.948L5.8252 29.0671L7.78393 28.6629L5.69582 18.5438L3.73709 18.948ZM9.26958 19.9425C9.53221 21.2152 9.2609 21.9757 8.76641 22.5017C8.21342 23.0899 7.23248 23.5457 5.77165 23.8407L6.16753 25.8011C7.77545 25.4764 9.24741 24.9099 10.2235 23.8717C11.2581 22.7712 11.5921 21.3014 11.2283 19.5383L9.26958 19.9425ZM12.2492 26.9398L14.2964 28.9649L15.7029 27.5431L13.6557 25.5179L12.2492 26.9398ZM11.0489 22.7778L11.9829 26.4738L13.922 25.9838L12.9879 22.2878L11.0489 22.7778ZM9.83401 24.0054L16.1666 22.7267L15.7707 20.7662L9.43813 22.045L9.83401 24.0054ZM16.1665 22.7267C16.6508 22.6289 17.1656 22.7445 17.4603 22.9714L18.6807 21.3869C17.8525 20.749 16.7234 20.5739 15.7707 20.7662L16.1665 22.7267ZM17.4603 22.9714C17.7509 23.1952 18.7854 23.9627 19.7335 24.6641C20.2106 25.0171 20.67 25.3565 21.0102 25.6076C21.1803 25.7332 21.3206 25.8367 21.4183 25.9088C21.4672 25.9449 21.5055 25.9731 21.5315 25.9923C21.5445 26.0019 21.5545 26.0093 21.5612 26.0142C21.5646 26.0167 21.5671 26.0186 21.5688 26.0198C21.5697 26.0205 21.5703 26.0209 21.5708 26.0213C21.571 26.0214 21.5711 26.0215 21.5713 26.0216C21.5713 26.0217 21.5713 26.0217 21.5714 26.0217C21.5714 26.0217 21.5714 26.0217 22.1649 25.2169C22.7584 24.4121 22.7584 24.4121 22.7584 24.4121C22.7584 24.412 22.7583 24.412 22.7583 24.412C22.7582 24.4119 22.758 24.4118 22.7578 24.4116C22.7574 24.4113 22.7567 24.4108 22.7559 24.4102C22.7542 24.409 22.7517 24.4071 22.7483 24.4046C22.7416 24.3997 22.7317 24.3924 22.7187 24.3828C22.6927 24.3636 22.6545 24.3355 22.6057 24.2994C22.5081 24.2274 22.368 24.124 22.1981 23.9986C21.8583 23.7477 21.3994 23.4087 20.923 23.0563C19.9643 22.347 18.9516 21.5955 18.6807 21.3869L17.4603 22.9714ZM5.3868 14.5332C3.7324 13.8407 2.47763 12.4605 1.95554 10.7686L0.0444601 11.3583C0.743037 13.6221 2.41854 15.4589 4.61458 16.3781L5.3868 14.5332Z" fill="currentColor"/>
</svg>
