<svg width="32" height="32" viewBox="0 0 32 32" fill="none" xmlns="http://www.w3.org/2000/svg">
<path d="M6.44311 30.9991L11.5463 18.3937V18.3937C11.7515 17.8852 11.5284 17.2968 11.0481 17.0795C10.9312 17.0267 10.8056 16.9993 10.6786 16.9991H6.94689V16.9991C6.42591 17.0011 6.00198 16.5557 6.00001 16.0042C5.99951 15.8662 6.02603 15.7296 6.07788 15.6031L11.8587 1.60305V1.60305C12.0088 1.2388 12.3485 1.00326 12.7239 1.00305H22.4215V1.00305C22.9432 1.00325 23.3659 1.45113 23.3657 2.00341C23.3657 2.23064 23.2925 2.45107 23.1583 2.62839L18.0576 9.37905V9.37905C17.7321 9.81062 17.7986 10.4399 18.2063 10.7845C18.3736 10.926 18.5814 11.003 18.7956 11.0031H23.055V11.0031C23.5767 11.0028 23.9998 11.4503 24 12.0026C24.0001 12.2684 23.9003 12.5233 23.7225 12.7111L6.44311 30.9991Z" stroke="currentColor" stroke-width="2" stroke-linejoin="round"/>
</svg>
