<svg width="32" height="32" viewBox="0 0 32 32" fill="none" xmlns="http://www.w3.org/2000/svg">
<path d="M11 12.0029C11.2761 12.0029 11.5 12.2268 11.5 12.5029C11.5 12.7791 11.2761 13.0029 11 13.0029M11 12.0029C10.7239 12.0029 10.5 12.2268 10.5 12.5029C10.5 12.7791 10.7239 13.0029 11 13.0029M11 12.0029V13.0029M21 12.0029C21.2761 12.0029 21.5 12.2268 21.5 12.5029C21.5 12.7791 21.2761 13.0029 21 13.0029M21 12.0029C20.7239 12.0029 20.5 12.2268 20.5 12.5029C20.5 12.7791 20.7239 13.0029 21 13.0029M21 12.0029V13.0029M24 20.0029C22.4934 23.0688 19.3934 25.0085 16 25.0085C12.6066 25.0085 9.50662 23.0688 8 20.0029M16 31.0029C24.2843 31.0029 31 24.2872 31 16.0029C31 7.71866 24.2843 1.00293 16 1.00293C7.71573 1.00293 1 7.71866 1 16.0029C1 24.2872 7.71573 31.0029 16 31.0029Z" stroke="currentColor" stroke-width="2" stroke-linecap="round" stroke-linejoin="round"/>
</svg>
