<svg width="32" height="32" viewBox="0 0 32 32" fill="none" xmlns="http://www.w3.org/2000/svg">
<path d="M4 6H28M7.74992 1H23.7499M26 22.5V17M26 17H20.5M26 17L21.1907 21.8093C20.9145 22.0822 20.5705 22.2762 20.1942 22.3713C19.8179 22.4665 19.423 22.4593 19.0504 22.3506L13.6261 20.8991C13.2615 20.801 12.8775 20.8004 12.5126 20.8976C12.1478 20.9948 11.8149 21.1862 11.5474 21.4526L6 27M1 13.6C1 13.0872 1.21071 12.5955 1.58579 12.2329C1.96086 11.8704 2.46957 11.6667 3 11.6667H29C29.5304 11.6667 30.0391 11.8704 30.4142 12.2329C30.7893 12.5955 31 13.0872 31 13.6V29.0667C31 29.5794 30.7893 30.0712 30.4142 30.4337C30.0391 30.7963 29.5304 31 29 31H3C2.46957 31 1.96086 30.7963 1.58579 30.4337C1.21071 30.0712 1 29.5794 1 29.0667V13.6Z" stroke="currentColor" stroke-width="2" stroke-linecap="round" stroke-linejoin="round"/>
</svg>
