<svg width="32" height="32" viewBox="0 0 32 32" fill="none" xmlns="http://www.w3.org/2000/svg">
<path d="M14.208 7.0638V8.39714M17.792 7.0638V8.39714M16 31.0029C24.2843 31.0029 31 24.2872 31 16.0029C31 7.71866 24.2843 1.00293 16 1.00293C7.71573 1.00293 1 7.71866 1 16.0029C1 24.2872 7.71573 31.0029 16 31.0029ZM21.3333 16.7119C21.3333 19.8415 18.9455 22.3786 16 22.3786C13.0545 22.3786 10.6667 19.8415 10.6667 16.7119C10.6667 13.5823 13.0545 11.0452 16 11.0452C18.9455 11.0452 21.3333 13.5823 21.3333 16.7119ZM14.5413 7.73047C14.5413 7.91456 14.3921 8.0638 14.208 8.0638C14.0239 8.0638 13.8747 7.91456 13.8747 7.73047C13.8747 7.54637 14.0239 7.39714 14.208 7.39714C14.3921 7.39714 14.5413 7.54637 14.5413 7.73047ZM18.1253 7.73047C18.1253 7.91456 17.9761 8.0638 17.792 8.0638C17.6079 8.0638 17.4587 7.91456 17.4587 7.73047C17.4587 7.54637 17.6079 7.39714 17.792 7.39714C17.9761 7.39714 18.1253 7.54637 18.1253 7.73047Z" stroke="currentColor" stroke-width="2"/>
</svg>
