<svg width="32" height="32" viewBox="0 0 32 32" fill="none" xmlns="http://www.w3.org/2000/svg">
<path d="M19 20.5029V27.3603C19 29.3721 17.3691 31.0029 15.3573 31.0029H6.644C4.63199 31.0029 3.00074 29.3723 3 27.3603V6.64693C3.00074 4.63471 4.63178 3.00367 6.644 3.00293H8.66667M3 25.0029H19M18.1339 5.7616H25.7853M18.1339 8.71938H23.0899M27.1932 1.00293H16.8062C14.7041 1.00293 13 2.70702 13 4.80912V10.1984C13 12.3005 14.7041 14.0046 16.8062 14.0046H21.4839V18.5029L26.2417 14.0046H27.1932C29.2953 14.0046 30.9994 12.3005 30.9994 10.1984V4.80912C30.9994 2.70702 29.2953 1.00293 27.1932 1.00293Z" stroke="currentColor" stroke-width="2" stroke-linecap="round" stroke-linejoin="round"/>
</svg>
