<svg width="32" height="32" viewBox="0 0 32 32" fill="none" xmlns="http://www.w3.org/2000/svg">
<path d="M24.6573 14.003C24.2337 12.804 23.1003 12.0023 21.8287 12.0023C20.5571 12.0023 19.4236 12.804 19 14.003M12.9999 14.003C12.5764 12.804 11.4429 12.0023 10.1713 12.0023C8.89966 12.0023 7.76619 12.804 7.34261 14.003M16 31.0029C24.2843 31.0029 31 24.2872 31 16.0029C31 7.71866 24.2843 1.00293 16 1.00293C7.71573 1.00293 1 7.71866 1 16.0029C1 24.2872 7.71573 31.0029 16 31.0029ZM8.91894 19.0029C8.3528 19.003 7.94382 19.5815 8.13253 20.1152C9.30919 23.4516 12.4622 25.6829 16 25.6829C19.5377 25.6829 22.6907 23.4516 23.8674 20.1152C24.0561 19.5815 23.6471 19.003 23.081 19.0029C23.081 19.0029 19.9501 20.1152 16 20.1152C12.0498 20.1152 8.91894 19.0029 8.91894 19.0029Z" stroke="currentColor" stroke-width="2" stroke-linecap="round" stroke-linejoin="round"/>
</svg>
