<svg width="32" height="32" viewBox="0 0 32 32" fill="none" xmlns="http://www.w3.org/2000/svg">
<path d="M9 5.00281H11C11 5.00281 13 5.00281 13 7.00281V25.0028C13 25.0028 13 27.0028 11 27.0028H9C9 27.0028 7 27.0028 7 25.0028V7.00281C7 7.00281 7 5.00281 9 5.00281Z" stroke="currentColor" stroke-width="2" stroke-linecap="round" stroke-linejoin="round"/>
<path d="M21 5.00281H23C23 5.00281 25 5.00281 25 7.00281V25.0028C25 25.0028 25 27.0028 23 27.0028H21C21 27.0028 19 27.0028 19 25.0028V7.00281C19 7.00281 19 5.00281 21 5.00281Z" stroke="currentColor" stroke-width="2" stroke-linecap="round" stroke-linejoin="round"/>
</svg>
