<svg width="32" height="32" viewBox="0 0 32 32" fill="none" xmlns="http://www.w3.org/2000/svg">
<path d="M18.1085 4.15677H20.6331C21.664 4.15677 22.4997 4.99251 22.4997 6.02344M23.5384 24.4028V28.1361C23.5384 29.1671 22.7027 30.0028 21.6718 30.0028H3.86666C2.83573 30.0028 2 29.1671 2 28.1361L2 6.02344C2 4.99251 2.83573 4.15677 3.86666 4.15677H7.59999M7.38461 10.6225H16M7.38461 14.926H10.6154M17.3004 24.6968L12.6811 25.3564L13.3406 20.737L25.2201 8.85758C26.3136 7.76411 28.0864 7.76411 29.1799 8.85758C30.2734 9.95105 30.2734 11.7239 29.1799 12.8174L17.3004 24.6968ZM9.32307 6.31062H16.2154C16.6912 6.31062 17.0769 5.92489 17.0769 5.44908V2.86447C17.0769 2.38865 16.6912 2.00293 16.2154 2.00293H9.32307C8.84725 2.00293 8.46153 2.38865 8.46153 2.86447V5.44908C8.46153 5.92489 8.84725 6.31062 9.32307 6.31062Z" stroke="currentColor" stroke-width="2" stroke-linecap="round" stroke-linejoin="round"/>
</svg>
