<svg width="32" height="32" viewBox="0 0 32 32" fill="none" xmlns="http://www.w3.org/2000/svg">
<path d="M26.5741 10.7984C28.3569 12.9357 28.6104 16.7565 28.1021 19.6202C27.0551 25.5441 24.3418 30.5337 20.6008 30.9951C20.228 31.0289 19.853 30.9573 19.5251 30.7897L16.8995 29.5537C16.3335 29.285 15.6622 29.285 15.0962 29.5537L12.4706 30.7897C12.1427 30.9573 11.7677 31.0289 11.3949 30.9951C7.65385 30.5337 4.94058 25.5403 3.89364 19.6202C2.95907 14.2972 4.65144 5.66308 13.8971 10.7122C14.5544 10.9962 15.2802 11.1172 16.0033 11.0634C16.0033 11.0634 16.6861 6.45474 13.9454 4.40918M11.6667 20.2558H20.3334M16.0001 15.6696V24.3363M25.2392 6.23856C24.2707 7.1556 23.0588 7.77477 21.7482 8.02228C21.2919 8.17335 20.7894 8.05171 20.4528 7.70869C20.1161 7.36567 20.0039 6.86101 20.1635 6.40766C20.401 5.08104 21.0079 3.84832 21.9145 2.85112C22.8823 1.93269 24.0944 1.31289 25.4056 1.06603C25.8618 0.916114 26.3634 1.03815 26.6998 1.38083C27.0361 1.72351 27.1487 2.22741 26.9902 2.68066C26.7522 4.00751 26.1454 5.24052 25.2392 6.23856Z" stroke="currentColor" stroke-width="2" stroke-linecap="round" stroke-linejoin="round"/>
</svg>
