<svg width="32" height="32" viewBox="0 0 32 32" fill="none" xmlns="http://www.w3.org/2000/svg">
<path d="M11 27H3C2.46957 27 1.96086 26.7893 1.58579 26.4142C1.21071 26.0391 1 25.5304 1 25V3C1 2.46957 1.21071 1.96086 1.58579 1.58579C1.96086 1.21071 2.46957 1 3 1H17.172C17.7023 1.00047 18.2106 1.21149 18.5853 1.58667L22.4147 5.41467C22.6004 5.60047 22.7476 5.82104 22.8481 6.06378C22.9485 6.30651 23.0001 6.56665 23 6.82933V11M5 8.99992H17M5 14.9999H11M5 20.9999H11M31 19C31 21.2091 27.4183 23 23 23C18.5817 23 15 21.2091 15 19M31 19C31 16.7909 27.4183 15 23 15C18.5817 15 15 16.7909 15 19M31 19V27C31 29.2093 27.4187 31 23 31C18.5813 31 15 29.2093 15 27V19M15 23C15 25.2093 18.5813 27 23 27C27.4187 27 31 25.2093 31 23" stroke="currentColor" stroke-width="2" stroke-linecap="round" stroke-linejoin="round"/>
</svg>
