<svg width="32" height="32" viewBox="0 0 32 32" fill="none" xmlns="http://www.w3.org/2000/svg">
<path d="M8.01198 25.0029H5.60358C4.71795 25.0029 4 24.2888 4 23.4078V4.60293C4 3.72196 4.71795 3.00293 5.60358 3.00293H8.81075M17.189 3.00293H20.3962C21.2818 3.00293 21.9998 3.72196 21.9998 4.60293V6.09281M28.0371 28.181C28.0371 29.1871 27.2412 30.0028 26.2593 30.0028H13.8149C12.833 30.0028 12.0371 29.1871 12.0371 28.181V11.8245C12.0371 10.8184 12.833 10.0028 13.8149 10.0028H22.8567C23.3278 10.0028 23.7797 10.1946 24.113 10.5359L27.5168 14.0239C27.8499 14.3654 28.0371 14.8285 28.0371 15.3113V28.181ZM9.50798 5.00293H16.492C16.7726 5.00293 17 4.79677 17 4.54247V1.46339C17 1.20909 16.7726 1.00293 16.492 1.00293H9.50798C9.22743 1.00293 9 1.20909 9 1.46339V4.54247C9 4.79677 9.22743 5.00293 9.50798 5.00293Z" stroke="currentColor" stroke-width="2" stroke-linecap="round" stroke-linejoin="round"/>
</svg>
