<svg width="32" height="32" viewBox="0 0 32 32" fill="none" xmlns="http://www.w3.org/2000/svg">
<path d="M17 12.0011L2.55597 26.7607C1.81468 27.5019 1.81468 28.7038 2.55597 29.4451C3.29727 30.1864 4.49915 30.1864 5.24045 29.4451L20 15.0011M18.0153 2.25678L23.8699 4.91781L29.4245 10.477C30.1918 11.2445 30.1918 12.4885 29.4245 13.256L25.255 17.425C24.8863 17.7939 24.3862 18.0011 23.8647 18.0011C23.3432 18.0011 22.8431 17.7939 22.4744 17.425L16.9159 11.8658L14.2546 6.01183C13.7649 4.93578 13.9947 3.66884 14.8311 2.83327C15.6681 1.99534 16.9376 1.76549 18.0153 2.25678Z" stroke="currentColor" stroke-width="2" stroke-linecap="round" stroke-linejoin="round"/>
</svg>
