<svg width="32" height="32" viewBox="0 0 32 32" fill="none" xmlns="http://www.w3.org/2000/svg">
<path d="M27 13.0029V9.00294C27 7.89838 26.1046 7.00294 25 7.00294H13C11.8954 7.00294 11 6.10751 11 5.00294C11 3.89837 10.1046 3.00293 9 3.00293H3C1.89543 3.00293 1 3.89836 1 5.00293V25.9128C1 27.6194 2.38352 29.0029 4.09017 29.0029M27 13.0029H9C7.89543 13.0029 7 13.8984 7 15.0029V26.3849C7 26.7913 6.90537 27.1922 6.72361 27.5557C6.28013 28.4427 5.3736 29.0029 4.38197 29.0029M27 13.0029H29C30.1046 13.0029 31 13.8984 31 15.0029V25.0029C31 27.2121 29.2091 29.0029 27 29.0029H24M4.09017 29.0029H4.38197M4.09017 29.0029H4M4.38197 29.0029H14M19 30.0029L18.9986 19.2229M25 24.0029L19 18.0029L13 24.0029" stroke="currentColor" stroke-width="2" stroke-linecap="round" stroke-linejoin="round"/>
</svg>
