<svg width="32" height="32" viewBox="0 0 32 32" fill="none" xmlns="http://www.w3.org/2000/svg">
<path d="M25.9686 31.0029V22.6496C29.7713 19.1566 31.0268 13.7099 29.1322 8.9257C27.2375 4.14147 22.5798 0.997148 17.3962 1.00294C7.79635 1.00294 5.49991 8.84027 2.07092 17.6429C1.9519 17.9506 1.99311 18.2965 2.18113 18.5682C2.36915 18.8399 2.67992 19.0024 3.01221 19.0029H5.79812V23.0029C5.79812 25.2121 7.60425 27.0029 9.83223 27.0029H11.8493V31.0029M12.5472 10.2703C12.2819 10.1337 12.0909 9.88964 12.025 9.60266C11.9592 9.31567 12.025 9.01476 12.205 8.77962C14.3082 6.05519 18.1078 5.22034 21.1931 6.80476C24.2784 8.38919 25.7472 11.9296 24.6676 15.1796C24.5747 15.4595 24.3609 15.6849 24.0833 15.7959C23.8057 15.9069 23.4923 15.8922 23.2267 15.7556L12.5472 10.2703Z" stroke="currentColor" stroke-width="2" stroke-linecap="round" stroke-linejoin="round"/>
</svg>
