<svg width="32" height="32" viewBox="0 0 32 32" fill="none" xmlns="http://www.w3.org/2000/svg">
<path d="M11.6711 11.8306C10.5272 11.8565 9.41347 12.2027 8.45668 12.8299C7.49989 13.4572 6.73846 14.3402 6.25903 15.3786L4.64353 19.0306C4.44152 19.5316 4.12931 19.9807 3.73004 20.3447C3.33077 20.7087 2.85467 20.9782 2.33701 21.1333C2.07426 21.1988 1.82975 21.323 1.62183 21.4964C1.4139 21.6698 1.24794 21.888 1.1364 22.1346C0.949613 22.6015 0.954853 23.1231 1.15098 23.5861C1.3471 24.049 1.71823 24.4158 2.1836 24.6066L14.1204 29.88C14.5748 30.0961 15.0963 30.1239 15.5711 29.9573C16.0459 29.7907 16.4355 29.4432 16.655 28.9906C16.763 28.7413 16.8127 28.4706 16.8004 28.1992C16.7882 27.9277 16.7143 27.6626 16.5843 27.424C16.3502 26.9372 16.2286 26.4041 16.2286 25.864C16.2286 25.3239 16.3502 24.7907 16.5843 24.304L18.0838 20.9146C18.7055 19.4738 18.7819 17.8561 18.2986 16.3632C17.8153 14.8702 16.8054 13.6038 15.4571 12.8M9.82221 27.984C9.89122 28.4497 9.83399 28.9254 9.65648 29.3615C9.47896 29.7976 9.18766 30.1781 8.81294 30.4634C8.43821 30.7487 7.99379 30.9283 7.52599 30.9835C7.05819 31.0387 6.58414 30.9674 6.15326 30.7772C5.72237 30.587 5.35043 30.2847 5.07619 29.9019C4.80196 29.5191 4.63548 29.0698 4.5941 28.6008C4.55272 28.1318 4.63796 27.6603 4.84093 27.2355C5.04391 26.8106 5.35718 26.448 5.74811 26.1853M20.8906 27.7334L29.7485 24.308C30.123 24.1636 30.444 23.9074 30.6678 23.5743C30.8916 23.2412 31.0075 22.8473 30.9996 22.4461C30.9918 22.045 30.8606 21.6559 30.6238 21.3319C30.3871 21.0078 30.0563 20.7644 29.6764 20.6347C29.1493 20.4245 28.6737 20.1031 28.2823 19.6923C27.8909 19.2816 27.5929 18.7912 27.4086 18.2547L25.9838 14.576C25.3829 13.005 24.2411 11.6997 22.7635 10.8947M26.3267 25.6307C26.6108 25.9456 26.8141 26.3247 26.919 26.7355C27.0239 27.1463 27.0274 27.5765 26.9291 27.9889C26.8308 28.4014 26.6336 28.7838 26.3546 29.1032C26.0757 29.4225 25.7232 29.6694 25.3276 29.8224C24.9319 29.9754 24.505 30.03 24.0836 29.9815C23.6622 29.933 23.2589 29.7828 22.9084 29.544C22.5579 29.3051 22.2708 28.9847 22.0717 28.6102C21.8727 28.2358 21.7676 27.8187 21.7657 27.3947M16.3122 12.3493C15.7724 12.7389 15.131 12.9631 14.4659 12.9947C13.8747 13.0353 13.2831 12.9195 12.751 12.6587C12.2188 12.3979 11.7649 12.0014 11.435 11.5093M11.435 11.5093C11.2208 11.168 11.081 10.7853 11.0249 10.3863C10.9687 9.98729 10.9975 9.58092 11.1093 9.19378C11.2212 8.80665 11.4135 8.44747 11.6737 8.13973C11.934 7.832 12.2563 7.58265 12.6197 7.408C13.3045 7.04306 14.0915 6.91651 14.8563 7.04834C15.6211 7.18017 16.3202 7.56287 16.8432 8.136C16.8952 8.196 17.1513 8.536 17.198 8.596M11.435 11.5093L5.98556 10V7L3.98453 5.05333V1H9.1245L10.9881 3L14.1898 3.012L15.1596 7.112M11.9073 7.91867L9.98762 6M21.9925 11.1067L25.9959 10V7L27.9969 5.05333V1H22.8569L20.9933 3L17.7916 3.012L16.631 7.91467M20.7865 8.59467L22.9943 6M15.9907 11C15.9907 11.7956 16.3069 12.5587 16.8698 13.1213C17.4327 13.6839 18.1962 14 18.9922 14C19.7883 14 20.5518 13.6839 21.1147 13.1213C21.6776 12.5587 21.9938 11.7956 21.9938 11C21.9938 10.2044 21.6776 9.44129 21.1147 8.87868C20.5518 8.31607 19.7883 8 18.9922 8C18.1962 8 17.4327 8.31607 16.8698 8.87868C16.3069 9.44129 15.9907 10.2044 15.9907 11Z" stroke="currentColor" stroke-width="2" stroke-linecap="round" stroke-linejoin="round"/>
</svg>
