<svg width="32" height="32" viewBox="0 0 32 32" fill="none" xmlns="http://www.w3.org/2000/svg">
<path d="M27 12.3362V4.33618C27 3.23161 26.1046 2.33618 25 2.33618H3C1.89543 2.33618 1 3.23161 1 4.33618V20.3362C1 21.4408 1.89543 22.3362 3 22.3362H13M1 8.33618H27M5 13.3323H13M5 17.3323H9M27.6667 21.0028H19.6667M27.6667 21.0028C28.7712 21.0028 29.6667 21.8983 29.6667 23.0028V27.6695C29.6667 28.7741 28.7712 29.6695 27.6667 29.6695H19.6667C18.5621 29.6695 17.6667 28.7741 17.6667 27.6695V23.0028C17.6667 21.8983 18.5621 21.0028 19.6667 21.0028M27.6667 21.0028V19.0028C27.6667 16.7937 25.8758 15.0028 23.6667 15.0028C21.4575 15.0028 19.6667 16.7937 19.6667 19.0028V21.0028M23.6667 24.2083C23.9428 24.2083 24.1667 24.4321 24.1667 24.7083C24.1667 24.9844 23.9428 25.2083 23.6667 25.2083M23.6667 24.2083C23.3905 24.2083 23.1667 24.4321 23.1667 24.7083C23.1667 24.9844 23.3905 25.2083 23.6667 25.2083M23.6667 24.2083V25.2083" stroke="currentColor" stroke-width="2" stroke-linecap="round" stroke-linejoin="round"/>
</svg>
