<svg width="32" height="32" viewBox="0 0 32 32" fill="none" xmlns="http://www.w3.org/2000/svg">
<path d="M18.2742 22.0029H4.23904C3.4049 22.0028 2.67782 21.3784 2.4754 20.4883L1.00146 14.0029M1.00146 14.0029H21.0015M1.00146 14.0029C1.00146 7.37552 6.37405 2.00293 13.0015 2.00293V14.0029M18.0015 24.0029L24.2763 6.6822C24.8376 5.0707 26.2687 4.003 27.8676 4.00293H30.0015M7.00146 28.0029H14.0015M4.00012 8.00293L12.0001 12.0029L8.00012 4.00293M5.60126 25.7352C6.57757 26.7115 6.57757 28.2944 5.60126 29.2707C4.62495 30.247 3.04204 30.247 2.06573 29.2707C1.08942 28.2944 1.08942 26.7115 2.06573 25.7352C3.04204 24.7589 4.62495 24.7589 5.60126 25.7352ZM18.9333 25.7352C19.9096 26.7115 19.9096 28.2944 18.9333 29.2707C17.957 30.247 16.3741 30.247 15.3978 29.2707C14.4214 28.2944 14.4214 26.7115 15.3978 25.7352C16.3741 24.7589 17.957 24.7589 18.9333 25.7352Z" stroke="currentColor" stroke-width="2" stroke-linecap="round" stroke-linejoin="round"/>
</svg>
