<svg width="32" height="32" viewBox="0 0 32 32" fill="none" xmlns="http://www.w3.org/2000/svg">
<path d="M30.9992 7.0083C31.5515 7.0083 31.9992 6.56059 31.9992 6.0083C31.9992 5.45602 31.5515 5.0083 30.9992 5.0083V7.0083ZM30.9999 26.9973C31.5522 26.9973 31.9999 26.5496 31.9999 25.9973C31.9999 25.4451 31.5522 24.9973 30.9999 24.9973V26.9973ZM5.00835 8.76102L6.00835 8.76102L6.00835 8.76102L5.00835 8.76102ZM5.00835 23.2446L6.00835 23.2446L6.00835 23.2446L5.00835 23.2446ZM2.37563 25.9973L2.37563 24.9973H2.37563V25.9973ZM0.999268 24.9973C0.446983 24.9973 -0.000732422 25.4451 -0.000732422 25.9973C-0.000732422 26.5496 0.446983 26.9973 0.999268 26.9973V24.9973ZM0.999269 5.0083C0.446985 5.0083 -0.000730564 5.45602 -0.000730611 6.0083C-0.000730659 6.56059 0.446985 7.0083 0.999269 7.0083L0.999269 5.0083ZM2.37563 6.0083L2.37563 7.0083L2.37563 6.0083ZM5.00835 16.3628L4.00835 16.3628L4.00835 16.3628L5.00835 16.3628ZM11.7502 7.0083H20.2483V5.0083H11.7502V7.0083ZM22.001 8.76102V23.2446H24.001V8.76102H22.001ZM20.2483 24.9973H11.7501V26.9973H20.2483V24.9973ZM9.99743 23.2446V8.76102H7.99743V23.2446H9.99743ZM11.7501 24.9973C10.7821 24.9973 9.99743 24.2126 9.99743 23.2446H7.99743C7.99743 25.3172 9.67758 26.9973 11.7501 26.9973V24.9973ZM22.001 23.2446C22.001 24.2126 21.2163 24.9973 20.2483 24.9973V26.9973C22.3209 26.9973 24.001 25.3172 24.001 23.2446H22.001ZM20.2483 7.0083C21.2163 7.0083 22.001 7.79302 22.001 8.76102H24.001C24.001 6.68845 22.3209 5.0083 20.2483 5.0083V7.0083ZM11.7502 5.0083C9.67758 5.0083 7.99743 6.68845 7.99743 8.76102H9.99743C9.99743 7.79302 10.7822 7.0083 11.7502 7.0083V5.0083ZM27.9999 23.2446V8.76102H25.9999V23.2446H27.9999ZM29.6228 7.0083H30.9992V5.0083H29.6228V7.0083ZM30.9999 24.9973H29.6228V26.9973H30.9999V24.9973ZM25.9999 23.2446C25.9999 25.2527 27.4879 26.9973 29.6228 26.9973V24.9973C28.7172 24.9973 27.9999 24.2771 27.9999 23.2446H25.9999ZM27.9999 8.76102C27.9999 7.72852 28.7172 7.0083 29.6228 7.0083V5.0083C27.4879 5.0083 25.9999 6.75296 25.9999 8.76102H27.9999ZM2.37563 24.9973H0.999268V26.9973H2.37563V24.9973ZM0.999269 7.0083L2.37563 7.0083L2.37563 5.0083L0.999269 5.0083L0.999269 7.0083ZM6.00835 8.76102C6.00835 6.74787 4.50581 5.0083 2.37563 5.0083L2.37563 7.0083C3.28603 7.0083 4.00835 7.7336 4.00835 8.76102L6.00835 8.76102ZM4.00835 23.2446C4.00835 24.272 3.28602 24.9973 2.37563 24.9973L2.37563 26.9973C4.50581 26.9973 6.00835 25.2578 6.00835 23.2446L4.00835 23.2446ZM4.00835 8.76102L4.00835 16.3628L6.00835 16.3628L6.00835 8.76102L4.00835 8.76102ZM4.00835 16.3628L4.00835 23.2446L6.00835 23.2446L6.00835 16.3628L4.00835 16.3628Z" fill="currentColor"/>
</svg>
