<svg width="32" height="32" viewBox="0 0 32 32" fill="none" xmlns="http://www.w3.org/2000/svg">
<path d="M6.70288 11.5029V11.5229M25.5001 20.4829V20.5029M3 6.00293H29C30.1046 6.00293 31 6.89836 31 8.00293V24.0029C31 25.1075 30.1046 26.0029 29 26.0029H3C1.89543 26.0029 1 25.1075 1 24.0029V8.00293C1 6.89836 1.89543 6.00293 3 6.00293ZM20 16.0029C20 18.212 18.2091 20.0029 16 20.0029C13.7908 20.0029 12 18.212 12 16.0029C12 13.7938 13.7908 12.0029 16 12.0029C18.2091 12.0029 20 13.7938 20 16.0029ZM7 11.5029C7 11.7791 6.77614 12.0029 6.5 12.0029C6.22386 12.0029 6 11.7791 6 11.5029C6 11.2268 6.22386 11.0029 6.5 11.0029C6.77614 11.0029 7 11.2268 7 11.5029ZM26.0001 20.5029C26.0001 20.7791 25.7763 21.0029 25.5001 21.0029C25.224 21.0029 25.0001 20.7791 25.0001 20.5029C25.0001 20.2268 25.224 20.0029 25.5001 20.0029C25.7763 20.0029 26.0001 20.2268 26.0001 20.5029Z" stroke="currentColor" stroke-width="2" stroke-linecap="round"/>
</svg>
