<svg width="32" height="32" viewBox="0 0 32 32" fill="none" xmlns="http://www.w3.org/2000/svg">
<path d="M6.20146 29.0029H3.00146C1.8969 29.0029 1.00146 28.1672 1.00146 27.1363V2.8696C1.00146 1.83866 1.8969 1.00293 3.00146 1.00293H17.1735C17.7042 1.00304 18.2131 1.20001 18.5881 1.55049L26.4161 8.85662C26.7911 9.20686 27.0017 9.68182 27.0015 10.177V15.0029M26.9948 11.0002H18.9948C17.8902 11.0002 16.9948 10.1048 16.9948 9.00024V1.00024M10.0015 30.0029V20.0029H11.0068C12.6637 20.0029 14.0068 21.3461 14.0068 23.0029C14.0068 24.6598 12.6637 26.0029 11.0068 26.0029H10.0068M26.0015 30.0029V22.0029C26.0015 20.8984 26.8969 20.0029 28.0015 20.0029H30.0015M26.0015 27.0029H29.0015M18.0015 30.0029C20.2106 30.0029 22.0015 28.2121 22.0015 26.0029V24.0029C22.0015 21.7938 20.2106 20.0029 18.0015 20.0029V30.0029Z" stroke="currentColor" stroke-width="2" stroke-linecap="round" stroke-linejoin="round"/>
</svg>
