<svg width="32" height="32" viewBox="0 0 32 32" fill="none" xmlns="http://www.w3.org/2000/svg">
<path fill-rule="evenodd" clip-rule="evenodd" d="M21.7569 1.59055C20.9763 2.3714 20.9763 3.63716 21.7569 4.418L27.5838 10.2449C28.3646 11.026 29.6308 11.0263 30.4119 10.2455C31.1931 9.46476 31.1934 8.19857 30.4126 7.41742L24.5844 1.59055C23.8035 0.809939 22.5378 0.809939 21.7569 1.59055Z" stroke="currentColor" stroke-width="2" stroke-linecap="round" stroke-linejoin="round"/>
<path fill-rule="evenodd" clip-rule="evenodd" d="M16.1007 1.59008C15.7254 1.96512 15.5145 2.47392 15.5145 3.00448C15.5145 3.53503 15.7254 4.04383 16.1007 4.41887L27.5851 15.9033C28.3674 16.6841 29.6345 16.6829 30.4152 15.9006C31.196 15.1184 31.1948 13.8513 30.4126 13.0705L18.9334 1.59008C18.5583 1.21358 18.0486 1.00195 17.5171 1.00195C16.9855 1.00195 16.4759 1.21358 16.1007 1.59008Z" stroke="currentColor" stroke-width="2" stroke-linecap="round" stroke-linejoin="round"/>
<path fill-rule="evenodd" clip-rule="evenodd" d="M1.58886 21.759C1.9639 21.3837 2.4727 21.1729 3.00325 21.1729C3.53381 21.1729 4.04261 21.3837 4.41765 21.759L10.2445 27.5859C11.0023 28.3705 10.9915 29.6177 10.2202 30.389C9.44884 31.1603 8.20167 31.1711 7.41707 30.4133L1.58886 24.5865C0.808247 23.8056 0.808247 22.5399 1.58886 21.759Z" stroke="currentColor" stroke-width="2" stroke-linecap="round" stroke-linejoin="round"/>
<path fill-rule="evenodd" clip-rule="evenodd" d="M1.5888 16.103C2.36965 15.3224 3.6354 15.3224 4.41625 16.103L15.9007 27.5874C16.6818 28.3697 16.681 29.6371 15.8987 30.4182C15.1164 31.1994 13.8491 31.1985 13.0679 30.4162L1.5888 18.9371C1.21189 18.5619 1 18.0519 1 17.5201C1 16.9882 1.21189 16.4782 1.5888 16.103Z" stroke="currentColor" stroke-width="2" stroke-linecap="round" stroke-linejoin="round"/>
<path fill-rule="evenodd" clip-rule="evenodd" d="M8.3903 20.0771L20.0742 8.39323L23.6097 11.9288L11.9258 23.6126L8.3903 20.0771Z" stroke="currentColor" stroke-width="2" stroke-linecap="round" stroke-linejoin="round"/>
</svg>
