<svg width="32" height="32" viewBox="0 0 32 32" fill="none" xmlns="http://www.w3.org/2000/svg">
<path d="M17.9999 15.6577L25.7952 23.4531C26.5283 24.1862 27.7169 24.1862 28.45 23.4531C29.1832 22.7199 29.1832 21.5312 28.45 20.798L20.653 13.001M15 18.001L23 10.001M17 4.00293L9 12.0029M7.56748 15.3167C6.80983 14.5576 6.81099 13.3281 7.57007 12.5704C8.32914 11.8128 9.55869 11.8139 10.3163 12.573L14.4325 16.6892C15.1902 17.4482 15.189 18.6778 14.4299 19.4354C13.6709 20.1931 12.4413 20.1919 11.6837 19.4329L7.56748 15.3167ZM7.56748 15.3167C7.56748 15.3167 7.56748 15.3167 7.56748 15.3167ZM2 29.0029H16M21.6857 9.43549C22.4449 10.1931 23.6746 10.1919 24.4324 9.4329C25.1902 8.67388 25.189 7.44442 24.4298 6.68682L20.313 2.57094C19.5548 1.81334 18.3259 1.81363 17.5681 2.57158C16.8104 3.32953 16.8107 4.55813 17.5688 5.31572L21.6857 9.43549ZM15 27.0029C15 25.8984 14.2325 25.0029 13.2857 25.0029H4.71429C3.76751 25.0029 3 25.8984 3 27.0029V29.0029H15V27.0029Z" stroke="currentColor" stroke-width="2" stroke-linecap="round" stroke-linejoin="round"/>
</svg>
