<svg width="32" height="32" viewBox="0 0 32 32" fill="none" xmlns="http://www.w3.org/2000/svg">
<path d="M11 5C11.1982 5.4438 12.6798 8 18.0973 8C19.0177 8 20.7672 7.72852 22 7.20105M3 30.5C3 23.3203 8.82313 17.5 16.0063 17.5C17.0366 17.5 18.0389 17.6197 19 17.846M16 16C19.866 16 23 12.866 23 9C23 5.13401 19.866 2 16 2C12.134 2 9 5.13401 9 9C9 12.866 12.134 16 16 16ZM23.6591 18.9734C23.8736 19.2116 24.179 19.3475 24.4995 19.3475C24.82 19.3475 25.1255 19.2116 25.34 18.9734L25.8868 18.3733C26.208 18.0178 26.718 17.9029 27.1605 18.0863C27.603 18.2697 27.8823 18.7117 27.8579 19.1902L27.8169 19.9996C27.8009 20.3189 27.9205 20.63 28.1464 20.8563C28.3722 21.0825 28.6832 21.2026 29.0025 21.187L29.8117 21.146C30.2898 21.1224 30.731 21.402 30.9139 21.8444C31.0968 22.2868 30.9819 22.7964 30.6267 23.1174L30.0244 23.6608C29.7866 23.8757 29.6509 24.1812 29.6509 24.5017C29.6509 24.8222 29.7866 25.1278 30.0244 25.3426L30.6267 25.886C30.9822 26.2072 31.0971 26.7173 30.9137 27.1599C30.7303 27.6025 30.2884 27.8818 29.81 27.8574L29.0007 27.8164C28.6808 27.7999 28.3688 27.9199 28.1423 28.1464C27.9157 28.373 27.7958 28.685 27.8123 29.005L27.8533 29.8144C27.8745 30.2903 27.5957 30.7286 27.1556 30.911C26.7156 31.0935 26.2085 30.9809 25.8868 30.6296L25.3429 30.0277C25.1282 29.7899 24.8228 29.6542 24.5024 29.6542C24.1821 29.6542 23.8767 29.7899 23.662 30.0277L23.1157 30.6296C22.7946 30.9826 22.2866 31.0964 21.8455 30.914C21.4045 30.7317 21.1251 30.2924 21.1469 29.8156L21.1885 29.0062C21.205 28.6862 21.0851 28.3742 20.8585 28.1476C20.632 27.921 20.3201 27.8011 20.0001 27.8176L19.1908 27.8586C18.7126 27.8836 18.2705 27.6048 18.0867 27.1626C17.9029 26.7204 18.0173 26.2103 18.3723 25.8889L18.9741 25.3455C19.2119 25.1306 19.3476 24.8251 19.3476 24.5046C19.3476 24.1841 19.2119 23.8786 18.9741 23.6637L18.3723 23.1174C18.0185 22.7964 17.9043 22.2878 18.0869 21.8463C18.2695 21.4048 18.7096 21.1255 19.1868 21.1483L19.996 21.1894C20.3166 21.2062 20.6293 21.0861 20.8562 20.859C21.083 20.6318 21.2028 20.319 21.1856 19.9984L21.1469 19.1885C21.1245 18.7114 21.4038 18.2716 21.8449 18.089C22.2861 17.9063 22.7944 18.02 23.1157 18.3733L23.6591 18.9734ZM24.5 26.5C25.6046 26.5 26.5 25.6046 26.5 24.5C26.5 23.3955 25.6046 22.5 24.5 22.5C23.3955 22.5 22.5 23.3955 22.5 24.5C22.5 25.6046 23.3955 26.5 24.5 26.5Z" stroke="currentColor" stroke-width="2" stroke-linecap="round" stroke-linejoin="round"/>
</svg>
