<svg width="32" height="32" viewBox="0 0 32 32" fill="none" xmlns="http://www.w3.org/2000/svg">
<path d="M8.40963 26.0497C8.96191 26.0497 9.40963 25.602 9.40963 25.0497C9.40963 24.4974 8.96191 24.0497 8.40963 24.0497V26.0497ZM30 19.4937C30 20.046 30.4477 20.4937 31 20.4937C31.5523 20.4937 32 20.046 32 19.4937H30ZM26.2336 20.6478C25.9568 20.1699 25.345 20.0068 24.8671 20.2835C24.3892 20.5603 24.2261 21.1721 24.5028 21.65L26.2336 20.6478ZM29.4167 28.1406L29.2281 29.1226C29.6127 29.1965 30.005 29.0391 30.2318 28.7199C30.4587 28.4007 30.4783 27.9784 30.2821 27.6395L29.4167 28.1406ZM26.4515 27.571L26.6402 26.5889L25.7592 26.4197L25.4957 27.2772L26.4515 27.571ZM25.6014 30.3369L24.736 30.838C24.9352 31.1821 25.3194 31.3755 25.7145 31.3305C26.1096 31.2855 26.4404 31.0108 26.5573 30.6307L25.6014 30.3369ZM22.4183 22.8441C22.1415 22.3662 21.5297 22.2031 21.0518 22.4799C20.5738 22.7566 20.4107 23.3684 20.6875 23.8463L22.4183 22.8441ZM17.9087 21.7177C18.1854 21.2397 18.0223 20.6279 17.5444 20.3512C17.0664 20.0744 16.4546 20.2375 16.1779 20.7155L17.9087 21.7177ZM12.948 28.2889L12.0826 27.7878C11.8859 28.1276 11.9062 28.5511 12.1346 28.8705C12.3629 29.1899 12.7571 29.3462 13.1422 29.2699L12.948 28.2889ZM15.9246 27.6996L16.8822 27.4113L16.6206 26.5424L15.7304 26.7187L15.9246 27.6996ZM16.7634 30.4853L15.8058 30.7736C15.9207 31.1553 16.2514 31.4323 16.6474 31.4785C17.0434 31.5247 17.429 31.3314 17.6287 30.9864L16.7634 30.4853ZM21.724 23.914C22.0007 23.436 21.8376 22.8242 21.3597 22.5475C20.8818 22.2707 20.27 22.4338 19.9932 22.9118L21.724 23.914ZM6 7.09277C5.44772 7.09277 5 7.54049 5 8.09277C5 8.64506 5.44772 9.09277 6 9.09277L6 7.09277ZM23.889 9.09277C24.4413 9.09277 24.889 8.64506 24.889 8.09277C24.889 7.54049 24.4413 7.09277 23.889 7.09277L23.889 9.09277ZM6 11.0928C5.44772 11.0928 5 11.5405 5 12.0928C5 12.6451 5.44772 13.0928 6 13.0928L6 11.0928ZM11.7933 13.0928C12.3456 13.0928 12.7933 12.6451 12.7933 12.0928C12.7933 11.5405 12.3456 11.0928 11.7933 11.0928L11.7933 13.0928ZM5.01175 4.00293H26.9882V2.00293H5.01175V4.00293ZM2 21.0497V7.00293H0V21.0497H2ZM8.40963 24.0497H5.01175V26.0497H8.40963V24.0497ZM30 7.00293V19.4937H32V7.00293H30ZM0 21.0497C0 23.8139 2.2466 26.0497 5.01175 26.0497V24.0497C3.34564 24.0497 2 22.7038 2 21.0497H0ZM26.9882 4.00293C28.6544 4.00293 30 5.34884 30 7.00293H32C32 4.23874 29.7534 2.00293 26.9882 2.00293V4.00293ZM5.01175 2.00293C2.24661 2.00293 0 4.23874 0 7.00293H2C2 5.34884 3.34564 4.00293 5.01175 4.00293V2.00293ZM24.7083 18.2278C24.7083 20.1608 23.1412 21.7278 21.2083 21.7278V23.7278C24.2458 23.7278 26.7083 21.2653 26.7083 18.2278H24.7083ZM21.2083 21.7278C19.2753 21.7278 17.7083 20.1608 17.7083 18.2278H15.7083C15.7083 21.2653 18.1707 23.7278 21.2083 23.7278V21.7278ZM17.7083 18.2278C17.7083 16.2948 19.2753 14.7278 21.2083 14.7278V12.7278C18.1707 12.7278 15.7083 15.1902 15.7083 18.2278H17.7083ZM21.2083 14.7278C23.1412 14.7278 24.7083 16.2948 24.7083 18.2278H26.7083C26.7083 15.1902 24.2458 12.7278 21.2083 12.7278V14.7278ZM24.5028 21.65L28.5513 28.6417L30.2821 27.6395L26.2336 20.6478L24.5028 21.65ZM29.6054 27.1586L26.6402 26.5889L26.2629 28.553L29.2281 29.1226L29.6054 27.1586ZM25.4957 27.2772L24.6455 30.0431L26.5573 30.6307L27.4074 27.8648L25.4957 27.2772ZM26.4668 29.8358L22.4183 22.8441L20.6875 23.8463L24.736 30.838L26.4668 29.8358ZM16.1779 20.7155L12.0826 27.7878L13.8134 28.79L17.9087 21.7177L16.1779 20.7155ZM13.1422 29.2699L16.1189 28.6806L15.7304 26.7187L12.7538 27.308L13.1422 29.2699ZM14.9671 27.9879L15.8058 30.7736L17.7209 30.197L16.8822 27.4113L14.9671 27.9879ZM17.6287 30.9864L21.724 23.914L19.9932 22.9118L15.898 29.9842L17.6287 30.9864ZM6 9.09277L23.889 9.09277L23.889 7.09277L6 7.09277L6 9.09277ZM6 13.0928L11.7933 13.0928L11.7933 11.0928L6 11.0928L6 13.0928Z" fill="currentColor"/>
</svg>
