<svg width="32" height="32" viewBox="0 0 32 32" fill="none" xmlns="http://www.w3.org/2000/svg">
<path d="M15.0001 7.00264H12.2894C11.874 7.00293 11.4716 7.14776 11.1513 7.41228C10.8309 7.67681 10.6126 8.04455 10.5338 8.45243C10.455 8.8603 10.5205 9.2829 10.7192 9.64773C10.9179 10.0126 11.2373 10.2969 11.6227 10.452L14.3747 11.552C14.761 11.7065 15.0813 11.9908 15.2807 12.3559C15.48 12.7211 15.5459 13.1443 15.467 13.5527C15.3881 13.9612 15.1693 14.3294 14.8483 14.594C14.5273 14.8586 14.1241 15.0031 13.7081 15.0026H11.0001M13 7.00264V6.00264M13 16.0026V15.0026M22.8019 12.9826C23.1562 11.2291 23.0337 9.41252 22.447 7.72243C21.8603 6.03234 20.8309 4.5306 19.4662 3.37378C18.1015 2.21696 16.4514 1.44743 14.6881 1.14542C12.9247 0.843418 11.1126 1.02 9.44077 1.65676C7.7689 2.29352 6.29846 3.36713 5.18277 4.76566C4.06709 6.16418 3.34701 7.83641 3.09763 9.60797C2.84825 11.3795 3.0787 13.1856 3.76494 14.8377C4.45118 16.4899 5.56809 17.9278 6.99921 19.0013C7.18412 19.1708 7.69648 19.5706 8.41156 19.9657M1 31H31M23 31V17.0059H28V31M13.5 31V21.0002H18.5V31M4 31V25H9V31" stroke="currentColor" stroke-width="2" stroke-linecap="round" stroke-linejoin="round"/>
</svg>
