<svg width="32" height="32" viewBox="0 0 32 32" fill="none" xmlns="http://www.w3.org/2000/svg">
<path d="M21 13.0029H22H21ZM13 17.0029H12C12 17.5552 12.4477 18.0029 13 18.0029V17.0029ZM13 9.00293V8.00293C12.4477 8.00293 12 8.45064 12 9.00293H13ZM17 9.00293V10.0029V9.00293ZM12 24.0029C12 24.5552 12.4477 25.0029 13 25.0029C13.5523 25.0029 14 24.5552 14 24.0029H12ZM14 16.0029C14 15.4506 13.5523 15.0029 13 15.0029C12.4477 15.0029 12 15.4506 12 16.0029H14ZM20 13.0029C20 14.6598 18.6569 16.0029 17 16.0029V18.0029C19.7614 18.0029 22 15.7644 22 13.0029L20 13.0029ZM17 16.0029H13V18.0029H17V16.0029ZM14 17.0029V9.00293H12V17.0029H14ZM13 10.0029H17V8.00293H13V10.0029ZM17 10.0029C18.6569 10.0029 20 11.3461 20 13.0029H22C22 10.2415 19.7614 8.00293 17 8.00293V10.0029ZM14 24.0029V16.0029H12V24.0029H14ZM9 4.00293H23V2.00293H9V4.00293ZM28 9.00293V23.0029H30V9.00293H28ZM23 28.0029H9V30.0029H23V28.0029ZM4 23.0029V9.00293H2V23.0029H4ZM9 28.0029C6.23858 28.0029 4 25.7644 4 23.0029H2C2 26.8689 5.13401 30.0029 9 30.0029V28.0029ZM28 23.0029C28 25.7644 25.7614 28.0029 23 28.0029V30.0029C26.866 30.0029 30 26.8689 30 23.0029H28ZM23 4.00293C25.7614 4.00293 28 6.24151 28 9.00293H30C30 5.13694 26.866 2.00293 23 2.00293V4.00293ZM9 2.00293C5.13401 2.00293 2 5.13694 2 9.00293H4C4 6.24151 6.23858 4.00293 9 4.00293V2.00293Z" fill="currentColor"/>
</svg>
