<svg width="32" height="32" viewBox="0 0 32 32" fill="none" xmlns="http://www.w3.org/2000/svg">
<path d="M22.875 9.12793H27M22.875 13.2529H27M22.875 17.3779H27M5 18.7529H16M5 22.8779H11.875M3 27.0029C1.89544 27.0029 1 26.1075 1 25.0029V7.00293C1 5.89837 1.89544 5.00293 3 5.00293H29C30.1046 5.00293 31 5.89837 31 7.00293V25.0029C31 26.1075 30.1046 27.0029 29 27.0029H3ZM5.91667 13.2529C5.41041 13.2529 5 13.085 5 12.8779V9.50293C5 9.29582 5.41041 9.12793 5.91667 9.12793H17.8333C18.3396 9.12793 18.75 9.29582 18.75 9.50293V12.8779C18.75 13.085 18.3396 13.2529 17.8333 13.2529H5.91667Z" stroke="currentColor" stroke-width="2" stroke-linecap="round" stroke-linejoin="round"/>
</svg>
