<svg width="32" height="32" viewBox="0 0 32 32" fill="none" xmlns="http://www.w3.org/2000/svg">
<path d="M16.3032 8.34256L24.294 8.34184M10.3153 11.6788V3.00465C10.3153 1.89913 11.2089 1.00293 12.3113 1.00293H24.1839C24.7129 1.00304 25.2202 1.21375 25.5944 1.58877L29.416 5.42139C29.7899 5.79664 30.0001 6.30542 30.0002 6.83594V21.0201C30.0002 22.1256 29.1065 23.0218 28.0042 23.0218M4.7941 18.785V19.4522M19.0668 25.9454V26.6126M20.6278 11.6776H16.3335M2.66414 30.0029H21.4222C22.1571 30.0029 22.7528 29.4055 22.7528 28.6684V17.0167C22.7528 16.2797 22.1571 15.6822 21.4222 15.6822H2.66414C1.92924 15.6822 1.3335 16.2797 1.3335 17.0167V28.6684C1.3335 29.4055 1.92924 30.0029 2.66414 30.0029ZM4.78449 18.785C4.98165 18.785 5.14148 18.9452 5.14148 19.143C5.14148 19.3407 4.98165 19.501 4.78449 19.501C4.58733 19.501 4.4275 19.3407 4.4275 19.143C4.4275 18.9452 4.58733 18.785 4.78449 18.785ZM19.0635 25.9454C19.2607 25.9454 19.4205 26.1057 19.4205 26.3034C19.4205 26.5012 19.2607 26.6614 19.0635 26.6614C18.8664 26.6614 18.7066 26.5012 18.7066 26.3034C18.7066 26.1057 18.8664 25.9454 19.0635 25.9454ZM12.0433 25.7067C13.6206 25.7067 14.8992 24.4243 14.8992 22.8425C14.8992 21.2607 13.6206 19.9784 12.0433 19.9784C10.466 19.9784 9.1874 21.2607 9.1874 22.8425C9.1874 24.4243 10.466 25.7067 12.0433 25.7067Z" stroke="currentColor" stroke-width="2" stroke-linecap="round" stroke-linejoin="round"/>
</svg>
