<svg width="32" height="32" viewBox="0 0 32 32" fill="none" xmlns="http://www.w3.org/2000/svg">
<path d="M11 23.0029H3C1.89543 23.0029 1 22.1075 1 21.0029V5.00293C1 3.89836 1.89543 3.00293 3 3.00293H21C22.1046 3.00293 23 3.89836 23 5.00293V11.0029M1 9.00293H23M7 5.00293V1.00293M17 5.00293V1.00293M31 19.3997C31 21.2845 27.6346 22.8124 23.4833 22.8124C19.3319 22.8124 15.9666 21.2845 15.9666 19.3997M31 19.3997C31 17.5149 27.6346 15.987 23.4833 15.987C19.3319 15.987 15.9666 17.5149 15.9666 19.3997M31 19.3997V27.3628C31 29.3734 27.635 31.003 23.4833 31.003C19.3316 31.003 15.9666 29.3734 15.9666 27.3628V19.3997M15.9666 24.1776C15.9666 25.6855 19.3316 26.9077 23.4833 26.9077C27.635 26.9077 31 25.6855 31 24.1776" stroke="currentColor" stroke-width="2" stroke-linecap="round" stroke-linejoin="round"/>
</svg>
