<svg width="32" height="32" viewBox="0 0 32 32" fill="none" xmlns="http://www.w3.org/2000/svg">
<path d="M16.0005 27.7505L4.92162 16.1956C2.92468 14.2002 2.4298 11.1503 3.69333 8.62592C4.63578 6.74155 6.42655 5.42504 8.50626 5.08762C10.586 4.7502 12.7011 5.43299 14.191 6.92272L16.0005 8.73107M16.0005 27.7505L27.0806 16.1921C29.0752 14.1969 29.5695 11.1493 28.3077 8.62592C27.3652 6.74155 25.5745 5.42504 23.4948 5.08762C21.415 4.7502 19.2999 5.43299 17.81 6.92272L16.0005 8.73107M16.0005 27.7505L18.3624 20.6603C18.4988 20.2512 18.3136 19.8041 17.9279 19.6111L13.3926 17.3475C13.0877 17.1944 12.9008 16.8768 12.915 16.5359C12.9292 16.195 13.1418 15.894 13.4585 15.7668L19.1065 13.5032C19.3775 13.3943 19.5756 13.1564 19.6336 12.8701C19.6915 12.5839 19.6016 12.2877 19.3942 12.0819L16.0005 8.73107" stroke="currentColor" stroke-width="2" stroke-linecap="round" stroke-linejoin="round"/>
</svg>
