<svg width="32" height="32" viewBox="0 0 32 32" fill="none" xmlns="http://www.w3.org/2000/svg">
<path d="M8 11.0029V17.0029M5.00009 14.0029H11.0001M23.4666 11.0029C23.7243 11.0029 23.9332 11.227 23.9332 11.5035M23.4666 11.0029C23.3427 11.0026 23.2239 11.0552 23.1363 11.1491C23.0487 11.2431 22.9997 11.3706 23 11.5035M23.4666 11.0029V12.004M23.9332 11.5035C23.9332 11.7799 23.7243 12.004 23.4666 12.004M23.9332 11.5035H23M23.4666 12.004C23.2089 12.004 23 11.7799 23 11.5035M23.4666 16.0029C23.7243 16.0029 23.9332 16.227 23.9332 16.5035M23.4666 16.0029C23.3427 16.0026 23.2239 16.0552 23.1363 16.1491C23.0487 16.2431 22.9997 16.3706 23 16.5035M23.4666 16.0029V17.004M23.9332 16.5035C23.9332 16.7799 23.7243 17.004 23.4666 17.004M23.9332 16.5035H23M23.4666 17.004C23.2089 17.004 23 16.7799 23 16.5035M20.4666 13.5029C20.7243 13.5029 20.9332 13.727 20.9332 14.0035M20.4666 13.5029C20.3427 13.5026 20.2239 13.5552 20.1363 13.6491C20.0487 13.7431 19.9997 13.8706 20 14.0035M20.4666 13.5029V14.504M20.9332 14.0035C20.9332 14.2799 20.7243 14.504 20.4666 14.504M20.9332 14.0035H20M20.4666 14.504C20.2089 14.504 20 14.2799 20 14.0035M26.4666 13.5029C26.7243 13.5029 26.9332 13.727 26.9332 14.0035M26.4666 13.5029C26.3427 13.5026 26.2239 13.5552 26.1363 13.6491C26.0487 13.7431 25.9997 13.8706 26 14.0035M26.4666 13.5029V14.504M26.9332 14.0035C26.9332 14.2799 26.7243 14.504 26.4666 14.504M26.9332 14.0035H26M26.4666 14.504C26.2089 14.504 26 14.2799 26 14.0035M31.0001 12.0029C31.0001 8.68922 28.3138 6.00293 25.0001 6.00293H7.00012C3.68641 6.00293 1.00012 8.68922 1.00012 12.0029V23.4989C0.951205 25.5007 2.24745 27.2878 4.16545 27.8629C6.17459 28.3923 8.27293 27.3974 9.13478 25.5069L12.0908 21.0029H19.9095L22.7828 25.3243C23.3594 26.6718 24.5628 27.6489 26.0001 27.9363C27.2404 28.1535 28.5133 27.8117 29.478 27.0026C30.4428 26.1934 31.0008 24.9994 31.0028 23.7403L31.0001 12.0029Z" stroke="currentColor" stroke-width="2" stroke-linecap="round" stroke-linejoin="round"/>
</svg>
