<svg width="32" height="32" viewBox="0 0 32 32" fill="none" xmlns="http://www.w3.org/2000/svg">
<path d="M17 1.00295L16.9986 2.00296L17.0019 2.00295L17 1.00295ZM9.89519 2.92648L10.4017 3.7887L10.4017 3.7887L9.89519 2.92648ZM4.76044 8.18536L3.88643 7.69945L3.88643 7.69945L4.76044 8.18536ZM3.00227 15.3248L2.00257 15.3492L2.00257 15.3493L3.00227 15.3248ZM5.10707 22.3696L6.01009 22.7992C6.1564 22.4917 6.13612 22.1308 5.95629 21.8416L5.10707 22.3696ZM1 31.003L0.0969754 30.5734C-0.084905 30.9557 -0.00630692 31.4111 0.293199 31.7104C0.592705 32.0096 1.0482 32.0878 1.43037 31.9056L1 31.003ZM9.62445 26.891L10.153 26.042C9.86341 25.8618 9.50196 25.8415 9.19408 25.9883L9.62445 26.891ZM15.7001 28.9412L15.794 27.9456L15.794 27.9456L15.7001 28.9412ZM22.0515 28.0628L21.691 27.1301L21.6909 27.1301L22.0515 28.0628ZM27.344 24.4405L28.0829 25.1144L28.0829 25.1143L27.344 24.4405ZM30.4657 18.8354L31.4276 19.1089L31.4276 19.1089L30.4657 18.8354ZM30.7608 12.4248L31.7437 12.2408L31.7437 12.2408L30.7608 12.4248ZM28.1672 6.55602L28.965 5.95303L28.9649 5.95299L28.1672 6.55602ZM23.2297 2.462L23.6746 1.56638L23.6745 1.56638L23.2297 2.462ZM16.5049 18.5029C15.9526 18.5029 15.5049 18.9507 15.5049 19.5029C15.5049 20.0552 15.9526 20.5029 16.5049 20.5029V18.5029ZM17.5049 20.5029C18.0572 20.5029 18.5049 20.0552 18.5049 19.5029C18.5049 18.9507 18.0572 18.5029 17.5049 18.5029V20.5029ZM16 15.0029C16 15.5552 16.4477 16.0029 17 16.0029C17.5523 16.0029 18 15.5552 18 15.0029H16ZM18 9.00295C18 8.45066 17.5523 8.00295 17 8.00295C16.4477 8.00295 16 8.45066 16 9.00295H18ZM17.0014 0.00295533C14.331 -0.00089832 11.6932 0.710336 9.38864 2.06427L10.4017 3.7887C12.3967 2.61668 14.6834 1.99961 16.9986 2.00295L17.0014 0.00295533ZM9.38865 2.06427C7.08493 3.41767 5.18517 5.36342 3.88643 7.69945L5.63445 8.67128C6.75984 6.64704 8.4059 4.96122 10.4017 3.7887L9.38865 2.06427ZM3.88643 7.69945C2.58769 10.0355 1.93726 12.6768 2.00257 15.3492L4.00197 15.3004C3.94538 12.9844 4.50905 10.6955 5.63445 8.67127L3.88643 7.69945ZM2.00257 15.3493C2.06788 18.0216 2.84655 20.6279 4.25784 22.8977L5.95629 21.8416C4.73337 19.8748 4.05857 17.6163 4.00197 15.3004L2.00257 15.3493ZM4.20404 21.94L0.0969754 30.5734L1.90302 31.4325L6.01009 22.7992L4.20404 21.94ZM1.43037 31.9056L10.0548 27.7936L9.19408 25.9883L0.56963 30.1003L1.43037 31.9056ZM9.09595 27.7399C11.0668 28.9668 13.2954 29.7189 15.6063 29.9368L15.794 27.9456C13.7918 27.7568 11.8607 27.1052 10.153 26.042L9.09595 27.7399ZM15.6063 29.9368C17.917 30.1547 20.2468 29.8325 22.412 28.9956L21.6909 27.1301C19.8148 27.8553 17.7961 28.1344 15.794 27.9456L15.6063 29.9368ZM22.412 28.9956C24.5771 28.1588 26.5183 26.8301 28.0829 25.1144L26.6051 23.7667C25.2491 25.2537 23.5669 26.405 21.691 27.1301L22.412 28.9956ZM28.0829 25.1143C29.6474 23.3986 30.7923 21.3428 31.4276 19.1089L29.5039 18.5618C28.9533 20.4981 27.9609 22.2798 26.6051 23.7668L28.0829 25.1143ZM31.4276 19.1089C32.0629 16.8748 32.171 14.5237 31.7437 12.2408L29.7779 12.6088C30.1482 14.5875 30.0545 16.6255 29.5039 18.5618L31.4276 19.1089ZM31.7437 12.2408C31.3163 9.95786 30.3651 7.80541 28.965 5.95303L27.3695 7.159C28.5829 8.76441 29.4074 10.63 29.7779 12.6088L31.7437 12.2408ZM28.9649 5.95299C27.5646 4.10061 25.7536 2.59895 23.6746 1.56638L22.7849 3.35762C24.5864 4.25237 26.1559 5.55367 27.3695 7.15905L28.9649 5.95299ZM23.6745 1.56638C21.5964 0.534269 19.3201 -0.00140067 16.9981 0.00295605L17.0019 2.00295C19.0119 1.99918 20.9825 2.46246 22.7849 3.35763L23.6745 1.56638ZM17 19.0029C17.2762 19.0029 17.5 19.2268 17.5 19.5029H15.5C15.5 20.3314 16.1716 21.0029 17 21.0029V19.0029ZM17.5 19.5029C17.5 19.7791 17.2762 20.0029 17 20.0029V18.0029C16.1716 18.0029 15.5 18.6745 15.5 19.5029H17.5ZM16.5049 20.5029H17.5049V18.5029H16.5049V20.5029ZM17 21.0029C17.8284 21.0029 18.5 20.3314 18.5 19.5029H16.5C16.5 19.2268 16.7238 19.0029 17 19.0029V21.0029ZM18.5 19.5029C18.5 18.6745 17.8284 18.0029 17 18.0029V20.0029C16.7238 20.0029 16.5 19.7791 16.5 19.5029H18.5ZM18 15.0029V9.00295H16V15.0029H18Z" fill="currentColor"/>
</svg>
