<svg width="32" height="32" viewBox="0 0 32 32" fill="none" xmlns="http://www.w3.org/2000/svg">
<path d="M7 15.002L15.0069 15.0013M7 19.0033L13.6736 19.0026M7 23.0046L12.3403 23.0039M10 8.00293V4.00293C10 2.89836 10.8954 2.00293 12 2.00293H23.8967C24.4267 2.00304 24.9351 2.21357 25.31 2.58826L29.1393 6.4176C29.514 6.79253 29.7245 7.30087 29.7247 7.83093V22.0029C29.7247 23.1075 28.8292 24.0029 27.7247 24.0029H22M21.6079 28.0029C21.6079 29.1075 20.7125 30.0029 19.6079 30.0029H4.27461C3.17004 30.0029 2 29.1075 2 28.0029V10.0029C2 8.89836 3.17004 8.00293 4.27461 8.00293H15.7799C16.31 8.00304 16.8183 8.21357 17.1933 8.58826L21.0226 12.4176C21.3973 12.7925 21.6078 13.3009 21.6079 13.8309V28.0029Z" stroke="currentColor" stroke-width="2" stroke-linecap="round" stroke-linejoin="round"/>
</svg>
