<svg width="32" height="32" viewBox="0 0 32 32" fill="none" xmlns="http://www.w3.org/2000/svg">
<path d="M22 6.2233V3.92914C21.9997 3.32719 21.7343 2.75991 21.2825 2.39552C20.8306 2.03112 20.2442 1.91145 19.697 2.07197C14.6703 3.59372 9.34224 3.59372 4.3155 2.07197C3.76672 1.90662 3.17656 2.02399 2.72158 2.38897C2.26661 2.75395 1.99958 3.32421 2.00039 3.92914V13.1341C1.97991 15.4005 2.76339 17.5923 4.1955 19.2749C4.40277 19.514 4.62337 19.7556 4.85488 19.9985M24 20.0029C24 22.2121 22.2091 24.0029 20 24.0029C17.7909 24.0029 16 22.2121 16 20.0029M13.7031 16.0029C13.7031 14.8984 14.5986 14.0029 15.7031 14.0029C16.8077 14.0029 17.7031 14.8984 17.7031 16.0029M23.0352 16.0029C23.0352 14.8984 23.9306 14.0029 25.0352 14.0029C26.1397 14.0029 27.0352 14.8984 27.0352 16.0029M12.3033 8.07286C11.7562 7.91613 11.1698 8.03298 10.7179 8.38876C10.2661 8.74455 10.0007 9.29843 10.0004 9.88617V18.8724C9.97991 21.0853 10.7634 23.2254 12.1955 24.8683C14.1713 27.1053 16.6312 28.8255 19.3734 29.8878C19.7776 30.0413 20.2212 30.0413 20.6254 29.8878C23.3684 28.8263 25.8288 27.106 27.8045 24.8683C29.2366 23.2254 30.0201 21.0853 29.9996 18.8724V9.88617C29.9999 9.29698 29.7337 8.74165 29.2803 8.38558C28.8268 8.0295 28.2386 7.91377 27.6906 8.07286C22.6619 9.55859 17.332 9.55859 12.3033 8.07286Z" stroke="currentColor" stroke-width="2" stroke-linecap="round" stroke-linejoin="round"/>
</svg>
