<svg width="32" height="32" viewBox="0 0 32 32" fill="none" xmlns="http://www.w3.org/2000/svg">
<path d="M11.0003 14.8741C11.0003 14.3216 10.5524 13.8738 10 13.8738C9.44755 13.8738 8.99971 14.3216 8.99971 14.8741H11.0003ZM8.99971 15.5407C8.99971 16.0932 9.44755 16.541 10 16.541C10.5524 16.541 11.0003 16.0932 11.0003 15.5407H8.99971ZM19.0003 14.8741C19.0003 14.3216 18.5524 13.8738 18 13.8738C17.4476 13.8738 16.9997 14.3216 16.9997 14.8741H19.0003ZM16.9997 15.5407C16.9997 16.0932 17.4476 16.541 18 16.541C18.5524 16.541 19.0003 16.0932 19.0003 15.5407H16.9997ZM24.6275 17.5016L25.3427 16.8023L25.0485 16.5013H24.6275V17.5016ZM26.5128 21.6708H27.5131V21.6598L27.5129 21.6489L26.5128 21.6708ZM1 21.6708L-2.72403e-05 21.6477L-0.000293016 21.6593V21.6708H1ZM2.95071 17.5016L2.95072 16.5013L2.53577 16.5013L2.24267 16.795L2.95071 17.5016ZM5.84009 17.5016H6.84038V16.5013L5.84009 16.5013L5.84009 17.5016ZM5.84009 20.169H4.83979V21.1693H5.84009V20.169ZM9.62119 19.2634L10.3304 19.9688L10.3323 19.9669L9.62119 19.2634ZM11.5553 17.9597L11.1701 17.0366L11.1701 17.0366L11.5553 17.9597ZM16.1295 17.9597L16.5148 17.0366L16.5148 17.0366L16.1295 17.9597ZM18.0637 19.2634L17.3525 19.9669L17.3545 19.9688L18.0637 19.2634ZM21.8448 20.169V21.1693H22.8451V20.169H21.8448ZM21.8448 17.5016V16.5013H20.8445V17.5016H21.8448ZM16.9398 22.4635C17.2081 21.9805 17.0341 21.3716 16.5512 21.1033C16.0683 20.835 15.4593 21.009 15.191 21.4919L16.9398 22.4635ZM12.4954 21.4919C12.2271 21.009 11.6181 20.835 11.1352 21.1033C10.6523 21.3716 10.4783 21.9805 10.7466 22.4635L12.4954 21.4919ZM22.84 11.9854L22.574 12.9497C22.8751 13.0328 23.1976 12.9704 23.4461 12.7813C23.6945 12.5921 23.8403 12.2977 23.8403 11.9854H22.84ZM22.8014 11.9748L22.5272 12.9368L22.5354 12.939L22.8014 11.9748ZM3.50104 11.9854H2.50074C2.50074 12.2995 2.64822 12.5953 2.89901 12.7843C3.1498 12.9733 3.47479 13.0335 3.77667 12.947L3.50104 11.9854ZM3.50104 7.98426L3.2254 7.0227C2.79639 7.14567 2.50074 7.53797 2.50074 7.98426H3.50104ZM22.8014 7.97359L22.5272 8.93562L22.5353 8.93787L22.8014 7.97359ZM22.84 7.98426H23.8403C23.8403 7.53426 23.5398 7.13966 23.106 7.01999L22.84 7.98426ZM26.272 14.1747L27.2723 14.1747L27.2723 14.1747L26.272 14.1747ZM28.606 16.5087L28.606 17.509L28.606 16.5087ZM30.9401 14.1747L29.9398 14.1747L29.9398 14.1747L30.9401 14.1747ZM28.606 11.8407L28.606 10.8404L28.606 11.8407ZM26.3369 13.035C26.6933 13.4571 27.3244 13.5104 27.7466 13.154C28.1687 12.7977 28.222 12.1666 27.8656 11.7444L26.3369 13.035ZM26.6443 10.2978C26.2879 9.87563 25.6568 9.82233 25.2347 10.1787C24.8125 10.5351 24.7592 11.1662 25.1156 11.5883L26.6443 10.2978ZM8.99971 14.8741V15.5407H11.0003V14.8741H8.99971ZM16.9997 14.8741V15.5407H19.0003V14.8741H16.9997ZM23.9122 18.2008C24.9363 19.2484 25.4832 20.3435 25.5128 21.6927L27.5129 21.6489C27.4698 19.6827 26.6369 18.1261 25.3427 16.8023L23.9122 18.2008ZM25.5125 21.6708C25.5125 23.581 24.3513 25.4324 22.2217 26.8519C20.0991 28.2668 17.1089 29.1743 13.7557 29.1743V31.1749C17.4486 31.1749 20.837 30.1792 23.3314 28.5165C25.8188 26.8585 27.5131 24.458 27.5131 21.6708H25.5125ZM13.7557 29.1743C10.4023 29.1743 7.41253 28.2677 5.29033 26.8533C3.1614 25.4345 2.00029 23.5832 2.00029 21.6708H-0.000293016C-0.000293016 24.4597 1.69343 26.8603 4.18086 28.5181C6.67502 30.1803 10.0631 31.1749 13.7557 31.1749V29.1743ZM2.00003 21.6938C2.03139 20.3336 2.59338 19.2757 3.65876 18.2081L2.24267 16.795C0.925239 18.1151 0.0463657 19.6356 -2.72403e-05 21.6477L2.00003 21.6938ZM4.83979 17.5016V20.169H6.84038V17.5016H4.83979ZM5.84009 21.1693C6.49154 21.1693 7.29928 21.1979 8.04194 21.0816C8.82813 20.9585 9.63855 20.6644 10.3304 19.9688L8.912 18.558C8.60354 18.8681 8.23228 19.0268 7.73243 19.1051C7.18904 19.1902 6.60637 19.1687 5.84009 19.1687V21.1693ZM10.3323 19.9669C10.7915 19.5027 11.3381 19.1343 11.9406 18.8828L11.1701 17.0366C10.3234 17.3899 9.55527 17.9077 8.91007 18.5599L10.3323 19.9669ZM11.9406 18.8828C12.5431 18.6313 13.1895 18.5018 13.8424 18.5018V16.5013C12.925 16.5013 12.0167 16.6832 11.1701 17.0366L11.9406 18.8828ZM13.8424 18.5018C14.4953 18.5018 15.1417 18.6313 15.7442 18.8828L16.5148 17.0366C15.6682 16.6832 14.7599 16.5013 13.8424 16.5013V18.5018ZM15.7442 18.8828C16.3467 19.1343 16.8934 19.5028 17.3525 19.9669L18.7748 18.5599C18.1296 17.9077 17.3614 17.3899 16.5148 17.0366L15.7442 18.8828ZM17.3545 19.9688C18.0466 20.6647 18.8561 20.959 19.6425 21.0821C20.3847 21.1982 21.1926 21.1693 21.8448 21.1693V19.1687C21.0765 19.1687 20.4947 19.1905 19.9518 19.1056C19.4532 19.0275 19.0823 18.8691 18.7729 18.558L17.3545 19.9688ZM22.8451 20.169V17.5016H20.8445V20.169H22.8451ZM15.191 21.4919C14.5845 22.5836 13.1019 22.5837 12.4954 21.4919L10.7466 22.4635C12.1153 24.9272 15.5711 24.9273 16.9398 22.4635L15.191 21.4919ZM23.106 11.0212L23.0673 11.0105L22.5354 12.939L22.574 12.9497L23.106 11.0212ZM23.0755 11.0128C20.658 10.3238 16.8627 9.99969 13.15 10.0015C9.43737 10.0033 5.64227 10.3311 3.2254 11.0239L3.77667 12.947C5.92257 12.3319 9.49524 12.0039 13.1509 12.0021C16.8065 12.0003 20.38 12.3248 22.5272 12.9368L23.0755 11.0128ZM4.50133 11.9854V7.98426H2.50074V11.9854H4.50133ZM3.77667 8.94583C5.92257 8.33072 9.49524 8.00269 13.1509 8.00091C16.8065 7.99913 20.38 8.32364 22.5272 8.93558L23.0755 7.01161C20.658 6.32262 16.8627 5.99852 13.15 6.00033C9.43737 6.00213 5.64227 6.32991 3.2254 7.0227L3.77667 8.94583ZM22.5353 8.93787L22.574 8.94854L23.106 7.01999L23.0674 7.00932L22.5353 8.93787ZM21.8397 7.98426V11.9854H23.8403V7.98426H21.8397ZM25.2717 14.1747C25.2717 14.6126 25.358 15.0462 25.5255 15.4507L27.3738 14.6851C27.3068 14.5233 27.2723 14.3499 27.2723 14.1747L25.2717 14.1747ZM25.5255 15.4507C25.6931 15.8552 25.9387 16.2228 26.2483 16.5324L27.663 15.1178C27.5391 14.9939 27.4409 14.8469 27.3738 14.6851L25.5255 15.4507ZM26.2483 16.5324C26.558 16.842 26.9255 17.0876 27.3301 17.2552L28.0957 15.4069C27.9338 15.3399 27.7868 15.2416 27.663 15.1178L26.2483 16.5324ZM27.3301 17.2552C27.7346 17.4228 28.1682 17.509 28.606 17.509L28.606 15.5084C28.4309 15.5084 28.2575 15.4739 28.0957 15.4069L27.3301 17.2552ZM28.606 17.509C29.0439 17.509 29.4775 17.4228 29.882 17.2552L29.1164 15.4069C28.9546 15.4739 28.7812 15.5084 28.606 15.5084L28.606 17.509ZM29.882 17.2552C30.2866 17.0876 30.6541 16.842 30.9638 16.5324L29.5491 15.1178C29.4253 15.2416 29.2783 15.3399 29.1164 15.4069L29.882 17.2552ZM30.9638 16.5324C31.2734 16.2228 31.519 15.8552 31.6865 15.4507L29.8382 14.6851C29.7712 14.8469 29.673 14.9939 29.5491 15.1178L30.9638 16.5324ZM31.6865 15.4507C31.8541 15.0462 31.9404 14.6126 31.9404 14.1747L29.9398 14.1747C29.9398 14.3499 29.9053 14.5233 29.8382 14.6851L31.6865 15.4507ZM31.9404 14.1747C31.9404 13.7368 31.8541 13.3033 31.6865 12.8987L29.8382 13.6643C29.9053 13.8261 29.9398 13.9996 29.9398 14.1747L31.9404 14.1747ZM31.6865 12.8987C31.519 12.4942 31.2734 12.1266 30.9638 11.817L29.5491 13.2316C29.673 13.3555 29.7712 13.5025 29.8382 13.6643L31.6865 12.8987ZM30.9638 11.817C30.6541 11.5074 30.2866 11.2618 29.882 11.0942L29.1164 12.9425C29.2783 13.0095 29.4253 13.1078 29.5491 13.2316L30.9638 11.817ZM29.882 11.0942C29.4775 10.9266 29.0439 10.8404 28.606 10.8404L28.606 12.841C28.7812 12.841 28.9546 12.8755 29.1164 12.9425L29.882 11.0942ZM28.606 10.8404C28.1682 10.8404 27.7346 10.9266 27.3301 11.0942L28.0957 12.9425C28.2575 12.8755 28.4309 12.841 28.606 12.841L28.606 10.8404ZM27.3301 11.0942C26.9255 11.2618 26.558 11.5074 26.2483 11.817L27.663 13.2316C27.7868 13.1078 27.9338 13.0095 28.0957 12.9425L27.3301 11.0942ZM26.2483 11.817C25.9387 12.1266 25.6931 12.4942 25.5255 12.8987L27.3738 13.6643C27.4409 13.5025 27.5391 13.3555 27.663 13.2316L26.2483 11.817ZM25.5255 12.8987C25.358 13.3033 25.2717 13.7368 25.2717 14.1747L27.2723 14.1747C27.2723 13.9996 27.3068 13.8261 27.3738 13.6643L25.5255 12.8987ZM27.8656 11.7444L26.6443 10.2978L25.1156 11.5883L26.3369 13.035L27.8656 11.7444ZM10.0722 2.49754H18.4973V0.496953H10.0722V2.49754ZM4.50133 11.4517V8.06836H2.50074V11.4517H4.50133ZM18.4973 2.49754C24.1792 2.49754 28.7852 7.10358 28.7852 12.7854H30.7858C30.7858 5.99869 25.2841 0.496953 18.4973 0.496953V2.49754ZM10.0722 0.496953C5.89058 0.496953 2.50074 3.88679 2.50074 8.06836H4.50133C4.50133 4.99168 6.99547 2.49754 10.0722 2.49754V0.496953ZM2.95071 18.5019L5.84008 18.5019L5.84009 16.5013L2.95072 16.5013L2.95071 18.5019ZM21.8448 18.5019H24.6275V16.5013H21.8448V18.5019Z" fill="currentColor"/>
</svg>
