<svg width="32" height="32" viewBox="0 0 32 32" fill="none" xmlns="http://www.w3.org/2000/svg">
<path d="M3 5.00244C3 3.89787 3.89543 3.00244 5 3.00244H11.8C12.9046 3.00244 13.8 3.89787 13.8 5.00244V12.0024C13.8 13.107 12.9046 14.0024 11.8 14.0024H5C3.89543 14.0024 3 13.107 3 12.0024V5.00244Z" stroke="currentColor" stroke-width="2" stroke-linejoin="round"/>
<path d="M18.2 5.00244C18.2 3.89787 19.0954 3.00244 20.2 3.00244H26.9999C28.1045 3.00244 29 3.89787 29 5.00244V12.0024C29 13.107 28.1045 14.0024 27 14.0024H20.2C19.0954 14.0024 18.2 13.107 18.2 12.0024V5.00244Z" stroke="currentColor" stroke-width="2" stroke-linejoin="round"/>
<path d="M3 20.0024C3 18.8979 3.89543 18.0024 5 18.0024H11.8C12.9046 18.0024 13.8 18.8979 13.8 20.0024V27.0024C13.8 28.107 12.9046 29.0024 11.8 29.0024H5C3.89543 29.0024 3 28.107 3 27.0024V20.0024Z" stroke="currentColor" stroke-width="2" stroke-linejoin="round"/>
<path d="M18.2 20.0024C18.2 18.8979 19.0954 18.0024 20.2 18.0024H27C28.1046 18.0024 29 18.8979 29 20.0024V27.0024C29 28.107 28.1046 29.0024 27 29.0024H20.2C19.0954 29.0024 18.2 28.107 18.2 27.0024V20.0024Z" stroke="currentColor" stroke-width="2" stroke-linejoin="round"/>
</svg>
