<svg width="32" height="32" viewBox="0 0 32 32" fill="none" xmlns="http://www.w3.org/2000/svg">
<path d="M26.2643 24.4012V26.2678C26.2643 27.2986 25.4286 28.1343 24.3978 28.1343H18.7981M18.7981 5.7362H24.3978C25.4286 5.7362 26.2643 6.57188 26.2643 7.60275V9.46929M26.2645 13.1999L29.9976 16.933H19.7316M26.2675 20.6668L30.0006 16.9337M10.8657 15.5357C10.6765 15.5357 10.5061 15.6499 10.4341 15.8249C10.3622 15.9999 10.403 16.201 10.5375 16.3341C10.672 16.4671 10.8735 16.5058 11.0477 16.432C11.2219 16.3582 11.3344 16.1865 11.3323 15.9974C11.3327 15.8735 11.2836 15.7546 11.196 15.667C11.1084 15.5794 10.9896 15.5304 10.8657 15.5307M14.0006 29.9914L2.80137 28.3912C2.34178 28.3256 2.00029 27.9321 2 27.4679V5.70022C1.99964 5.25979 2.30723 4.87906 2.73791 4.78686L13.9372 2.02313C14.2129 1.96411 14.5005 2.03288 14.7196 2.21025C14.9388 2.38761 15.066 2.65455 15.0658 2.93649V29.0681C15.0656 29.3386 14.9482 29.5956 14.7438 29.7727C14.5395 29.9499 14.2684 30.0297 14.0006 29.9914Z" stroke="currentColor" stroke-width="2" stroke-linecap="round" stroke-linejoin="round"/>
</svg>
