<svg width="32" height="32" viewBox="0 0 32 32" fill="none" xmlns="http://www.w3.org/2000/svg">
<path d="M11 5.00293C12.8786 6.77147 14.4425 8.00293 17.2358 8.00293C19.1524 8.00293 20.6782 7.55849 21.9962 6.94738M4 29.5029C4 22.5994 9.61768 17.0029 16.5 17.0029C17.4518 17.0029 18.3402 17.11 19.2308 17.3127C20.2018 17.5337 21.1298 17.8685 22 18.3023M19 25.0029H31M24.9998 19.0029V31.0029M16.0003 16.0029C19.8663 16.0029 23.0003 12.8689 23.0003 9.00293C23.0003 5.13694 19.8663 2.00293 16.0003 2.00293C12.1343 2.00293 9.00033 5.13694 9.00033 9.00293C9.00033 12.8689 12.1343 16.0029 16.0003 16.0029Z" stroke="currentColor" stroke-width="2" stroke-linecap="round" stroke-linejoin="round"/>
</svg>
