<svg width="32" height="32" viewBox="0 0 32 32" fill="none" xmlns="http://www.w3.org/2000/svg">
<path d="M4 7.00262C5.44701 5.15111 7.2788 3.56359 9.35982 2.54163C11.4408 1.51967 13.6955 0.993841 16 1.00305C18.3045 1.01226 20.5998 1.55627 22.6731 2.59483C24.7464 3.63338 26.5669 5.13991 28 7.00293M4 21.0029V11.0029L8 21.0029V11.0029M16 21.0029H14C13.4696 21.0029 12.9609 20.7922 12.5858 20.4171C12.2107 20.0421 12 19.5334 12 19.0029V13.0029C12 12.4725 12.2107 11.9638 12.5858 11.5887C12.9609 11.2136 13.4696 11.0029 14 11.0029H16M12 17.0029H16M20 11.0029V13.6923C20.0002 15.2187 20.2916 16.7311 20.8587 18.1483L22 21.0029L24 14.0029L26 21.0029L27.1427 18.1483C27.7092 16.731 28.0002 15.2186 28 13.6923V11.0029M4 25.0029C5.39509 26.863 7.205 28.3736 9.28646 29.415C11.3679 30.4565 13.6715 31.0002 16 31.0032C18.3285 31.0061 20.6181 30.4683 22.7022 29.4322C24.7864 28.396 26.6001 26.8595 28 25.0029" stroke="currentColor" stroke-width="2" stroke-linecap="round" stroke-linejoin="round"/>
</svg>
