<svg width="32" height="32" viewBox="0 0 32 32" fill="none" xmlns="http://www.w3.org/2000/svg">
<path d="M15.9999 25.2074C17.5543 22.0745 20.7499 20.0931 24.2472 20.0938M9.86362 13.1358C9.59815 13.1358 9.38294 13.351 9.38294 13.6165M9.86362 13.1358C10.1291 13.1358 10.3443 13.351 10.3443 13.6165M9.86362 13.1358V14.0972M9.38294 13.6165C9.38294 13.882 9.59815 14.0972 9.86362 14.0972M9.38294 13.6165H10.3443M9.86362 14.0972C10.1291 14.0972 10.3443 13.882 10.3443 13.6165M22.1365 13.1358C21.871 13.1358 21.6558 13.351 21.6558 13.6165M22.1365 13.1358C22.4019 13.1358 22.6172 13.351 22.6172 13.6165M22.1365 13.1358V14.0972M21.6558 13.6165C21.6558 13.882 21.871 14.0972 22.1365 14.0972M21.6558 13.6165H22.6172M22.1365 14.0972C22.4019 14.0972 22.6172 13.882 22.6172 13.6165M26.6066 5.39633C32.4645 11.2542 32.4645 20.7517 26.6066 26.6095C20.7487 32.4674 11.2513 32.4674 5.3934 26.6095C-0.464467 20.7517 -0.464467 11.2542 5.3934 5.39633C11.2513 -0.461537 20.7487 -0.461537 26.6066 5.39633Z" stroke="currentColor" stroke-width="2" stroke-linecap="round" stroke-linejoin="round"/>
</svg>
