<svg width="32" height="32" viewBox="0 0 32 32" fill="none" xmlns="http://www.w3.org/2000/svg">
<path fill-rule="evenodd" clip-rule="evenodd" d="M13.6253 3.17204C14.1038 3.70332 14.7852 4.00664 15.5002 4.00664C16.2152 4.00664 16.8966 3.70332 17.3751 3.17204L18.5949 1.83337C19.3113 1.04042 20.4491 0.784051 21.4362 1.19316C22.4234 1.60227 23.0464 2.58834 22.992 3.65567L22.9005 5.4612C22.8647 6.17344 23.1316 6.86762 23.6355 7.37226C24.1393 7.8769 24.833 8.14494 25.5452 8.11016L27.3504 8.0186C28.4169 7.96601 29.4012 8.58973 29.8092 9.57659C30.2172 10.5635 29.9607 11.7003 29.1686 12.4163L27.825 13.6286C27.2944 14.1079 26.9917 14.7894 26.9917 15.5044C26.9917 16.2194 27.2944 16.901 27.825 17.3803L29.1686 18.5925C29.9614 19.309 30.2177 20.4469 29.8087 21.4343C29.3997 22.4216 28.4137 23.0446 27.3466 22.9903L25.5413 22.8987C24.8276 22.862 24.1317 23.1296 23.6263 23.635C23.1209 24.1404 22.8534 24.8364 22.8902 25.5503L22.9817 27.3558C23.029 28.4175 22.4069 29.3953 21.4253 29.8022C20.4437 30.2091 19.3124 29.9581 18.5949 29.1742L17.3815 27.8317C16.9026 27.3012 16.2213 26.9984 15.5066 26.9984C14.792 26.9984 14.1107 27.3012 13.6318 27.8317L12.4132 29.1742C11.6968 29.9618 10.5635 30.2157 9.57966 29.8089C8.59579 29.4021 7.97253 28.422 8.02128 27.3584L8.11412 25.5529C8.15083 24.839 7.88333 24.143 7.37796 23.6376C6.87259 23.1321 6.17672 22.8646 5.46297 22.9013L3.65771 22.9929C2.59097 23.0486 1.60463 22.4268 1.19467 21.4403C0.784713 20.4537 1.03986 19.3159 1.83182 18.599L3.17416 17.3867C3.70467 16.9074 4.00743 16.2259 4.00743 15.5109C4.00743 14.7959 3.70467 14.1143 3.17416 13.6351L1.83182 12.4163C1.04252 11.7003 0.787747 10.5656 1.19511 9.58076C1.60247 8.59589 2.58424 7.97287 3.64868 8.02376L5.45394 8.11532C6.16907 8.15293 6.86653 7.88503 7.37266 7.37833C7.87879 6.87164 8.14596 6.17382 8.10767 5.45862L8.02128 3.6518C7.97136 2.58766 8.59421 1.60655 9.57836 1.19907C10.5625 0.791594 11.6965 1.04532 12.4132 1.83337L13.6253 3.17204Z" stroke="currentColor" stroke-width="2" stroke-linecap="round" stroke-linejoin="round"/>
<path fill-rule="evenodd" clip-rule="evenodd" d="M15.5012 21.0006C18.5388 21.0006 21.0012 18.5382 21.0012 15.5006C21.0012 12.463 18.5388 10.0006 15.5012 10.0006C12.4637 10.0006 10.0012 12.463 10.0012 15.5006C10.0012 18.5382 12.4637 21.0006 15.5012 21.0006Z" stroke="currentColor" stroke-width="2" stroke-linecap="round" stroke-linejoin="round"/>
</svg>
