<svg width="32" height="32" viewBox="0 0 32 32" fill="none" xmlns="http://www.w3.org/2000/svg">
<path d="M11 15.0029L21 25.0029M11 25.0029L21 15.0029M20.6667 2.00293C18.6048 2.00293 16.9333 3.6744 16.9333 5.73626L16.9333 9.00979H5.73333C3.67147 9.00979 2 10.6813 2 12.7431V26.2696C2 28.3315 3.67147 30.0029 5.73333 30.0029H26.2667C28.3285 30.0029 30 28.3315 30 26.2696V5.73626C30 3.6744 28.3285 2.00293 26.2667 2.00293H20.6667ZM26.0015 8.0076C26.0015 6.90146 25.2546 6.00476 24.3333 6.00476H22.6652C21.7439 6.00476 20.9971 6.90146 20.9971 8.0076C20.9971 9.11374 21.7439 10.0104 22.6652 10.0104H24.3333C25.2546 10.0104 26.0015 9.11374 26.0015 8.0076ZM7.16667 5.00293H11.8333C12.4777 5.00293 13 5.59988 13 6.33626V9.00293H6V6.33626C6 5.59988 6.52233 5.00293 7.16667 5.00293Z" stroke="currentColor" stroke-width="2" stroke-linecap="round" stroke-linejoin="round"/>
</svg>
