<svg width="32" height="32" viewBox="0 0 32 32" fill="none" xmlns="http://www.w3.org/2000/svg">
<path d="M16 30.0016L15.9975 11.2264M22 17.0016L16 11.0016L10 17.0016M11.4142 24.0016H8.66667C7.69421 24.0016 6.76158 23.6307 6.07394 22.9706C5.38631 22.3105 5 21.4152 5 20.4816L5 5.52159C5 4.58803 5.38631 3.6927 6.07394 3.03257C6.76157 2.37244 7.69421 2.00159 8.66667 2.00159L23.3333 2.00159C24.3058 2.00159 25.2384 2.37244 25.9261 3.03257C26.6137 3.6927 27 4.58802 27 5.52159L27 20.4816C27 21.4151 26.6137 22.3105 25.9261 22.9706C25.2384 23.6307 24.3058 24.0016 23.3333 24.0016H20.5833" stroke="currentColor" stroke-width="2" stroke-linecap="round" stroke-linejoin="round"/>
</svg>
