<svg width="32" height="32" viewBox="0 0 32 32" fill="none" xmlns="http://www.w3.org/2000/svg">
<path d="M3 5V2.92267C3 2.41274 3.20257 1.92371 3.56314 1.56314C3.92371 1.20257 4.41274 1 4.92267 1H7M3 27V29.0773C3 29.5873 3.20257 30.0763 3.56314 30.4369C3.92371 30.7974 4.41274 31 4.92267 31H7M29 27V29.0773C29 29.5873 28.7974 30.0763 28.4369 30.4369C28.0763 30.7974 27.5872 31 27.0773 31H25M18 31H21M11 31H14M18 1H21M11 1H14M3 13V10M3 22V19M29 13V10M29 22V19M25 4L27 6M9 11H23M9 17H23M9 23H17" stroke="currentColor" stroke-width="2" stroke-linecap="round" stroke-linejoin="round"/>
</svg>
