<svg width="32" height="32" viewBox="0 0 32 32" fill="none" xmlns="http://www.w3.org/2000/svg">
<path d="M23.7506 28.0029L24.0012 30.0029H28.0012L29.0012 22.0029H31.0012V19.0029C31.0012 16.2415 28.7627 14.0029 26.0012 14.0029C24.9194 14.0029 23.8667 14.3538 23.0012 15.0029M8.25189 28.0029L8.00122 30.0029H4.00122L3.00122 22.0029H1.00122V19.0029C1.00122 16.2415 3.23979 14.0029 6.00122 14.0029C7.08307 14.0029 8.13574 14.3538 9.00122 15.0029M27.1225 5.88161C28.2941 7.05318 28.2941 8.95268 27.1225 10.1243C25.951 11.2958 24.0515 11.2958 22.8799 10.1243C21.7083 8.95268 21.7083 7.05318 22.8799 5.88161C24.0515 4.71004 25.951 4.71004 27.1225 5.88161ZM8.12254 5.88161C9.29411 7.05318 9.29411 8.95268 8.12254 10.1243C6.95097 11.2958 5.05147 11.2958 3.8799 10.1243C2.70833 8.95268 2.70833 7.05318 3.8799 5.88161C5.05147 4.71004 6.95097 4.71004 8.12254 5.88161ZM18.1225 8.88161C19.2941 10.0532 19.2941 11.9527 18.1225 13.1242C16.951 14.2958 15.0515 14.2958 13.8799 13.1242C12.7083 11.9527 12.7083 10.0532 13.8799 8.88161C15.0515 7.71004 16.951 7.71004 18.1225 8.88161ZM16 17.0029C13.2386 17.0029 11 19.2415 11 22.0029V23.0029H13L14 29.0029H18L19 23.0029H21V22.0029C21 19.2415 18.7614 17.0029 16 17.0029Z" stroke="currentColor" stroke-width="2" stroke-linecap="round" stroke-linejoin="round"/>
</svg>
