<svg width="32" height="32" viewBox="0 0 32 32" fill="none" xmlns="http://www.w3.org/2000/svg">
<path d="M12.3333 23.0028C12.8855 23.0028 13.3333 23.4505 13.3333 24.0028C13.3333 24.5551 12.8855 25.0028 12.3333 25.0028C11.781 25.0028 11.3333 24.5551 11.3333 24.0028C11.3333 23.4505 11.781 23.0028 12.3333 23.0028Z" stroke="currentColor" stroke-width="2"/>
<path d="M12.3333 15.0028C12.8855 15.0028 13.3333 15.4505 13.3333 16.0028C13.3333 16.5551 12.8855 17.0028 12.3333 17.0028C11.781 17.0028 11.3333 16.5551 11.3333 16.0028C11.3333 15.4505 11.781 15.0028 12.3333 15.0028Z" stroke="currentColor" stroke-width="2"/>
<path d="M12.3333 7.00281C12.8855 7.00281 13.3333 7.45052 13.3333 8.00281C13.3333 8.55509 12.8855 9.00281 12.3333 9.00281C11.781 9.00281 11.3333 8.55509 11.3333 8.00281C11.3333 7.45052 11.781 7.00281 12.3333 7.00281Z" stroke="currentColor" stroke-width="2"/>
<path d="M19.6666 23.0028C20.2189 23.0028 20.6666 23.4505 20.6666 24.0028C20.6666 24.5551 20.2189 25.0028 19.6666 25.0028C19.1143 25.0028 18.6666 24.5551 18.6666 24.0028C18.6666 23.4505 19.1143 23.0028 19.6666 23.0028Z" stroke="currentColor" stroke-width="2"/>
<path d="M19.6666 15.0028C20.2189 15.0028 20.6666 15.4505 20.6666 16.0028C20.6666 16.5551 20.2189 17.0028 19.6666 17.0028C19.1143 17.0028 18.6666 16.5551 18.6666 16.0028C18.6666 15.4505 19.1143 15.0028 19.6666 15.0028Z" stroke="currentColor" stroke-width="2"/>
<path d="M19.6666 7.00281C20.2189 7.00281 20.6666 7.45052 20.6666 8.00281C20.6666 8.55509 20.2189 9.00281 19.6666 9.00281C19.1143 9.00281 18.6666 8.55509 18.6666 8.00281C18.6666 7.45052 19.1143 7.00281 19.6666 7.00281Z" stroke="currentColor" stroke-width="2"/>
</svg>
