<svg width="32" height="32" viewBox="0 0 32 32" fill="none" xmlns="http://www.w3.org/2000/svg">
<path d="M23.1616 8.97855L11.228 20.5236M15.0391 12.306L12.5076 9.77452L9.85139 7.19947C10.352 5.9836 10.234 4.61101 9.53278 3.49178C8.83155 2.37254 7.62823 1.63627 6.28233 1.50293C7.1412 2.82877 6.93974 4.5527 5.79656 5.6596C4.65339 6.76651 2.87144 6.96307 1.5 6.13354C1.64073 7.43286 2.40208 8.59356 3.55743 9.27012C4.71277 9.94668 6.1289 10.0611 7.38425 9.57929L9.21228 11.3476L12.904 15.0393M19.5607 16.9627L21.5004 18.9029L24.4623 21.8904C26.4115 21.1188 28.63 21.832 29.7772 23.5988C30.9244 25.3657 30.6857 27.7019 29.2054 29.1957C27.7251 30.6895 25.409 30.9313 23.6567 29.7751C21.9044 28.6188 21.1964 26.3815 21.9604 24.415L19.8667 22.3032L16.9737 19.4103M25.7622 25.7253C25.9352 25.5514 26.2152 25.5516 26.3879 25.7258M25.7622 25.7253C25.679 25.809 25.6322 25.9227 25.6322 26.0412C25.6322 26.1597 25.679 26.2734 25.7622 26.3571M25.7622 25.7253L26.3879 26.3565M26.3879 25.7258C26.5606 25.9 26.5606 26.1823 26.3879 26.3565M26.3879 25.7258L25.7622 26.3571M26.3879 26.3565C26.2152 26.5307 25.9352 26.531 25.7622 26.3571M5.86607 29.7535C4.86727 30.7527 3.2479 30.7527 2.2491 29.7535C1.2503 28.7542 1.2503 27.134 2.2491 26.1347L9.48303 18.9029L13.1 22.5217L5.86607 29.7535ZM26.5659 8.58367C25.6971 9.4535 24.2881 9.45384 23.4188 8.58441C22.5496 7.71498 22.5492 6.30503 23.4181 5.43519L27.3536 1.50293L30.5 4.65141L26.5659 8.58367Z" stroke="currentColor" stroke-width="2" stroke-linecap="round" stroke-linejoin="round"/>
</svg>
