<svg width="32" height="32" viewBox="0 0 32 32" fill="none" xmlns="http://www.w3.org/2000/svg">
<path d="M12.0526 12.0558L12.7597 11.3487C12.3692 10.9582 11.736 10.9582 11.3455 11.3487L12.0526 12.0558ZM19.9474 19.9505L19.2403 20.6576C19.4278 20.8452 19.6822 20.9505 19.9474 20.9505C20.2126 20.9505 20.4669 20.8452 20.6545 20.6576L19.9474 19.9505ZM3.15789 21.5294C3.15789 21.8491 2.89869 22.1083 2.57895 22.1083V24.1083C4.00326 24.1083 5.15789 22.9537 5.15789 21.5294H3.15789ZM2.57895 22.1083C2.2592 22.1083 2 21.8491 2 21.5294H0C0 22.9537 1.15463 24.1083 2.57895 24.1083V22.1083ZM2 21.5294C2 21.2097 2.2592 20.9504 2.57895 20.9504V18.9504C1.15463 18.9504 0 20.1051 0 21.5294H2ZM2.57895 20.9504C2.89869 20.9504 3.15789 21.2097 3.15789 21.5294H5.15789C5.15789 20.1051 4.00326 18.9504 2.57895 18.9504V20.9504ZM12.6317 12.8451C12.6317 13.1649 12.3725 13.4241 12.0528 13.4241V15.4241C13.4771 15.4241 14.6317 14.2694 14.6317 12.8451H12.6317ZM12.0528 13.4241C11.7331 13.4241 11.4738 13.1649 11.4738 12.8451H9.47385C9.47385 14.2694 10.6285 15.4241 12.0528 15.4241V13.4241ZM11.4738 12.8451C11.4738 12.5254 11.7331 12.2662 12.0528 12.2662V10.2662C10.6285 10.2662 9.47385 11.4208 9.47385 12.8451H11.4738ZM12.0528 12.2662C12.3725 12.2662 12.6317 12.5254 12.6317 12.8451H14.6317C14.6317 11.4208 13.4771 10.2662 12.0528 10.2662V12.2662ZM20.5262 19.1609C20.5262 19.4807 20.267 19.7399 19.9473 19.7399V21.7399C21.3716 21.7399 22.5262 20.5852 22.5262 19.1609H20.5262ZM19.9473 19.7399C19.6275 19.7399 19.3683 19.4807 19.3683 19.1609H17.3683C17.3683 20.5852 18.5229 21.7399 19.9473 21.7399V19.7399ZM19.3683 19.1609C19.3683 18.8412 19.6275 18.582 19.9473 18.582V16.582C18.5229 16.582 17.3683 17.7366 17.3683 19.1609H19.3683ZM19.9473 18.582C20.267 18.582 20.5262 18.8412 20.5262 19.1609H22.5262C22.5262 17.7366 21.3716 16.582 19.9473 16.582V18.582ZM30.0001 10.4767C30.0001 10.7964 29.7409 11.0556 29.4211 11.0556V13.0556C30.8454 13.0556 32.0001 11.901 32.0001 10.4767H30.0001ZM29.4211 11.0556C29.1014 11.0556 28.8422 10.7964 28.8422 10.4767H26.8422C26.8422 11.901 27.9968 13.0556 29.4211 13.0556V11.0556ZM28.8422 10.4767C28.8422 10.1569 29.1014 9.89771 29.4211 9.89771V7.89771C27.9968 7.89771 26.8422 9.05234 26.8422 10.4767H28.8422ZM29.4211 9.89771C29.7409 9.89771 30.0001 10.1569 30.0001 10.4767H32.0001C32.0001 9.05234 30.8454 7.89771 29.4211 7.89771V9.89771ZM1.70711 23.8155L12.7597 12.7629L11.3455 11.3487L0.292893 22.4013L1.70711 23.8155ZM11.3455 12.7629L19.2403 20.6576L20.6545 19.2434L12.7597 11.3487L11.3455 12.7629ZM20.6545 20.6576L30.8949 10.4171L29.4807 9.00292L19.2403 19.2434L20.6545 20.6576Z" fill="currentColor"/>
</svg>
