<svg width="32" height="32" viewBox="0 0 32 32" fill="none" xmlns="http://www.w3.org/2000/svg">
<path d="M4.68131 22.3397C4.24686 21.2012 4.01619 19.9944 3.99998 18.7751C3.99998 13.3076 9.37198 8.87541 16 8.87541M16 8.87541C22.628 8.87541 28 13.3076 28 18.7751C27.9838 19.9944 27.7531 21.2012 27.3186 22.3397M16 8.87541L16 13.9044M21.9998 29.0852C20.233 30.3085 18.1446 30.976 15.9998 31.0029C13.8551 30.976 11.7666 30.3085 9.99984 29.0852M16 24.9677C17.4432 24.89 18.6638 23.867 19 22.4532C19 21.615 17.6573 20.9445 16 20.9445C14.3427 20.9445 13 21.615 13 22.4532C13.3362 23.867 14.5568 24.89 16 24.9677ZM16 24.9677C15.4147 26.1163 14.2792 26.8777 13 26.9794M16 24.9677C16.5854 26.1163 17.7208 26.8777 19 26.9794M10.5 16.9212C10.7762 16.9212 11 17.1464 11 17.4241M10.5 16.9212C10.2239 16.9212 9.99984 17.1464 9.99984 17.4241M10.5 16.9212L10.4998 17.9272M11 17.4241C11 17.7019 10.776 17.9272 10.4998 17.9272M11 17.4241H9.99984M9.99984 17.4241C9.99984 17.7019 10.2237 17.9272 10.4998 17.9272M21.5001 16.9212C21.7762 16.9212 22.0001 17.1464 22.0001 17.4241M21.5001 16.9212C21.224 16.9212 21 17.1464 21 17.4241M21.5001 16.9212L21.5 17.9272M22.0001 17.4241C22.0001 17.7019 21.7761 17.9272 21.5 17.9272M22.0001 17.4241H21M21 17.4241C21 17.7019 21.2239 17.9272 21.5 17.9272M12 9.88087V12.8983M20.0001 9.88087V12.8983M3.99995 18.7734V5.01409C4.00012 4.24092 4.44086 3.53627 5.13374 3.2014C5.82662 2.86654 6.64899 2.96073 7.24928 3.44371L14.1453 8.99301M28 18.7734V5.01409C27.9999 4.24092 27.5591 3.53627 26.8663 3.2014C26.1734 2.86654 25.351 2.96073 24.7507 3.44371L17.8547 8.99301M25 21.9507L31 22.9565M24 24.9678L29 27.9852M7 21.9507L1 22.9565M8.00004 24.9678L3.00004 27.9852" stroke="currentColor" stroke-width="2" stroke-linecap="round" stroke-linejoin="round"/>
</svg>
