<svg width="32" height="32" viewBox="0 0 32 32" fill="none" xmlns="http://www.w3.org/2000/svg">
<path d="M23 21H27C27.5304 21 28.0391 20.7893 28.4142 20.4142C28.7893 20.0391 29 19.5304 29 19V7.16133C28.9999 6.63127 28.7894 6.12293 28.4147 5.748L24.252 1.58533C23.8771 1.21064 23.3687 1.00011 22.8387 1H15C14.4696 1 13.9609 1.21071 13.5858 1.58579C13.2107 1.96086 13 2.46957 13 3V7M7 2L9 4.00663M9 4.00663H4.71429C4.25963 4.00663 3.82359 4.1471 3.5021 4.39715C3.18061 4.6472 3 4.98634 3 5.33996V7M9 4.00663L7 6M25 30L23 27.9934M23 27.9934H27.2857C27.7404 27.9934 28.1764 27.8529 28.4979 27.6028C28.8194 27.3528 29 27.0137 29 26.66V25M23 27.9934L25 26M6.99988 17H11.9999M6.99988 21H14.9999M6.99992 25H14.9999M16.9999 7H21.9999M19 11H25M23 15H25M19 29C19 29.5304 18.7893 30.0391 18.4142 30.4142C18.0391 30.7893 17.5304 31 17 31H5C4.46957 31 3.96086 30.7893 3.58579 30.4142C3.21071 30.0391 3 29.5304 3 29V13C3 12.4696 3.21071 11.9609 3.58579 11.5858C3.96086 11.2107 4.46957 11 5 11H12.8387C13.3687 11.0001 13.8771 11.2106 14.252 11.5853L18.4147 15.748C18.7894 16.1229 18.9999 16.6313 19 17.1613V29Z" stroke="currentColor" stroke-width="2" stroke-linecap="round" stroke-linejoin="round"/>
</svg>
