<svg width="32" height="32" viewBox="0 0 32 32" fill="none" xmlns="http://www.w3.org/2000/svg">
<path d="M9.59727 23.6935C9.47987 23.1539 8.94722 22.8116 8.40755 22.929C7.86789 23.0464 7.52557 23.579 7.64297 24.1187L9.59727 23.6935ZM9.60625 28.4393L9.90003 29.3952C10.3969 29.2425 10.6939 28.7346 10.5834 28.2267L9.60625 28.4393ZM4.65627 28.9145C4.12836 29.0767 3.83193 29.6362 3.99418 30.1641C4.15643 30.692 4.71592 30.9885 5.24384 30.8262L4.65627 28.9145ZM12.0322 7.93125C12.5463 8.13292 13.1266 7.87962 13.3283 7.36548C13.53 6.85133 13.2767 6.27104 12.7625 6.06936L12.0322 7.93125ZM8 5.2754L7.10089 4.83767C6.97878 5.0885 6.96699 5.37894 7.06838 5.63884C7.16977 5.89873 7.37512 6.10446 7.63483 6.20634L8 5.2754ZM10.9804 1.43803C11.2222 0.941465 11.0156 0.342945 10.519 0.101196C10.0225 -0.140553 9.42394 0.0660164 9.18219 0.562581L10.9804 1.43803ZM23.9198 17.9368C23.5116 18.3088 23.4823 18.9413 23.8543 19.3495C24.2263 19.7577 24.8588 19.7871 25.267 19.415L23.9198 17.9368ZM28 15.5714L28.7526 14.9129C28.5757 14.7107 28.3248 14.5881 28.0565 14.573C27.7882 14.5578 27.525 14.6513 27.3264 14.8323L28 15.5714ZM30.2474 19.6588C30.6111 20.0744 31.2428 20.1166 31.6585 19.7529C32.0741 19.3893 32.1163 18.7575 31.7526 18.3418L30.2474 19.6588ZM4.45863 10.8927C4.71695 10.4046 4.53064 9.79944 4.04249 9.54112C3.55435 9.2828 2.94921 9.46911 2.69089 9.95725L4.45863 10.8927ZM3.03323 21.8553L2.11113 22.2423L2.11113 22.2423L3.03323 21.8553ZM8.12438 29.04C8.60403 29.3138 9.21481 29.1469 9.48859 28.6672C9.76238 28.1876 9.5955 27.5768 9.11585 27.303L8.12438 29.04ZM16.2553 28.8739C15.7051 28.9208 15.2969 29.4048 15.3438 29.9551C15.3906 30.5054 15.8747 30.9136 16.425 30.8667L16.2553 28.8739ZM20.5244 28.8186L20.9189 29.7374L20.9189 29.7374L20.5244 28.8186ZM28.9999 16.182C28.9924 15.6297 28.5386 15.1882 27.9864 15.1957C27.4341 15.2032 26.9926 15.657 27.0001 16.2092L28.9999 16.182ZM25.3138 9.04366C25.6453 9.48539 26.2721 9.57476 26.7139 9.24326C27.1556 8.91177 27.245 8.28494 26.9135 7.84321L25.3138 9.04366ZM10.2318 4.29167L10.6263 5.21056L10.6263 5.21056L10.2318 4.29167ZM8.32896 4.12499C7.84967 4.39941 7.68359 5.0104 7.958 5.48969C8.23242 5.96897 8.84341 6.13506 9.3227 5.86064L8.32896 4.12499ZM7.64297 24.1187L8.6291 28.6519L10.5834 28.2267L9.59727 23.6935L7.64297 24.1187ZM9.31247 27.4834L4.65627 28.9145L5.24384 30.8262L9.90003 29.3952L9.31247 27.4834ZM12.7625 6.06936L8.36517 4.34446L7.63483 6.20634L12.0322 7.93125L12.7625 6.06936ZM8.89911 5.71312L10.9804 1.43803L9.18219 0.562581L7.10089 4.83767L8.89911 5.71312ZM25.267 19.415L28.6736 16.3105L27.3264 14.8323L23.9198 17.9368L25.267 19.415ZM27.2474 16.2298L30.2474 19.6588L31.7526 18.3418L28.7526 14.9129L27.2474 16.2298ZM2.69089 9.95725C0.740898 13.6421 0.384254 18.1272 2.11113 22.2423L3.95533 21.4684C2.47273 17.9354 2.7735 14.0771 4.45863 10.8927L2.69089 9.95725ZM2.11113 22.2423C3.36275 25.2248 5.51587 27.551 8.12438 29.04L9.11585 27.303C6.87671 26.0249 5.03073 24.031 3.95533 21.4684L2.11113 22.2423ZM16.425 30.8667C17.9339 30.7383 19.4495 30.3683 20.9189 29.7374L20.1299 27.8997C18.8591 28.4453 17.5528 28.7635 16.2553 28.8739L16.425 30.8667ZM20.9189 29.7374C26.5827 27.3057 29.076 21.7658 28.9999 16.182L27.0001 16.2092C27.0684 21.2176 24.8561 25.8705 20.1299 27.8997L20.9189 29.7374ZM26.9135 7.84321C23.0623 2.71129 16.052 0.704545 9.83728 3.37279L10.6263 5.21056C15.9871 2.90896 22.0125 4.64453 25.3138 9.04366L26.9135 7.84321ZM9.83728 3.37279C9.31479 3.59711 8.81166 3.84862 8.32896 4.12499L9.3227 5.86064C9.73937 5.62208 10.1742 5.40469 10.6263 5.21056L9.83728 3.37279Z" fill="currentColor"/>
</svg>
