<svg width="32" height="32" viewBox="0 0 32 32" fill="none" xmlns="http://www.w3.org/2000/svg">
<path d="M3 16.8696V18.6029H4.73333M16 3.00293H18.6M13.4 3.00293V6.4696H16M18.6 6.4696V9.93626H13.4M3 13.4029H9.93331V15.1363M8.20006 18.6029H9.93339M28.9999 29.0029H25.5332V25.5363H28.9999V22.0696H25.5332M18.6 29.0029H13.4V22.0696M22.0667 22.0696V29.0029M16.8666 22.0696H18.6V25.5363H16.8666M13.4 16.8696V18.6029H15.1333M18.6 18.6029H22.0667M20.3333 18.6029V15.1363M13.4 13.4029H16.8666V15.1363M28.9999 13.4029V15.1363M28.9999 17.7363V18.6029M23.8 13.4029V15.1363H25.5333V17.7363M3 3.00293H9.93331V9.93626H3V3.00293ZM22.0667 3.00293H29V9.93626H22.0667V3.00293ZM3 22.0696H9.93331V29.0029H3V22.0696Z" stroke="currentColor" stroke-width="2" stroke-linecap="round" stroke-linejoin="round"/>
</svg>
