<svg width="32" height="32" viewBox="0 0 32 32" fill="none" xmlns="http://www.w3.org/2000/svg">
<path d="M9 6H12M11 11H18M11 17H18M11 23H18M23 31C22.3775 29.9231 21.2352 29.261 20 29.261C18.7648 29.261 17.6225 29.9231 17 31C16.3775 29.9231 15.2352 29.261 14 29.261C12.7648 29.261 11.6225 29.9231 11 31C10.3775 29.9231 9.23521 29.261 8 29.261C6.76479 29.261 5.62251 29.9231 5 31M26 1H9C6.79086 1 5 2.80756 5 5.03729V30.6068M23 30.9433V10.0839M25 1H27C28.1046 1 29 1.99492 29 3.22222V9.51852C29 10.3367 28.403 11 27.6667 11H23V3.22222C23 1.99492 23.8954 1 25 1Z" stroke="currentColor" stroke-width="2" stroke-linecap="round" stroke-linejoin="round"/>
</svg>
