<svg width="32" height="32" viewBox="0 0 32 32" fill="none" xmlns="http://www.w3.org/2000/svg">
<path d="M14.5 6.80621V3.63681C14.5 3.28673 14.0523 3.00293 13.5 3.00293H6.5C5.94772 3.00293 5.5 3.28673 5.5 3.63681V6.80621M7.5 12.0029H12.5M7.5 16.0029H12.5M7.5 20.0029H12.5M7.5 24.0029H12.5M28.502 29.0029V13.8918C28.502 13.4009 28.0497 13.0029 27.4917 13.0029H21.5102C20.9523 13.0029 20.5 13.4009 20.5 13.8918V29.0029M26.5 11.0029V12.9046M1.5 29.0029H30.5M4.1188 7.00293H15.8761C16.2178 7.00293 16.4949 7.27653 16.4949 7.61404V29.0029H3.5V7.61404C3.5 7.27653 3.77705 7.00293 4.1188 7.00293Z" stroke="currentColor" stroke-width="2" stroke-linecap="round" stroke-linejoin="round"/>
</svg>
