<svg width="32" height="32" viewBox="0 0 32 32" fill="none" xmlns="http://www.w3.org/2000/svg">
<path d="M26.0096 12.0202V6.82425C26.0096 5.40039 24.1583 4.00293 22.5613 4.00293H8.44828C6.37931 4.00293 5 5.40039 5 6.82425V27.702C5 28.3261 5.61655 28.8305 6.37931 28.8305H7.56735M26.0095 10.6973V8.00293H5V21.4857H7.10095M4.08566 9.00293H1L1.00135 14.1753M26.8623 9.00293H30V14.1753M15.501 24.4687H17.1739C17.3528 24.4687 17.5244 24.5421 17.6509 24.6726L18.1285 25.1654M27.496 24.4797H25.8499C25.6739 24.4797 25.505 24.5519 25.3805 24.6803L24.9106 25.1652M14.4824 21.1102L15.8893 17.2457C16.1619 16.4974 16.8577 16.0019 17.6347 16.0029H25.3653C26.1414 16.003 26.836 16.4982 27.1082 17.2457L28.5083 20.9017M29.1245 21.2129L29.83 20.0002H31.0008M13.8809 21.2129L13.1754 20.0002H12.0045M6 29.5547H8.06897V28.0029H6V29.5547ZM29.7593 28.0031C30.4449 28.0031 31.0007 27.3959 31.0007 26.6469V24.6117C31.0004 24.178 30.8427 23.7621 30.5621 23.4554L28.5179 21.0002H14.4828L12.4386 23.4554C12.158 23.7621 12.0003 24.178 12 24.6117V26.6469C12 27.0066 12.1279 27.3515 12.3607 27.6059C12.5935 27.8602 12.9121 28.0031 13.2414 28.0031H29.7593ZM13.001 28.0031V29.2173C13.001 29.888 13.6685 30.4316 14.4919 30.4316C15.3154 30.4316 15.9829 29.888 15.9829 29.2173V28.0031H13.001ZM29.9955 28.0031V29.2175C29.9955 29.8882 29.325 30.4319 28.498 30.4319C27.6709 30.4319 27.0005 29.8882 27.0005 29.2175V28.0031H29.9955Z" stroke="currentColor" stroke-width="2" stroke-linecap="round" stroke-linejoin="round"/>
</svg>
