<svg width="32" height="32" viewBox="0 0 32 32" fill="none" xmlns="http://www.w3.org/2000/svg">
<path d="M16 2.00098L16.0013 6.00098M2 16.001H6M15.998 30.001V26.001M30 16.001H26M18.8265 13.1725C20.3886 14.7346 20.3886 17.2673 18.8265 18.8294C17.2644 20.3915 14.7317 20.3915 13.1696 18.8294C11.6075 17.2673 11.6075 14.7346 13.1696 13.1725C14.7317 11.6105 17.2644 11.6105 18.8265 13.1725ZM23.0711 8.92991C26.9763 12.8351 26.9763 19.1668 23.0711 23.072C19.1658 26.9773 12.8342 26.9773 8.92893 23.072C5.02369 19.1668 5.02369 12.8351 8.92893 8.92991C12.8342 5.02467 19.1658 5.02467 23.0711 8.92991Z" stroke="currentColor" stroke-width="2" stroke-linecap="round" stroke-linejoin="round"/>
</svg>
