<svg width="32" height="32" viewBox="0 0 32 32" fill="none" xmlns="http://www.w3.org/2000/svg">
<path fill-rule="evenodd" clip-rule="evenodd" d="M17.018 19.1311L20.1852 15.9639L22.3655 16.5488C23.04 16.7287 23.7593 16.5355 24.253 16.0419C24.7466 15.5482 24.9398 14.829 24.7599 14.1544L24.175 11.9741L25.1506 10.9985L27.3309 11.5834C28.0056 11.7641 28.7254 11.5712 29.2193 11.0773C29.7131 10.5835 29.906 9.86366 29.7253 9.18902L29.1416 7.00872C30.2867 5.86333 30.2864 4.00657 29.141 2.86153C27.9956 1.71649 26.1389 1.71677 24.9938 2.86215L12.8715 14.9845C9.42592 13.5236 5.42832 14.7091 3.33621 17.8122C1.2441 20.9153 1.64418 25.0657 4.2905 27.7121C6.93682 30.3584 11.0873 30.7584 14.1903 28.6663C17.2934 26.5742 18.4789 22.5766 17.018 19.1311Z" stroke="currentColor" stroke-width="2" stroke-linecap="round" stroke-linejoin="round"/>
<path fill-rule="evenodd" clip-rule="evenodd" d="M8.43617 25.5214C9.51592 25.5214 10.3912 24.6461 10.3912 23.5663C10.3912 22.4866 9.51592 21.6112 8.43617 21.6112C7.35642 21.6112 6.48112 22.4866 6.48112 23.5663C6.48112 24.6461 7.35642 25.5214 8.43617 25.5214Z" stroke="currentColor" stroke-width="2" stroke-linecap="round" stroke-linejoin="round"/>
</svg>
