<svg width="32" height="32" viewBox="0 0 32 32" fill="none" xmlns="http://www.w3.org/2000/svg">
<path d="M20 15.0029C20 14.4506 19.5523 14.0029 19 14.0029C18.4477 14.0029 18 14.4506 18 15.0029H20ZM6.644 31.0029L6.644 30.0029L6.644 30.0029L6.644 31.0029ZM3 27.3603L2 27.3603L2 27.3606L3 27.3603ZM3 6.64693L2 6.64656V6.64693H3ZM6.644 3.00293L6.644 2.00293L6.64363 2.00293L6.644 3.00293ZM8.66667 4.00293C9.21895 4.00293 9.66667 3.55521 9.66667 3.00293C9.66667 2.45064 9.21895 2.00293 8.66667 2.00293V4.00293ZM3 24.0029C2.44772 24.0029 2 24.4506 2 25.0029C2 25.5552 2.44772 26.0029 3 26.0029V24.0029ZM19 26.0029C19.5523 26.0029 20 25.5552 20 25.0029C20 24.4506 19.5523 24.0029 19 24.0029V26.0029ZM18 15.0029V27.3603H20V15.0029H18ZM18 27.3603C18 28.8198 16.8168 30.0029 15.3573 30.0029V32.0029C17.9214 32.0029 20 29.9243 20 27.3603H18ZM15.3573 30.0029H6.644V32.0029H15.3573V30.0029ZM6.644 30.0029C5.18414 30.0029 4.00053 28.8198 4 27.3599L2 27.3606C2.00094 29.9248 4.07985 32.0029 6.644 32.0029L6.644 30.0029ZM4 27.3603V6.64693H2V27.3603H4ZM4 6.6473C4.00053 5.18707 5.18414 4.00346 6.64437 4.00293L6.64363 2.00293C4.07941 2.00387 2.00094 4.08234 2 6.64656L4 6.6473ZM6.644 4.00293H8.66667V2.00293H6.644V4.00293ZM3 26.0029H19V24.0029H3V26.0029ZM16.3334 4.33626C15.5049 4.33626 14.8334 5.00784 14.8334 5.83626H16.8334C16.8334 6.11241 16.6095 6.33626 16.3334 6.33626V4.33626ZM14.8334 5.83626C14.8334 6.66469 15.5049 7.33626 16.3334 7.33626V5.33626C16.6095 5.33626 16.8334 5.56012 16.8334 5.83626H14.8334ZM16.3334 7.33626C17.1618 7.33626 17.8334 6.66469 17.8334 5.83626H15.8334C15.8334 5.56012 16.0572 5.33626 16.3334 5.33626V7.33626ZM17.8334 5.83626C17.8334 5.00783 17.1618 4.33626 16.3334 4.33626V6.33626C16.0572 6.33626 15.8334 6.11241 15.8334 5.83626H17.8334ZM15.3334 5.33626V6.33626H17.3334V5.33626H15.3334ZM21.3334 4.33626C20.5049 4.33626 19.8334 5.00784 19.8334 5.83626H21.8334C21.8334 6.11241 21.6095 6.33626 21.3334 6.33626V4.33626ZM19.8334 5.83626C19.8334 6.66469 20.5049 7.33626 21.3334 7.33626V5.33626C21.6095 5.33626 21.8334 5.56012 21.8334 5.83626H19.8334ZM21.3334 7.33626C22.1618 7.33626 22.8334 6.66469 22.8334 5.83626H20.8334C20.8334 5.56012 21.0572 5.33626 21.3334 5.33626V7.33626ZM22.8334 5.83626C22.8334 5.00784 22.1618 4.33626 21.3334 4.33626V6.33626C21.0572 6.33626 20.8334 6.11241 20.8334 5.83626H22.8334ZM20.3334 5.33626V6.33626H22.3334V5.33626H20.3334ZM26.3334 4.33626C25.5049 4.33626 24.8334 5.00784 24.8334 5.83626H26.8334C26.8334 6.11241 26.6095 6.33626 26.3334 6.33626V4.33626ZM24.8334 5.83626C24.8334 6.66469 25.5049 7.33626 26.3334 7.33626V5.33626C26.6095 5.33626 26.8334 5.56012 26.8334 5.83626H24.8334ZM26.3334 7.33626C27.1618 7.33626 27.8334 6.66469 27.8334 5.83626H25.8334C25.8334 5.56012 26.0572 5.33626 26.3334 5.33626V7.33626ZM27.8334 5.83626C27.8334 5.00784 27.1618 4.33626 26.3334 4.33626V6.33626C26.0572 6.33626 25.8334 6.11241 25.8334 5.83626H27.8334ZM25.3334 5.33626V6.33626H27.3334V5.33626H25.3334ZM15 2.00293H28V0.00292969H15V2.00293ZM30 4.00293V8.00293H32V4.00293H30ZM28 10.0029H15V12.0029H28V10.0029ZM13 8.00293V4.00293H11V8.00293H13ZM15 10.0029C13.8955 10.0029 13 9.1075 13 8.00293H11C11 10.2121 12.7909 12.0029 15 12.0029V10.0029ZM30 8.00293C30 9.1075 29.1046 10.0029 28 10.0029V12.0029C30.2092 12.0029 32 10.2121 32 8.00293H30ZM28 2.00293C29.1046 2.00293 30 2.89836 30 4.00293H32C32 1.79379 30.2092 0.00292969 28 0.00292969V2.00293ZM15 0.00292969C12.7909 0.00292969 11 1.79379 11 4.00293H13C13 2.89836 13.8955 2.00293 15 2.00293V0.00292969Z" fill="currentColor"/>
</svg>
