<svg width="32" height="32" viewBox="0 0 32 32" fill="none" xmlns="http://www.w3.org/2000/svg">
<path d="M21 11.0029L11 21.0029M31 20.0029V24.0029C31 25.1075 30.1046 26.0029 29 26.0029H3C1.89543 26.0029 1 25.1075 1 24.0029V20.0029C3.20914 20.0029 5 18.2121 5 16.0029C5 13.7938 3.20914 12.0029 1 12.0029V8.00293C1 6.89836 1.89543 6.00293 3 6.00293H29C30.1046 6.00293 31 6.89836 31 8.00293V12.0029C28.7909 12.0029 27 13.7938 27 16.0029C27 18.2121 28.7909 20.0029 31 20.0029ZM11 14.0029C12.1046 14.0029 13 13.1075 13 12.0029C13 10.8984 12.1046 10.0029 11 10.0029C9.89543 10.0029 9 10.8984 9 12.0029C9 13.1075 9.89543 14.0029 11 14.0029ZM22 22.0029C23.1046 22.0029 24 21.1075 24 20.0029C24 18.8984 23.1046 18.0029 22 18.0029C20.8954 18.0029 20 18.8984 20 20.0029C20 21.1075 20.8954 22.0029 22 22.0029Z" stroke="currentColor" stroke-width="2" stroke-linecap="round" stroke-linejoin="round"/>
</svg>
