<svg width="32" height="32" viewBox="0 0 32 32" fill="none" xmlns="http://www.w3.org/2000/svg">
<path d="M14 21.0029C14 17.6892 16.6863 15.0029 20 15.0029C23.3137 15.0029 26 17.6892 26 21.0029M16 25.0029V29.0029M6 29.0029H26M20 14.0029C21.933 14.0029 23.5 12.4359 23.5 10.5029C23.5 8.56993 21.933 7.00293 20 7.00293C18.067 7.00293 16.5 8.56993 16.5 10.5029C16.5 12.4359 18.067 14.0029 20 14.0029ZM5 25.0029H27C28.6569 25.0029 30 23.6598 30 22.0029V6.00293C30 4.34608 28.6569 3.00293 27 3.00293H5C3.34315 3.00293 2 4.34608 2 6.00293V22.0029C2 23.6598 3.34315 25.0029 5 25.0029ZM6 7.00293H12V13.0029H6V7.00293Z" stroke="currentColor" stroke-width="2" stroke-linecap="round" stroke-linejoin="round"/>
</svg>
