<svg width="32" height="32" viewBox="0 0 32 32" fill="none" xmlns="http://www.w3.org/2000/svg">
<path d="M2.65063 12.0029H8.93444C9.39014 12.003 9.83274 12.1515 10.1919 12.4249C10.5511 12.6983 10.8063 13.0809 10.9168 13.5118L11.9387 17.4966C12.0141 17.7904 12.0198 18.097 11.9554 18.3932C11.891 18.6894 11.7582 18.9674 11.5671 19.2061C11.376 19.4447 11.1316 19.6378 10.8525 19.7706C10.5734 19.9034 10.2669 19.9725 9.9563 19.9725H8.48619L7.02262 26.5612M28 22.0029H26.1397C25.7322 22.0031 25.3379 21.8563 25.0268 21.5887C24.7158 21.3212 24.5083 20.9502 24.4412 20.5418L23.5334 15.0027H21.7213C21.4597 15.0027 21.2015 14.9421 20.9664 14.8255C20.7313 14.7089 20.5254 14.5394 20.3645 14.3298C20.2035 14.1203 20.0916 13.8762 20.0374 13.6162C19.9832 13.3561 19.988 13.0869 20.0515 12.8291L20.9122 9.33072C21.0053 8.95235 21.2203 8.61648 21.5228 8.37646C21.8254 8.13644 22.1982 8.00605 22.582 8.006C23.5769 7.99874 27.3846 8.00662 27.3846 8.00662M30 16.0029C30 23.7349 23.732 30.0029 16 30.0029C8.26801 30.0029 2 23.7349 2 16.0029C2 8.27094 8.26801 2.00293 16 2.00293C23.732 2.00293 30 8.27094 30 16.0029Z" stroke="currentColor" stroke-width="2" stroke-linecap="round" stroke-linejoin="round"/>
</svg>
