<svg width="32" height="32" viewBox="0 0 32 32" fill="none" xmlns="http://www.w3.org/2000/svg">
<path d="M6 4.0011H26M15.9999 16.0011C12.5361 14.0011 10.5754 12.4011 10.0175 9.81313C10.0054 9.73726 9.99958 9.66059 10 9.58383C10.0047 8.78053 10.6823 7.9966 11.5136 8.00112C12.3448 8.00563 20.4862 8.00112 20.4862 8.00112C20.5656 8.00069 20.645 8.00946 20.7235 8.02113C21.5451 8.14324 22.1087 9.01914 21.9823 9.81313C21.4244 12.4011 19.4637 14.0011 15.9999 16.0011ZM15.9999 16.0011C12.536 18.0011 10.5753 19.6011 10.0173 22.1864C10.0054 22.2619 9.99959 22.3382 10 22.4146C10.0046 23.2179 10.6822 24.0019 11.5135 23.9975H20.4863C20.5653 23.9979 20.6443 23.989 20.7224 23.9775C21.5441 23.8559 22.1083 22.9805 21.9825 22.1864C21.4245 19.6011 19.4638 18.0011 15.9999 16.0011ZM6 28.0011H26" stroke="currentColor" stroke-width="2" stroke-linecap="round" stroke-linejoin="round"/>
</svg>
