<svg width="32" height="32" viewBox="0 0 32 32" fill="none" xmlns="http://www.w3.org/2000/svg">
<path d="M16 7.00293C17.6569 7.00293 19 5.65978 19 4.00293C19 2.34608 17.6569 1.00293 16 1.00293C14.3431 1.00293 13 2.34608 13 4.00293C13 5.65978 14.3431 7.00293 16 7.00293ZM16 7.00293V11.6696M28.3333 23.0029C29.8073 23.0029 31 21.6605 31 19.9988C31 18.3372 29.8073 17.0029 28.3333 17.0029M3.66667 23.0029C2.19273 23.0029 1 21.6605 1 19.9988C1 18.3372 2.19273 17.0029 3.66667 17.0029M13.6667 23.6696C14.752 24.5585 17.1675 24.5585 18.3333 23.6696M4.33333 18.4905V21.5153C4.33333 25.2873 6.96692 28.3363 10.2112 28.3363H21.7888C25.0331 28.3363 27.6667 25.2873 27.6667 21.5153V18.4905C27.6667 14.7185 25.0331 11.6696 21.7888 11.6696H10.2112C6.96692 11.6696 4.33333 14.7185 4.33333 18.4905ZM12.3333 18.6696C12.3333 19.5901 11.5871 20.3363 10.6667 20.3363C9.74619 20.3363 9 19.5901 9 18.6696C9 17.7491 9.74619 17.0029 10.6667 17.0029C11.5871 17.0029 12.3333 17.7491 12.3333 18.6696ZM23 18.6696C23 19.5901 22.2538 20.3363 21.3333 20.3363C20.4129 20.3363 19.6667 19.5901 19.6667 18.6696C19.6667 17.7491 20.4129 17.0029 21.3333 17.0029C22.2538 17.0029 23 17.7491 23 18.6696Z" stroke="currentColor" stroke-width="2" stroke-linecap="round" stroke-linejoin="round"/>
</svg>
