<svg width="32" height="32" viewBox="0 0 32 32" fill="none" xmlns="http://www.w3.org/2000/svg">
<path d="M15.9683 2.00654L15.9442 3.00625L15.9683 3.00683L15.9923 3.00625L15.9683 2.00654ZM2 14.8084L1.00037 14.7812L0.99994 14.797L1.00001 14.8128L2 14.8084ZM6.19048 23.945H7.19048V23.4943L6.85288 23.1958L6.19048 23.945ZM6.19048 27.6104L7.18989 27.6446L7.19048 27.6275V27.6104H6.19048ZM8.25778 28.8366L7.82195 27.9366L7.80605 27.9443L7.79042 27.9526L8.25778 28.8366ZM11.8756 27.0848L12.1371 26.1196L11.7762 26.0218L11.4397 26.1848L11.8756 27.0848ZM15.9683 27.6104L15.9923 26.6107L15.9759 26.6103L15.9594 26.6104L15.9683 27.6104ZM30 14.8084L30.9996 14.8357L31.0004 14.8084L30.9996 14.7812L30 14.8084ZM17.4891 18.4141L17.0929 19.3323L17.1024 19.3363L17.4891 18.4141ZM13.4398 16.6667L13.836 15.7485C13.4975 15.6024 13.1061 15.6545 12.8175 15.8839L13.4398 16.6667ZM10.7346 18.8175L11.284 19.653C11.3091 19.6365 11.3334 19.6189 11.3569 19.6002L10.7346 18.8175ZM9.12222 17.4062L8.25976 16.9C8.25108 16.9148 8.24278 16.9298 8.23488 16.9451L9.12222 17.4062ZM12.0578 12.4039L11.1964 11.896L11.1953 11.8978L12.0578 12.4039ZM14.5186 11.6102L14.9148 10.692L14.9132 10.6913L14.5186 11.6102ZM18.568 13.3576L18.1717 14.2758C18.5126 14.4229 18.9068 14.3691 19.1958 14.136L18.568 13.3576ZM21.2159 11.2219L20.622 10.4174C20.6105 10.4259 20.5992 10.4346 20.5881 10.4436L21.2159 11.2219ZM22.8794 12.5956L23.7419 13.1017C23.7511 13.086 23.7599 13.07 23.7682 13.0539L22.8794 12.5956ZM19.9438 17.5979L19.0814 17.0917L19.0775 17.0984L19.9438 17.5979ZM15.9923 1.00683C12.1275 0.913819 8.37599 2.30391 5.5629 4.88212L6.91422 6.35655C9.33912 4.13412 12.5865 2.92544 15.9442 3.00625L15.9923 1.00683ZM5.5629 4.88212C2.74858 7.46144 1.10303 11.0207 1.00037 14.7812L2.99963 14.8357C3.08719 11.6285 4.49054 8.57785 6.91422 6.35655L5.5629 4.88212ZM1.00001 14.8128C1.00819 16.6755 1.41577 18.5154 2.19593 20.2164L4.01384 19.3826C3.35168 17.9389 3.00691 16.3801 2.99999 14.8041L1.00001 14.8128ZM2.19593 20.2164C2.97604 21.9172 4.11124 23.4413 5.52808 24.6941L6.85288 23.1958C5.64195 22.1251 4.67605 20.8264 4.01384 19.3826L2.19593 20.2164ZM5.19048 23.945V27.6104H7.19048V23.945H5.19048ZM5.19106 27.5761C5.17664 27.9972 5.27816 28.4127 5.48267 28.7797L7.22976 27.8062C7.20087 27.7543 7.18803 27.6988 7.18989 27.6446L5.19106 27.5761ZM5.48267 28.7797C5.687 29.1464 5.98571 29.4499 6.34474 29.6629L7.36509 27.9427C7.30422 27.9066 7.25881 27.8583 7.22976 27.8062L5.48267 28.7797ZM6.34474 29.6629C6.70354 29.8757 7.11153 29.9917 7.5275 30.0017L7.57574 28.0023C7.49894 28.0005 7.42619 27.979 7.36509 27.9427L6.34474 29.6629ZM7.5275 30.0017C7.94346 30.0118 8.35648 29.9156 8.72513 29.7207L7.79042 27.9526C7.72679 27.9862 7.65255 28.0042 7.57574 28.0023L7.5275 30.0017ZM8.6936 29.7367L12.3114 27.9848L11.4397 26.1848L7.82195 27.9366L8.6936 29.7367ZM11.614 28.05C13.034 28.4348 14.5029 28.6234 15.9771 28.6103L15.9594 26.6104C14.6674 26.6218 13.3804 26.4565 12.1371 26.1196L11.614 28.05ZM15.9442 28.6101C19.809 28.7031 23.5605 27.313 26.3736 24.7348L25.0223 23.2603C22.5974 25.4828 19.3501 26.6915 15.9923 26.6107L15.9442 28.6101ZM26.3736 24.7348C29.1788 22.1638 30.8966 18.608 30.9996 14.8357L29.0004 14.7812C28.9131 17.9765 27.4551 21.0307 25.0223 23.2603L26.3736 24.7348ZM30.9996 14.7812C30.8966 11.0089 29.1788 7.45311 26.3736 4.88212L25.0223 6.35655C27.4551 8.58617 28.9131 11.6404 29.0004 14.8357L30.9996 14.7812ZM26.3736 4.88212C23.5605 2.30391 19.809 0.913819 15.9442 1.00683L15.9923 3.00625C19.3501 2.92544 22.5974 4.13412 25.0223 6.35655L26.3736 4.88212ZM17.8854 17.496L13.836 15.7485L13.0436 17.5848L17.0929 19.3323L17.8854 17.496ZM12.8175 15.8839L10.1122 18.0347L11.3569 19.6002L14.0621 17.4494L12.8175 15.8839ZM10.1851 17.9819C10.1634 17.9962 10.1354 18.0041 10.1059 18.0021L9.9704 19.9975C10.4334 20.029 10.8953 19.9086 11.284 19.653L10.1851 17.9819ZM10.1059 18.0021C10.0765 18.0001 10.0509 17.9887 10.0325 17.9726L8.71522 19.4775C9.06568 19.7843 9.50733 19.9661 9.9704 19.9975L10.1059 18.0021ZM10.0325 17.9726C10.0144 17.9567 10.0047 17.9379 10.0014 17.9205L8.03686 18.2953C8.12461 18.7552 8.36447 19.1705 8.71522 19.4775L10.0325 17.9726ZM10.0014 17.9205C9.99812 17.9032 10.0005 17.8848 10.0096 17.8673L8.23488 16.9451C8.01923 17.36 7.94908 17.8352 8.03686 18.2953L10.0014 17.9205ZM9.98468 17.9123L12.9202 12.91L11.1953 11.8978L8.25976 16.9L9.98468 17.9123ZM12.9192 12.9118C13.0331 12.7186 13.2177 12.5695 13.4414 12.4973L12.8275 10.5939C12.1435 10.8145 11.5617 11.2763 11.1964 11.896L12.9192 12.9118ZM13.4414 12.4973C13.6653 12.4251 13.9088 12.4366 14.124 12.529L14.9132 10.6913C14.2531 10.4079 13.5112 10.3734 12.8275 10.5939L13.4414 12.4973ZM14.1224 12.5283L18.1717 14.2758L18.9642 12.4395L14.9148 10.692L14.1224 12.5283ZM19.1958 14.136L21.8437 12.0003L20.5881 10.4436L17.9402 12.5793L19.1958 14.136ZM21.8098 12.0265C21.8306 12.0111 21.8584 12.0017 21.8886 12.0025L21.9423 10.0032C21.4692 9.9905 21.0039 10.1355 20.622 10.4174L21.8098 12.0265ZM21.8886 12.0025C21.9188 12.0033 21.9456 12.0142 21.9651 12.0303L23.2386 10.4881C22.8724 10.1857 22.4154 10.0159 21.9423 10.0032L21.8886 12.0025ZM21.9651 12.0303C21.9843 12.0461 21.9946 12.0653 21.9983 12.0831L23.9565 11.6764C23.8594 11.2089 23.605 10.7907 23.2386 10.4881L21.9651 12.0303ZM21.9983 12.0831C22.002 12.1008 21.9998 12.1195 21.9906 12.1373L23.7682 13.0539C23.9868 12.6299 24.0537 12.1441 23.9565 11.6764L21.9983 12.0831ZM22.0169 12.0895L19.0814 17.0918L20.8063 18.104L23.7419 13.1017L22.0169 12.0895ZM19.0775 17.0984C18.9655 17.2926 18.7823 17.4435 18.5592 17.5177L19.1903 19.4155C19.8727 19.1886 20.4505 18.721 20.8101 18.0974L19.0775 17.0984ZM18.5592 17.5177C18.3359 17.592 18.0921 17.5826 17.8759 17.4919L17.1024 19.3363C17.7654 19.6143 18.5081 19.6423 19.1903 19.4155L18.5592 17.5177Z" fill="currentColor"/>
</svg>
