<svg width="32" height="32" viewBox="0 0 32 32" fill="none" xmlns="http://www.w3.org/2000/svg">
<path d="M8.53795 21.4104C8.4378 23.1703 7.82996 24.8723 6.77869 26.3363H8.96387M3.26044 26.3364H9.00002M1 15.6697H11.6667M10.3333 21.0029H4C2.34314 21.0029 1 19.6598 1 18.0029V4.00293C1 2.34608 2.34315 1.00293 4 1.00293H23.3333C24.9902 1.00293 26.3333 2.34608 26.3333 4.00293V11.6696M28.6 20.0946L30.576 22.1904C30.8473 22.4784 30.9998 22.8687 31 23.2757V25.1857C31 25.8887 30.4627 26.4585 29.8 26.4585H14.2C13.8817 26.4585 13.5765 26.3244 13.3515 26.0857C13.1264 25.847 13 25.5233 13 25.1857V23.2757C13.0002 22.8687 13.1527 22.4784 13.424 22.1904L15.4 20.0946M28.6 20.0946H15.4M28.6 20.0946L29.8 18.8203H31M15.4 20.0946L16.76 16.2418C17.0235 15.4958 17.6961 15.0019 18.4472 15.0029H25.5528C26.303 15.003 26.9744 15.4967 27.2376 16.2418L28.5976 20.0941L15.4 20.0946ZM15.4 20.0946L14.2 18.8203H13M15.8601 23.2392H17.4772C17.6502 23.2392 17.816 23.3101 17.9384 23.4363L18.4 23.9127M28.0992 23.2497H26.5079C26.3378 23.2498 26.1746 23.3195 26.0542 23.4437L25.6 23.9124M13.6 26.4578V27.7306C13.6 28.4335 14.2715 29.0034 15.1 29.0034C15.9284 29.0034 16.6 28.4335 16.6 27.7306V26.4578H13.6ZM30.4 26.458V27.7308C30.4 28.4337 29.7285 29.0036 28.9 29.0036C28.0716 29.0036 27.4 28.4337 27.4 27.7308V26.458H30.4Z" stroke="currentColor" stroke-width="2" stroke-linecap="round" stroke-linejoin="round"/>
</svg>
