<svg width="32" height="32" viewBox="0 0 32 32" fill="none" xmlns="http://www.w3.org/2000/svg">
<path fill-rule="evenodd" clip-rule="evenodd" d="M12.2913 10.1515C13.4393 9.00219 13.4393 7.13759 12.2913 5.98828L9.16805 2.86491C8.01878 1.7156 6.15424 1.7156 5.00369 2.86491L3.29315 4.57805C1.80661 6.06464 1.57625 8.38108 2.73443 10.1337C7.70951 17.6557 14.3468 24.2932 21.8686 29.2697C23.6186 30.4267 25.9438 30.195 27.4253 28.7122L29.1371 26.9991C30.2876 25.8498 30.2876 23.9852 29.1371 22.8372L26.0151 19.7151C24.8671 18.5632 23.0026 18.5632 21.852 19.7151L20.8109 20.7549C17.3873 17.9497 14.0553 14.6164 11.2502 11.1913L12.2913 10.1515V10.1515Z" stroke="currentColor" stroke-width="2" stroke-linecap="round" stroke-linejoin="round"/>
</svg>
