<svg width="32" height="32" viewBox="0 0 32 32" fill="none" xmlns="http://www.w3.org/2000/svg">
<path d="M14.9998 3.00049C14.9998 3.55277 15.4475 4.00049 15.9998 4.00049C16.552 4.00049 16.9998 3.55277 16.9998 3.00049H14.9998ZM16.9998 1.00049C16.9998 0.448204 16.552 0.000488281 15.9998 0.000488281C15.4475 0.000488281 14.9998 0.448204 14.9998 1.00049H16.9998ZM23.8889 5.71177C23.5005 6.10433 23.5038 6.73749 23.8964 7.12596C24.2889 7.51443 24.9221 7.51111 25.3106 7.11854L23.8889 5.71177ZM26.7105 5.70388C27.0989 5.31131 27.0956 4.67815 26.703 4.28968C26.3105 3.90121 25.6773 3.90453 25.2889 4.2971L26.7105 5.70388ZM27.4998 14.0005C26.9475 14.0005 26.4998 14.4482 26.4998 15.0005C26.4998 15.5528 26.9475 16.0005 27.4998 16.0005V14.0005ZM29.4998 16.0005C30.052 16.0005 30.4998 15.5528 30.4998 15.0005C30.4998 14.4482 30.052 14.0005 29.4998 14.0005V16.0005ZM25.307 22.8934C24.9165 22.5029 24.2833 22.5028 23.8928 22.8934C23.5022 23.2839 23.5022 23.917 23.8927 24.3076L25.307 22.8934ZM25.2926 25.7076C25.6831 26.0981 26.3163 26.0982 26.7068 25.7077C27.0974 25.3171 27.0974 24.684 26.7069 24.2934L25.2926 25.7076ZM6.70732 7.12226C7.09784 7.51279 7.73101 7.51279 8.12153 7.12226C8.51205 6.73174 8.51205 6.09857 8.12153 5.70805L6.70732 7.12226ZM6.70686 4.29338C6.31634 3.90286 5.68317 3.90286 5.29265 4.29338C4.90212 4.68391 4.90212 5.31707 5.29265 5.7076L6.70686 4.29338ZM4.49976 16.0005C5.05204 16.0005 5.49976 15.5528 5.49976 15.0005C5.49976 14.4482 5.05204 14.0005 4.49976 14.0005V16.0005ZM2.49976 14.0005C1.94747 14.0005 1.49976 14.4482 1.49976 15.0005C1.49976 15.5528 1.94747 16.0005 2.49976 16.0005V14.0005ZM8.11784 24.3113C8.51039 23.9228 8.51369 23.2896 8.1252 22.8971C7.73671 22.5045 7.10355 22.5012 6.711 22.8897L8.11784 24.3113ZM5.29634 24.2897C4.90379 24.6782 4.90049 25.3114 5.28898 25.7039C5.67747 26.0965 6.31062 26.0998 6.70317 25.7113L5.29634 24.2897ZM16.9998 26.9979C16.9998 26.4456 16.552 25.9979 15.9998 25.9979C15.4475 25.9979 14.9998 26.4456 14.9998 26.9979H16.9998ZM14.9998 29.9979C14.9998 30.5502 15.4475 30.9979 15.9998 30.9979C16.552 30.9979 16.9998 30.5502 16.9998 29.9979H14.9998ZM12.0012 21.5005L11.5007 22.3662C11.6528 22.4542 11.8255 22.5005 12.0012 22.5005V21.5005ZM19.9983 21.5005V22.5005C20.174 22.5005 20.3467 22.4542 20.4988 22.3662L19.9983 21.5005ZM16.9998 3.00049V1.00049H14.9998V3.00049H16.9998ZM25.3106 7.11854L26.7105 5.70388L25.2889 4.2971L23.8889 5.71177L25.3106 7.11854ZM27.4998 16.0005H29.4998V14.0005H27.4998V16.0005ZM23.8927 24.3076L25.2926 25.7076L26.7069 24.2934L25.307 22.8934L23.8927 24.3076ZM8.12153 5.70805L6.70686 4.29338L5.29265 5.7076L6.70732 7.12226L8.12153 5.70805ZM4.49976 14.0005H2.49976V16.0005H4.49976V14.0005ZM6.711 22.8897L5.29634 24.2897L6.70317 25.7113L8.11784 24.3113L6.711 22.8897ZM14.9998 26.9979V29.9979H16.9998V26.9979H14.9998ZM24.9998 14.5038C24.9998 9.53326 20.9703 5.50382 15.9998 5.50382V7.50382C19.8657 7.50382 22.9998 10.6378 22.9998 14.5038H24.9998ZM15.9998 5.50382C11.0292 5.50382 6.99976 9.53326 6.99976 14.5038H8.99976C8.99976 10.6378 12.1338 7.50382 15.9998 7.50382V5.50382ZM6.99976 14.5038C6.99976 17.8279 8.80417 20.8072 11.5007 22.3662L12.5018 20.6348C10.4143 19.4278 8.99976 17.1032 8.99976 14.5038H6.99976ZM20.4988 22.3662C23.1953 20.8072 24.9998 17.8279 24.9998 14.5038H22.9998C22.9998 17.1032 21.5853 19.4278 19.4977 20.6348L20.4988 22.3662ZM12.0012 22.5005H19.9983V20.5005H12.0012V22.5005ZM18.9998 21.2645V24.9978H20.9998V21.2645H18.9998ZM17.9998 25.9978H13.9998V27.9978H17.9998V25.9978ZM12.9998 24.9978V21.2645H10.9998V24.9978H12.9998ZM13.9998 25.9978C13.4475 25.9978 12.9998 25.5501 12.9998 24.9978H10.9998C10.9998 26.6547 12.3429 27.9978 13.9998 27.9978V25.9978ZM18.9998 24.9978C18.9998 25.5501 18.552 25.9978 17.9998 25.9978V27.9978C19.6566 27.9978 20.9998 26.6547 20.9998 24.9978H18.9998Z" fill="currentColor"/>
</svg>
