<svg width="32" height="32" viewBox="0 0 32 32" fill="none" xmlns="http://www.w3.org/2000/svg">
<path d="M30.0012 1.00293L18.0012 13.0029M30.0012 1.00293H22.0012M30.0012 1.00293V9.00293M16.242 29.07L16.2551 29.0792C18.5896 30.5658 21.6434 30.2304 23.5996 28.2726L24.4246 27.4475C25.1931 26.6794 25.1935 25.4337 24.4255 24.6651L20.9451 21.187C20.1771 20.4184 18.9314 20.418 18.1629 21.1861C17.3947 21.9541 16.1485 21.955 15.3803 21.187L9.81679 15.6216C9.0488 14.8533 9.04879 13.6079 9.81679 12.8395C10.5853 12.0714 10.5857 10.8257 9.81768 10.0571L6.33862 6.57898C5.57039 5.81091 4.3251 5.81091 3.55687 6.57898L2.73061 7.40402C0.773408 9.36081 0.438588 12.4149 1.92533 14.7493L1.9332 14.7624C5.74474 20.4023 10.602 25.2591 16.242 29.07Z" stroke="currentColor" stroke-width="2" stroke-linecap="round" stroke-linejoin="round"/>
</svg>
