<svg width="32" height="32" viewBox="0 0 32 32" fill="none" xmlns="http://www.w3.org/2000/svg">
<path d="M27 13.0029L30.2933 16.2963C30.7454 16.7487 30.9996 17.362 31 18.0016V21.0029C31 22.1075 30.1046 23.0029 29 23.0029H3C2.46957 23.0029 1.96086 22.7922 1.58579 22.4171C1.21071 22.0421 1 21.5334 1 21.0029V18.0016C1.0004 17.362 1.25455 16.7487 1.70667 16.2963L5 13.0029M27 13.0029H5M27 13.0029L29 11.0029H31M5 13.0029L7.26667 6.9496C7.70581 5.77739 8.8269 5.0013 10.0787 5.00293H21.9213C23.1716 5.00296 24.2907 5.77876 24.7293 6.9496L26.996 13.0029L5 13.0029ZM5 13.0029L3 11.0029H1M2 17.0029H7.09353C7.6383 17.003 8.16074 17.2136 8.54608 17.5883L10 19.0029M30 17.0029H24.9065C24.3617 17.003 23.8393 17.2136 23.4539 17.5883L22 19.0029M2.33203 23.0029V25.0029C2.33203 26.1075 3.22746 27.0029 4.33203 27.0029C5.4366 27.0029 6.33203 26.1075 6.33203 25.0029V23.0029H2.33203ZM28.332 23.0029V25.0029C28.332 26.1075 27.4366 27.0029 26.332 27.0029C25.2275 27.0029 24.332 26.1075 24.332 25.0029V23.0029H28.332Z" stroke="currentColor" stroke-width="2" stroke-linecap="round" stroke-linejoin="round"/>
</svg>
