<svg width="32" height="32" viewBox="0 0 32 32" fill="none" xmlns="http://www.w3.org/2000/svg">
<path d="M15.0015 12.0029C15.0015 12.5552 15.4492 13.0029 16.0015 13.0029C16.5537 13.0029 17.0015 12.5552 17.0015 12.0029H15.0015ZM17.0015 11.0029C17.0015 10.4506 16.5537 10.0029 16.0015 10.0029C15.4492 10.0029 15.0015 10.4506 15.0015 11.0029H17.0015ZM15.0015 25.0029C15.0015 25.5552 15.4492 26.0029 16.0015 26.0029C16.5537 26.0029 17.0015 25.5552 17.0015 25.0029H15.0015ZM17.0015 24.0029C17.0015 23.4506 16.5537 23.0029 16.0015 23.0029C15.4492 23.0029 15.0015 23.4506 15.0015 24.0029H17.0015ZM24.0015 30.0029V31.0029C24.5537 31.0029 25.0015 30.5552 25.0015 30.0029H24.0015ZM8.00146 30.0029H7.00146C7.00146 30.5552 7.44918 31.0029 8.00146 31.0029V30.0029ZM8.00146 6.00293V5.00293H7.00146V6.00293H8.00146ZM24.0015 6.00293H25.0015V5.00293H24.0015V6.00293ZM4.80147 13.0029C5.35375 13.0029 5.80147 12.5552 5.80147 12.0029C5.80147 11.4506 5.35375 11.0029 4.80147 11.0029V13.0029ZM2.9348 12.0029L2.9348 13.0029H2.9348V12.0029ZM2.00146 3.00293L1.00146 3.00293V3.00293H2.00146ZM29.0681 2.00293L29.0681 3.00293L29.0681 3.00293L29.0681 2.00293ZM27.2015 11.0029C26.6492 11.0029 26.2015 11.4506 26.2015 12.0029C26.2015 12.5552 26.6492 13.0029 27.2015 13.0029V11.0029ZM17.0015 12.0029V11.0029H15.0015V12.0029H17.0015ZM17.0015 25.0029V24.0029H15.0015V25.0029H17.0015ZM8.00146 7.00293H24.0015V5.00293H8.00146V7.00293ZM24.0015 29.0029H8.00146V31.0029H24.0015V29.0029ZM9.00146 30.0029V6.00293H7.00146V30.0029H9.00146ZM23.0015 6.00293V30.0029H25.0015V6.00293H23.0015ZM4.80147 11.0029H2.9348V13.0029H4.80147V11.0029ZM2.9348 11.0029C2.95248 11.0029 2.97012 11.0071 2.98427 11.0135C2.99748 11.0195 3.00397 11.0257 3.00589 11.0277C3.0093 11.0314 3.00146 11.025 3.00146 11.0029H1.00146C1.00146 12.0414 1.80318 13.0029 2.9348 13.0029L2.9348 11.0029ZM3.00146 11.0029V3.00293H1.00146V11.0029H3.00146ZM3.00146 3.00293C3.00146 2.98083 3.0093 2.97448 3.00589 2.97814C3.00397 2.98019 2.99748 2.98636 2.98427 2.99235C2.97012 2.99876 2.95248 3.00293 2.9348 3.00293V1.00293C1.80319 1.00293 1.00146 1.96446 1.00146 3.00293L3.00146 3.00293ZM2.9348 3.00293H29.0681V1.00293H2.9348V3.00293ZM29.0681 3.00293C29.0505 3.00293 29.0328 2.99876 29.0187 2.99235C29.0054 2.98636 28.999 2.98019 28.997 2.97814C28.9936 2.97448 29.0015 2.98083 29.0015 3.00293H31.0015C31.0015 1.96446 30.1997 1.00293 29.0681 1.00293L29.0681 3.00293ZM29.0015 3.00293V11.0029H31.0015V3.00293H29.0015ZM29.0015 11.0029C29.0015 11.025 28.9936 11.0314 28.997 11.0277C28.999 11.0257 29.0055 11.0195 29.0187 11.0135C29.0328 11.0071 29.0505 11.0029 29.0681 11.0029V13.0029C30.1997 13.0029 31.0015 12.0414 31.0015 11.0029H29.0015ZM29.0681 11.0029H27.2015V13.0029H29.0681V11.0029ZM18.0015 18.0029C18.0015 19.1075 17.106 20.0029 16.0015 20.0029V22.0029C18.2106 22.0029 20.0015 20.2121 20.0015 18.0029H18.0015ZM16.0015 20.0029C14.8969 20.0029 14.0015 19.1075 14.0015 18.0029H12.0015C12.0015 20.2121 13.7923 22.0029 16.0015 22.0029V20.0029ZM14.0015 18.0029C14.0015 16.8984 14.8969 16.0029 16.0015 16.0029V14.0029C13.7923 14.0029 12.0015 15.7938 12.0015 18.0029H14.0015ZM16.0015 16.0029C17.106 16.0029 18.0015 16.8984 18.0015 18.0029H20.0015C20.0015 15.7938 18.2106 14.0029 16.0015 14.0029V16.0029Z" fill="currentColor"/>
</svg>
