<svg width="32" height="32" viewBox="0 0 32 32" fill="none" xmlns="http://www.w3.org/2000/svg">
<path d="M5.5 7C5.77614 7 6 7.22386 6 7.5M5.5 7C5.22386 7 5 7.22386 5 7.5M5.5 7V8M6 7.5C6 7.77614 5.77614 8 5.5 8M6 7.5H5M5.5 8C5.22386 8 5 7.77614 5 7.5M11 20H3C1.89543 20 1 19.1046 1 18V5C1 3.89543 1.89543 3 3 3H25C26.1046 3 27 3.89543 27 5V10M17 11.5C17 9.567 15.433 8 13.5 8C11.567 8 10 9.567 10 11.5C10 13.433 11.567 15 13.5 15M24 19L27 22M27 22L24 25M27 22L18.9999 22M31 22C31 26.4183 27.4183 30 23 30C18.5817 30 15 26.4183 15 22C15 17.5817 18.5817 14 23 14C27.4183 14 31 17.5817 31 22Z" stroke="currentColor" stroke-width="2" stroke-linecap="round" stroke-linejoin="round"/>
</svg>
