<svg width="32" height="32" viewBox="0 0 32 32" fill="none" xmlns="http://www.w3.org/2000/svg">
<path d="M18.4821 7.78167L17.7745 7.30584C16.5239 6.46491 14.8284 6.79699 13.9875 8.04755C13.1466 9.29812 13.4786 10.9936 14.7292 11.8345M14.7292 11.8345L17.0707 13.4091C18.904 14.6418 19.3908 17.1273 18.158 18.9605L17.3448 20.1698M14.7292 11.8345L13.9159 13.0444C12.6832 14.8776 13.17 17.3631 15.0032 18.5958L17.3448 20.1698M17.3448 20.1698C18.5954 21.0108 18.9274 22.7068 18.0865 23.9573C17.2456 25.2079 15.5501 25.54 14.2995 24.699L13.5919 24.2232M31 16.0029C31 24.2872 24.2843 31.0029 16 31.0029C7.71573 31.0029 1 24.2872 1 16.0029C1 7.71866 7.71573 1.00293 16 1.00293C24.2843 1.00293 31 7.71866 31 16.0029Z" stroke="currentColor" stroke-width="2" stroke-linecap="round" stroke-linejoin="round"/>
</svg>
