<svg width="32" height="32" viewBox="0 0 32 32" fill="none" xmlns="http://www.w3.org/2000/svg">
<path d="M3.00122 16.0029H7.00122M3.00122 7.00293H5.00122M5.00122 7.00293H7.00122M5.00122 7.00293V5.00293M5.00122 7.00293L5.00122 9.00293M3.00281 25.0029H5.00281M5.00281 25.0029H7.00281M5.00281 25.0029V23.0029M5.00281 25.0029V27.0029M14.0012 19.0029H26.0012C27.658 19.0029 29.0012 17.6598 29.0012 16.0029C29.0012 14.3461 27.658 13.0029 26.0012 13.0029H14.0012C12.3443 13.0029 11.0012 14.3461 11.0012 16.0029C11.0012 17.6598 12.3443 19.0029 14.0012 19.0029ZM14.0012 10.0029H26.0012C27.658 10.0029 29.0012 8.65978 29.0012 7.00293C29.0012 5.34608 27.658 4.00293 26.0012 4.00293H14.0012C12.3443 4.00293 11.0012 5.34608 11.0012 7.00293C11.0012 8.65978 12.3443 10.0029 14.0012 10.0029ZM14.0012 28.0029H26.0012C27.658 28.0029 29.0012 26.6598 29.0012 25.0029C29.0012 23.3461 27.658 22.0029 26.0012 22.0029H14.0012C12.3443 22.0029 11.0012 23.3461 11.0012 25.0029C11.0012 26.6598 12.3443 28.0029 14.0012 28.0029Z" stroke="currentColor" stroke-width="2" stroke-linecap="round"/>
</svg>
