<svg width="32" height="32" viewBox="0 0 32 32" fill="none" xmlns="http://www.w3.org/2000/svg">
<path d="M25.0009 19.0005V31.0007M31 25.0015H19M2.29997 1H11.7C11.7 1 13 1 13 2.29999V11.7002C13 11.7002 13 13.0002 11.7 13.0002H2.29997C2.29997 13.0002 1 13.0002 1 11.7002V2.29999C1 2.29999 1 1 2.29997 1ZM20.3 1H29.7C29.7 1 31 1 31 2.29999V11.7002C31 11.7002 31 13.0002 29.7 13.0002H20.3C20.3 13.0002 19 13.0002 19 11.7002V2.29999C19 2.29999 19 1 20.3 1ZM2.29997 19H11.7C11.7 19 13 19 13 20.3V29.7002C13 29.7002 13 31.0002 11.7 31.0002H2.29997C2.29997 31.0002 1 31.0002 1 29.7002V20.3C1 20.3 1 19 2.29997 19Z" stroke="currentColor" stroke-width="2" stroke-linecap="round" stroke-linejoin="round"/>
</svg>
