<svg width="32" height="32" viewBox="0 0 32 32" fill="none" xmlns="http://www.w3.org/2000/svg">
<path d="M22 16.0029C22 19.3166 19.3137 22.0029 16 22.0029C12.6863 22.0029 10 19.3166 10 16.0029C10 12.6892 12.6863 10.0029 16 10.0029C19.3137 10.0029 22 12.6892 22 16.0029ZM22 16.0029V18.8016C22 20.8636 24.2043 22.5352 26.2663 22.5352C28.3284 22.5352 30 20.8636 30 18.8016V16.0013C30 8.26935 23.732 2.00195 16 2.00195C8.26802 2.00195 2 8.26997 2 16.002C2 23.7339 8.26802 30.002 16 30.002C19.0288 30.002 21.9758 29.0197 24.399 27.2027" stroke="currentColor" stroke-width="2" stroke-linecap="round" stroke-linejoin="round"/>
</svg>
