<svg width="32" height="32" viewBox="0 0 32 32" fill="none" xmlns="http://www.w3.org/2000/svg">
<path d="M16 2.00293V11.4515M16 11.4515L11.9081 13.8137M16 11.4515L20.0919 13.8137M20.7243 3.89265L16 7.67208L11.2757 3.89265M3.72565 9.08937L11.9081 13.8137M11.9081 13.8137V18.538M7.72429 5.94236L8.63514 11.9239L3 14.1261M3.72565 23.2623L11.9081 18.538M11.9081 18.538L16 20.9001M3 18.2255L8.63514 20.4277L7.72429 26.4093M16 30.3487V20.9001M16 20.9001L20.0919 18.538M11.2757 28.459L16 24.6795L20.7243 28.459M28.2743 23.2623L20.0919 18.538M20.0919 18.538V13.8137M24.2757 26.4093L23.3649 20.4277L29 18.2255M28.2743 9.08937L20.0919 13.8137M29 14.1261L23.3649 11.9239L24.2757 5.94236" stroke="currentColor" stroke-width="2" stroke-linecap="round" stroke-linejoin="round"/>
</svg>
