<svg width="32" height="32" viewBox="0 0 32 32" fill="none" xmlns="http://www.w3.org/2000/svg">
<path d="M1 6.00293H31M26 1.00293V6.00293M21 1.00293V6.00293M23.5 15.5029L16 11.0029L8.5 15.5029L16 19.5029L23.5 15.5029ZM23.5 15.5029V19.5418M20.5 17.653V21.0182C20.4999 24.9142 11.5 25.0805 11.5 21.0182V17.653M23.5 22.0029V22.1029M3.66667 1.00293H28.3333C28.3333 1.00293 31 1.00293 31 3.6696V28.3363C31 28.3363 31 31.0029 28.3333 31.0029H3.66667C3.66667 31.0029 1 31.0029 1 28.3363V3.6696C1 3.6696 1 1.00293 3.66667 1.00293Z" stroke="currentColor" stroke-width="2" stroke-linecap="round" stroke-linejoin="round"/>
</svg>
