<svg width="32" height="32" viewBox="0 0 32 32" fill="none" xmlns="http://www.w3.org/2000/svg">
<path d="M9.5833 17.7529H2V14.2529H9.56525M17.7499 22.4197V30.003H14.2499V22.4197M22.4344 14.2529H29.9997V17.7529H22.4164M14.2499 9.56934V2.00293H17.7499V9.58624M17.7499 3.75293C23.1787 4.53101 27.4729 8.82285 28.2498 14.2529M3.75 14.2529C4.52791 8.82285 8.81996 4.53101 14.25 3.75293M14.25 28.2528C8.81996 27.4772 4.52791 23.1835 3.75 17.7529M28.2498 17.7529C27.4741 23.1835 23.1787 27.4772 17.7499 28.2528M16.0002 22.4194C19.544 22.4194 22.4168 19.5466 22.4168 16.0028C22.4168 12.459 19.544 9.58615 16.0002 9.58615C12.4564 9.58615 9.58356 12.459 9.58356 16.0028C9.58356 19.5466 12.4564 22.4194 16.0002 22.4194Z" stroke="currentColor" stroke-width="2" stroke-linecap="round" stroke-linejoin="round"/>
</svg>
