<svg width="32" height="32" viewBox="0 0 32 32" fill="none" xmlns="http://www.w3.org/2000/svg">
<path d="M23.168 24.4469C23.4132 24.9418 24.0131 25.1442 24.508 24.899C25.0029 24.6538 25.2052 24.0538 24.96 23.559L23.168 24.4469ZM7.03463 23.559C6.78942 24.0538 6.99181 24.6538 7.48667 24.899C7.98154 25.1442 8.58149 24.9418 8.8267 24.4469L7.03463 23.559ZM16 32.0029C24.8366 32.0029 32 24.8395 32 16.0029H30C30 23.7349 23.732 30.0029 16 30.0029V32.0029ZM32 16.0029C32 7.16637 24.8366 0.00292969 16 0.00292969V2.00293C23.732 2.00293 30 8.27094 30 16.0029H32ZM16 0.00292969C7.16344 0.00292969 0 7.16637 0 16.0029H2C2 8.27094 8.26801 2.00293 16 2.00293V0.00292969ZM0 16.0029C0 24.8395 7.16344 32.0029 16 32.0029V30.0029C8.26801 30.0029 2 23.7349 2 16.0029H0ZM24.96 23.559C23.2721 20.1525 19.799 17.9974 15.9973 17.9974V19.9974C19.0389 19.9974 21.8175 21.7216 23.168 24.4469L24.96 23.559ZM15.9973 17.9974C12.1956 17.9974 8.72256 20.1525 7.03463 23.559L8.8267 24.4469C10.1771 21.7216 12.9558 19.9974 15.9973 19.9974V17.9974ZM11 12.5029C10.7239 12.5029 10.5 12.2791 10.5 12.0029H12.5C12.5 11.1745 11.8284 10.5029 11 10.5029V12.5029ZM10.5 12.0029C10.5 11.7268 10.7239 11.5029 11 11.5029V13.5029C11.8284 13.5029 12.5 12.8314 12.5 12.0029H10.5ZM11 11.5029C11.2761 11.5029 11.5 11.7268 11.5 12.0029H9.5C9.5 12.8314 10.1716 13.5029 11 13.5029V11.5029ZM11.5 12.0029C11.5 12.2791 11.2761 12.5029 11 12.5029V10.5029C10.1716 10.5029 9.5 11.1745 9.5 12.0029H11.5ZM21 12.5029C20.7239 12.5029 20.5 12.2791 20.5 12.0029H22.5C22.5 11.1745 21.8284 10.5029 21 10.5029V12.5029ZM20.5 12.0029C20.5 11.7268 20.7239 11.5029 21 11.5029V13.5029C21.8284 13.5029 22.5 12.8314 22.5 12.0029H20.5ZM21 11.5029C21.2761 11.5029 21.5 11.7268 21.5 12.0029H19.5C19.5 12.8314 20.1716 13.5029 21 13.5029V11.5029ZM21.5 12.0029C21.5 12.2791 21.2761 12.5029 21 12.5029V10.5029C20.1716 10.5029 19.5 11.1745 19.5 12.0029H21.5ZM20.0001 10.9804V13.0254H22.0001V10.9804H20.0001ZM10 10.9804V13.0254H12V10.9804H10Z" fill="currentColor"/>
</svg>
