<svg width="32" height="32" viewBox="0 0 32 32" fill="none" xmlns="http://www.w3.org/2000/svg">
<path d="M12.2664 11.734C12.2667 9.83548 13.6918 8.23958 15.5782 8.02522C17.4645 7.81086 19.2113 9.04631 19.6377 10.8963C20.064 12.7463 19.034 14.6217 17.2441 15.2545C16.498 15.5183 15.9993 16.224 15.9997 17.0154V18.2673M16 21.9933C15.7405 21.9933 15.53 22.2037 15.53 22.4633M16 21.9933C16.2596 21.9933 16.47 22.2037 16.47 22.4633M16 21.9933V22.9333M15.53 22.4633C15.53 22.7229 15.7405 22.9333 16 22.9333M15.53 22.4633H16.47M16 22.9333C16.2596 22.9333 16.47 22.7229 16.47 22.4633M25.8995 6.10161C31.3668 11.5689 31.3668 20.4332 25.8995 25.9006C20.4321 31.3679 11.5678 31.3679 6.10051 25.9006C0.633164 20.4332 0.633164 11.5689 6.10051 6.10161C11.5678 0.634263 20.4321 0.634263 25.8995 6.10161Z" stroke="currentColor" stroke-width="2" stroke-linecap="round" stroke-linejoin="round"/>
</svg>
