<svg width="32" height="32" viewBox="0 0 32 32" fill="none" xmlns="http://www.w3.org/2000/svg">
<path d="M9 11.0029V28.1029C9 28.6 9.39175 29.0029 9.875 29.0029H22.125C22.6082 29.0029 23 28.6 23 28.1029V11.0029M24.0571 17.0029H27.1429C27.6162 17.0029 28 16.6112 28 16.1279V10.0029C28 6.13694 24.93 3.00293 21.1429 3.00293H19.4286C19.4286 4.93593 17.8935 6.50293 16 6.50293C14.1065 6.50293 12.5714 4.93593 12.5714 3.00293H10.8571C7.07005 3.00293 4 6.13694 4 10.0029V16.1279C4 16.6112 4.38376 17.0029 4.85714 17.0029H7.94286" stroke="currentColor" stroke-width="2" stroke-linecap="round" stroke-linejoin="round"/>
</svg>
