<svg width="32" height="32" viewBox="0 0 32 32" fill="none" xmlns="http://www.w3.org/2000/svg">
<path d="M25.2403 12.6699L27.083 12.8176C27.6741 12.865 27.9138 13.6027 27.4634 13.9885L22.0156 18.6552C21.8257 18.8178 21.7428 19.073 21.8008 19.3161L23.4652 26.2937C23.6028 26.8706 22.9753 27.3265 22.4692 27.0174L16.3475 23.2782C16.1341 23.1479 15.8658 23.1479 15.6525 23.2782L11.6719 25.7095M17.9929 8.52438L16.6155 5.21273C16.3877 4.6652 15.6121 4.6652 15.3844 5.21273L12.6296 11.836C12.5336 12.0669 12.3165 12.2246 12.0673 12.2445L4.91691 12.8178C4.3258 12.8652 4.08612 13.6029 4.53648 13.9886L8.6502 17.5125M3.5 28.002L28.5 4.00195" stroke="currentColor" stroke-width="2" stroke-linecap="round" stroke-linejoin="round"/>
</svg>
