<svg width="32" height="32" viewBox="0 0 32 32" fill="none" xmlns="http://www.w3.org/2000/svg">
<path d="M7 27.0029V29.5029M25 27.0029V29.5029M6 12.0016H8M6 19.0016H8M4.63801 27.0029C3.71618 27.0029 3.00098 26.2497 3.00098 25.3029V4.70293C3.00098 3.75616 3.71618 3.00293 4.63801 3.00293H27.3639C28.2858 3.00293 29.001 3.75616 29.001 4.70293V25.3029C29.001 26.2405 28.2858 27.0029 27.3639 27.0029H4.63801ZM9.69853 23.0029C8.75966 23.0029 7.99854 22.2033 7.99854 21.3197V8.51968C7.99854 7.63603 8.75966 7.00293 9.69853 7.00293H23.2985C24.2374 7.00293 24.9985 7.63603 24.9985 8.51968V21.3197C24.9985 22.2033 24.2374 23.0029 23.2985 23.0029H9.69853ZM18.6198 12.8816C19.7914 14.0532 19.7914 15.9527 18.6198 17.1242C17.4483 18.2958 15.5488 18.2958 14.3772 17.1242C13.2056 15.9527 13.2056 14.0532 14.3772 12.8816C15.5488 11.71 17.4483 11.71 18.6198 12.8816Z" stroke="currentColor" stroke-width="2" stroke-linecap="round" stroke-linejoin="round"/>
</svg>
