<svg width="32" height="32" viewBox="0 0 32 32" fill="none" xmlns="http://www.w3.org/2000/svg">
<path d="M19 7.00281H14L11.6 3.80281C11.4137 3.55442 11.1721 3.35281 10.8944 3.21395C10.6167 3.0751 10.3105 3.00281 10 3.00281H3C2.46957 3.00281 1.96086 3.21352 1.58579 3.58859C1.21071 3.96367 1 4.47237 1 5.00281V27.0028C1 27.5332 1.21071 28.0419 1.58579 28.417C1.96086 28.7921 2.46957 29.0028 3 29.0028H29C29.5304 29.0028 30.0391 28.7921 30.4142 28.417C30.7893 28.0419 31 27.5332 31 27.0028V9.00281C31 8.47237 30.7893 7.96367 30.4142 7.58859C30.0391 7.21352 29.5304 7.00281 29 7.00281H27M27 18.0028L23 15.0028L19 18.0028V6.00281C19 5.73759 19.1054 5.48324 19.2929 5.2957C19.4804 5.10816 19.7348 5.00281 20 5.00281H26C26.2652 5.00281 26.5196 5.10816 26.7071 5.2957C26.8946 5.48324 27 5.73759 27 6.00281V18.0028Z" stroke="currentColor" stroke-width="2" stroke-linecap="round" stroke-linejoin="round"/>
</svg>
