<svg width="32" height="32" viewBox="0 0 32 32" fill="none" xmlns="http://www.w3.org/2000/svg">
<path d="M25.8995 6.10344C31.3668 11.5708 31.3668 20.4351 25.8995 25.9024C20.4322 31.3698 11.5678 31.3698 6.10051 25.9024C0.633164 20.4351 0.633164 11.5708 6.10051 6.10344C11.5678 0.636094 20.4322 0.636094 25.8995 6.10344Z" stroke="currentColor" stroke-width="2" stroke-linecap="round" stroke-linejoin="round"/>
<path d="M12.0017 20.604C12.0026 21.7539 12.9356 22.6854 14.0856 22.6844C14.5886 22.684 15.0744 22.5015 15.4533 22.1707L23.0002 16.0056L15.4533 9.83671C14.5886 9.07967 13.2739 9.16695 12.5169 10.0316C12.1845 10.4113 12.0014 10.8988 12.0016 11.4034L12.0017 20.604Z" stroke="currentColor" stroke-width="2" stroke-linecap="round" stroke-linejoin="round"/>
</svg>
