<svg width="32" height="32" viewBox="0 0 32 32" fill="none" xmlns="http://www.w3.org/2000/svg">
<path d="M15.9798 24.5004C21.0465 24.5004 24.4398 22.5695 26.2872 20.7029C27.7538 21.3695 29.0332 22.3029 30.4998 23.5029C25.4332 28.0029 20.6465 27.5671 15.9798 24.5004ZM15.9798 24.5004C10.9598 24.5004 7.35384 22.5695 5.62051 20.7029C4.15384 21.2362 2.96651 22.3029 1.49984 23.5029C6.55984 28.0029 11.1598 27.5671 15.9798 24.5004ZM11.4573 13.6467C11.4573 11.9837 11.9161 10.6696 12.4896 9.05904C10.8896 7.7257 8.95384 6.80293 6.55383 6.00293C6.15383 7.73626 6.0205 9.13626 6.0205 10.6029C8.27464 11.2575 9.79431 12.2131 11.4573 13.6467ZM20.5005 13.6467C20.5005 11.9837 20.0418 10.6696 19.4683 9.05904C21.0683 7.7257 23.004 6.80293 25.404 6.00293C25.804 7.73626 25.9374 9.13626 25.9374 10.6029C23.6832 11.2575 22.1636 12.2131 20.5005 13.6467ZM15.9799 4.00293C9.47977 11.0029 10.4798 17.8029 15.9799 24.5029C21.4798 17.8029 22.4799 11.0029 15.9799 4.00293ZM1.35358 10.0029C1.08691 10.1363 1.71033 24.6405 15.977 24.5072C13.177 21.0405 11.3203 17.4735 11.4536 13.7402C9.0536 11.3402 5.88691 10.1363 1.35358 10.0029ZM30.62 10.0029C30.8867 10.1363 30.2633 24.6405 15.9966 24.5072C18.7966 21.0405 20.6534 17.4735 20.52 13.7402C22.92 11.3402 26.0867 10.1363 30.62 10.0029Z" stroke="currentColor" stroke-width="2" stroke-miterlimit="10" stroke-linecap="round" stroke-linejoin="round"/>
</svg>
