<svg width="32" height="32" viewBox="0 0 32 32" fill="none" xmlns="http://www.w3.org/2000/svg">
<path d="M10.0001 20.0029C9.4478 20.0029 9.00008 20.4506 9.00008 21.0029C9.00008 21.5552 9.4478 22.0029 10.0001 22.0029V20.0029ZM22.0001 22.0029C22.5524 22.0029 23.0001 21.5552 23.0001 21.0029C23.0001 20.4506 22.5524 20.0029 22.0001 20.0029V22.0029ZM16 32.0029C24.8366 32.0029 32 24.8395 32 16.0029H30C30 23.7349 23.732 30.0029 16 30.0029V32.0029ZM32 16.0029C32 7.16637 24.8366 0.00292969 16 0.00292969V2.00293C23.732 2.00293 30 8.27094 30 16.0029H32ZM16 0.00292969C7.16344 0.00292969 0 7.16637 0 16.0029H2C2 8.27094 8.26801 2.00293 16 2.00293V0.00292969ZM0 16.0029C0 24.8395 7.16344 32.0029 16 32.0029V30.0029C8.26801 30.0029 2 23.7349 2 16.0029H0ZM11.0001 12.5029C10.7239 12.5029 10.5001 12.2791 10.5001 12.0029H12.5001C12.5001 11.1745 11.8285 10.5029 11.0001 10.5029V12.5029ZM10.5001 12.0029C10.5001 11.7268 10.7239 11.5029 11.0001 11.5029V13.5029C11.8285 13.5029 12.5001 12.8314 12.5001 12.0029H10.5001ZM11.0001 11.5029C11.2762 11.5029 11.5001 11.7268 11.5001 12.0029H9.50008C9.50008 12.8314 10.1717 13.5029 11.0001 13.5029V11.5029ZM11.5001 12.0029C11.5001 12.2791 11.2762 12.5029 11.0001 12.5029V10.5029C10.1717 10.5029 9.50008 11.1745 9.50008 12.0029H11.5001ZM21.0001 12.5029C20.7239 12.5029 20.5001 12.2791 20.5001 12.0029H22.5001C22.5001 11.1745 21.8285 10.5029 21.0001 10.5029V12.5029ZM20.5001 12.0029C20.5001 11.7268 20.7239 11.5029 21.0001 11.5029V13.5029C21.8285 13.5029 22.5001 12.8314 22.5001 12.0029H20.5001ZM21.0001 11.5029C21.2762 11.5029 21.5001 11.7268 21.5001 12.0029H19.5001C19.5001 12.8314 20.1717 13.5029 21.0001 13.5029V11.5029ZM21.5001 12.0029C21.5001 12.2791 21.2762 12.5029 21.0001 12.5029V10.5029C20.1717 10.5029 19.5001 11.1745 19.5001 12.0029H21.5001ZM10.0001 22.0029H22.0001V20.0029H10.0001V22.0029ZM10.0076 11.4144V12.6683H12.0076V11.4144H10.0076ZM20.014 11.4144V12.6683H22.014V11.4144H20.014Z" fill="currentColor"/>
</svg>
