<svg width="32" height="32" viewBox="0 0 32 32" fill="none" xmlns="http://www.w3.org/2000/svg">
<path d="M28.0017 25.0065C32.973 18.3787 31.6301 8.97581 25.0023 4.00448C18.3745 -0.966817 8.97166 0.376023 4.00033 7.00381C-0.970967 13.6316 0.371873 23.0345 6.99966 28.0058C9.59661 29.9537 12.7554 31.0066 16.0017 31.0065C21.8923 31.0065 24.5963 28.1585 22.955 23.8811M18.7949 23.3492H18.8052C20.4582 24.4014 22.6203 24.1639 24.0054 22.7778L24.5909 22.1935C25.1347 21.6491 25.1347 20.7671 24.5909 20.2228L22.1295 17.7611C21.5852 17.2172 20.7033 17.2172 20.159 17.7611C19.6143 18.305 18.732 18.305 18.1873 17.7611L14.2464 13.8184C13.7026 13.2741 13.7026 12.3921 14.2464 11.8477C14.7902 11.3034 14.7902 10.4214 14.2464 9.87707L11.7849 7.41535C11.2428 6.86866 10.3602 6.865 9.81359 7.40718C9.81172 7.40903 9.80985 7.41089 9.80799 7.41276L9.22243 7.99709C7.83765 9.38358 7.60075 11.5456 8.65241 13.1991V13.2082C11.3542 17.2056 14.7972 20.6481 18.7949 23.3492Z" stroke="currentColor" stroke-width="2" stroke-linecap="round" stroke-linejoin="round"/>
</svg>
