<svg width="32" height="32" viewBox="0 0 32 32" fill="none" xmlns="http://www.w3.org/2000/svg">
<path d="M26.4005 16.0029V12.5363C26.4005 7.27115 21.7442 3.00293 16.0005 3.00293C10.2567 3.00293 5.60046 7.27115 5.60046 12.5363V16.0029M6.25046 27.7029V29.0029M25.7505 27.7029V29.0029M14.5507 10.9983L18.104 14.5516M18.104 10.9983L14.5507 14.5516M29 19.6041C29.0006 17.9466 27.911 16.5029 26.3609 16.1073C24.8108 15.7117 23.2009 16.4665 22.4616 17.9356C21.7223 19.4047 22.0447 21.2081 23.2425 22.3037H8.76021C9.88871 21.2695 10.2455 19.5973 9.64332 18.1648C9.04112 16.7324 7.61755 15.8673 6.11996 16.0235C4.62237 16.1798 3.39304 17.3218 3.07734 18.85C2.76164 20.3782 3.43173 21.9433 4.73583 22.7237V25.9032C4.73583 26.8972 5.51179 27.7029 6.46898 27.7029H25.5337C26.4909 27.7029 27.2668 26.8972 27.2668 25.9032V22.7237C28.34 22.0803 29.0008 20.8909 29 19.6041Z" stroke="currentColor" stroke-width="2" stroke-linecap="round" stroke-linejoin="round"/>
</svg>
