<svg width="32" height="32" viewBox="0 0 32 32" fill="none" xmlns="http://www.w3.org/2000/svg">
<path d="M8.99805 16.0029C8.99805 16.5552 8.55033 17.0029 7.99805 17.0029C7.44576 17.0029 6.99805 16.5552 6.99805 16.0029C6.99805 15.4506 7.44576 15.0029 7.99805 15.0029C8.55033 15.0029 8.99805 15.4506 8.99805 16.0029Z" stroke="currentColor" stroke-width="2"/>
<path d="M17 16.0024C17 16.5547 16.5523 17.0024 16 17.0024C15.4477 17.0024 15 16.5547 15 16.0024C15 15.4502 15.4477 15.0024 16 15.0024C16.5523 15.0024 17 15.4502 17 16.0024Z" stroke="currentColor" stroke-width="2"/>
<path d="M25.002 16.0029C25.002 16.5552 24.5543 17.0029 24.002 17.0029C23.4497 17.0029 23.002 16.5552 23.002 16.0029C23.002 15.4506 23.4497 15.0029 24.002 15.0029C24.5543 15.0029 25.002 15.4506 25.002 16.0029Z" stroke="currentColor" stroke-width="2"/>
</svg>
