<svg width="32" height="32" viewBox="0 0 32 32" fill="none" xmlns="http://www.w3.org/2000/svg">
<path d="M18.1696 22.7117C18.478 23.1699 19.0994 23.2913 19.5576 22.9829C20.0157 22.6744 20.1371 22.053 19.8287 21.5949L18.1696 22.7117ZM16.1413 17.908L16.9708 17.3495C16.9601 17.3336 16.949 17.3181 16.9374 17.3028L16.1413 17.908ZM16.0804 17.1814L16.9663 17.6452L16.9668 17.6444L16.0804 17.1814ZM16.7121 16.8173L16.6697 17.8164C16.6838 17.817 16.6979 17.8173 16.7121 17.8173L16.7121 16.8173ZM18.235 16.8173L18.2774 15.8182C18.2633 15.8176 18.2491 15.8173 18.235 15.8173V16.8173ZM18.5956 16.7316L18.109 15.8579L18.1087 15.8581L18.5956 16.7316ZM18.8581 16.47L19.73 16.9596L19.7307 16.9583L18.8581 16.47ZM18.9446 16.1097L17.9454 16.1489L17.9454 16.1489L18.9446 16.1097ZM18.8298 15.7573L19.6602 15.2001C19.6546 15.1918 19.649 15.1837 19.6432 15.1756L18.8298 15.7573ZM13.9969 8.99998V7.99998C13.6222 7.99998 13.279 8.20945 13.1076 8.54267C12.9363 8.87589 12.9656 9.27694 13.1835 9.58171L13.9969 8.99998ZM16.9975 8.99998V9.99998C17.3705 9.99998 17.7126 9.79229 17.8847 9.46126C18.0568 9.13023 18.0303 8.73093 17.816 8.42553L16.9975 8.99998ZM11.5965 1.30399L12.4151 0.729496L12.4079 0.719508L11.5965 1.30399ZM10.6686 1.08024L10.2128 0.190148L10.2128 0.190172L10.6686 1.08024ZM10.4083 1.30399L9.5968 0.71947L9.59025 0.72878L10.4083 1.30399ZM4.99661 8.99998L4.1786 8.42477C3.9639 8.7301 3.93712 9.12959 4.10914 9.46085C4.28116 9.7921 4.62335 9.99998 4.99661 9.99998V8.99998ZM7.99582 8.99998L8.79577 9.60005C9.02307 9.29704 9.05965 8.89161 8.89027 8.55281C8.72088 8.214 8.37461 7.99998 7.99582 7.99998V8.99998ZM1.99473 17L1.19478 16.3999C0.967482 16.7029 0.930897 17.1083 1.10028 17.4472C1.26967 17.786 1.61594 18 1.99473 18V17ZM5.99546 17L6.84761 17.5233C7.0371 17.2147 7.04497 16.8278 6.86818 16.5118C6.69139 16.1957 6.35757 16 5.99546 16V17ZM1.13856 24.9093L1.93485 25.5142C1.95481 25.488 1.97345 25.4607 1.99071 25.4326L1.13856 24.9093ZM1.00236 25.2641L0.00583096 25.1809L0.0058301 25.1809L1.00236 25.2641ZM1.07781 25.6365L0.192107 26.1008L0.192334 26.1012L1.07781 25.6365ZM1.34134 25.9103L1.83957 25.0432L1.83875 25.0427L1.34134 25.9103ZM1.71066 26V25C1.69553 25 1.6804 25.0003 1.66528 25.001L1.71066 26ZM17.9976 27C18.5499 27 18.9976 26.5523 18.9976 26C18.9976 25.4477 18.5499 25 17.9976 25V27ZM11.9977 26C11.9977 25.4477 11.55 25 10.9977 25C10.4454 25 9.99767 25.4477 9.99767 26H11.9977ZM9.99767 31C9.99767 31.5523 10.4454 32 10.9977 32C11.55 32 11.9977 31.5523 11.9977 31H9.99767ZM6.4317 9.94609C5.8828 10.0071 5.48729 10.5015 5.54831 11.0504C5.60933 11.5993 6.10376 11.9949 6.65267 11.9338L6.4317 9.94609ZM14.8449 11.0232C15.3938 10.9622 15.7893 10.4677 15.7283 9.91881C15.6672 9.36991 15.1728 8.9744 14.6239 9.03542L14.8449 11.0232ZM4.65632 18.0288C4.10666 18.0827 3.70475 18.5719 3.75862 19.1216C3.81249 19.6712 4.30175 20.0731 4.8514 20.0193L4.65632 18.0288ZM25.0004 31C25.0004 31.5523 25.4481 32 26.0004 32C26.5527 32 27.0004 31.5523 27.0004 31H25.0004ZM21.9997 26C21.4474 26 20.9997 26.4477 20.9997 27C20.9997 27.5523 21.4474 28 21.9997 28V26ZM30.0012 28C30.5534 28 31.0012 27.5523 31.0012 27C31.0012 26.4477 30.5534 26 30.0012 26V28ZM24.8321 19.4452C24.5257 18.9857 23.9048 18.8616 23.4453 19.168C22.9858 19.4744 22.8617 20.0953 23.1681 20.5548L24.8321 19.4452ZM28.8328 20.5548C29.1392 20.0953 29.0151 19.4744 28.5556 19.168C28.0961 18.8616 27.4752 18.9857 27.1688 19.4452L28.8328 20.5548ZM16.3249 0.05518C15.8031 -0.125743 15.2334 0.1506 15.0525 0.67241C14.8715 1.19422 15.1479 1.7639 15.6697 1.94482L16.3249 0.05518ZM31.1531 3.988C31.6988 3.9027 32.072 3.39121 31.9867 2.84555C31.9014 2.29989 31.3899 1.9267 30.8442 2.012L31.1531 3.988ZM30.001 3.20402C30.001 2.65174 29.5533 2.20402 29.001 2.20402C28.4487 2.20402 28.001 2.65174 28.001 3.20402H30.001ZM28.001 7.00002C28.001 7.55231 28.4487 8.00002 29.001 8.00002C29.5533 8.00002 30.001 7.55231 30.001 7.00002H28.001ZM22.9997 2.58667C22.9997 2.03439 22.552 1.58667 21.9997 1.58667C21.4474 1.58667 20.9997 2.03439 20.9997 2.58667H22.9997ZM19.8287 21.5949L16.9708 17.3495L15.3117 18.4664L18.1696 22.7117L19.8287 21.5949ZM16.9374 17.3028C16.9743 17.3514 16.9966 17.4094 17.0016 17.4699L15.0086 17.6372C15.0353 17.9551 15.152 18.259 15.3452 18.5132L16.9374 17.3028ZM17.0016 17.4699C17.0068 17.5309 16.9943 17.5917 16.9663 17.6452L15.1944 16.7177C15.0466 17 14.9819 17.3189 15.0086 17.6372L17.0016 17.4699ZM16.9668 17.6444C16.9382 17.6991 16.8949 17.7438 16.8428 17.7738L15.8436 16.0413C15.5677 16.2004 15.342 16.435 15.194 16.7185L16.9668 17.6444ZM16.8428 17.7738C16.7895 17.8046 16.7295 17.8189 16.6697 17.8164L16.7544 15.8182C16.4368 15.8047 16.1206 15.8815 15.8436 16.0413L16.8428 17.7738ZM16.7121 17.8173H18.235V15.8173H16.7121V17.8173ZM18.1926 17.8164C18.5037 17.8296 18.8116 17.7561 19.0825 17.605L18.1087 15.8581C18.1596 15.8298 18.2179 15.8157 18.2774 15.8182L18.1926 17.8164ZM19.0822 17.6052C19.3537 17.454 19.578 17.2303 19.73 16.9596L17.9861 15.9804C18.0149 15.9291 18.0573 15.8868 18.109 15.8579L19.0822 17.6052ZM19.7307 16.9583C19.8819 16.6881 19.956 16.3809 19.9438 16.0705L17.9454 16.1489C17.9431 16.0899 17.9572 16.0321 17.9854 15.9817L19.7307 16.9583ZM19.9438 16.0705C19.9317 15.7599 19.8336 15.4585 19.6602 15.2001L17.9994 16.3145C17.9663 16.2652 17.9477 16.2078 17.9454 16.1489L19.9438 16.0705ZM19.6432 15.1756L14.8103 8.41825L13.1835 9.58171L18.0164 16.339L19.6432 15.1756ZM13.9969 9.99998H16.9975V7.99998H13.9969V9.99998ZM17.816 8.42553L12.415 0.729539L10.7779 1.87843L16.1789 9.57443L17.816 8.42553ZM12.4079 0.719508C12.2474 0.496769 12.0363 0.315311 11.7919 0.190148L10.8803 1.97033C10.8425 1.95096 10.8099 1.92288 10.7851 1.88846L12.4079 0.719508ZM11.7919 0.190148C11.5475 0.0650108 11.2769 -0.000244141 11.0024 -0.000244141V1.99976C10.9599 1.99976 10.9181 1.98967 10.8803 1.97033L11.7919 0.190148ZM11.0024 -0.000244141C10.7278 -0.000244141 10.4572 0.06501 10.2128 0.190148L11.1244 1.97033C11.0866 1.98967 11.0448 1.99976 11.0024 1.99976V-0.000244141ZM10.2128 0.190172C9.96844 0.315306 9.75732 0.496733 9.59685 0.719508L11.2197 1.88846C11.1948 1.92292 11.1622 1.95096 11.1244 1.9703L10.2128 0.190172ZM9.59025 0.72878L4.1786 8.42477L5.81462 9.57519L11.2263 1.87919L9.59025 0.72878ZM4.99661 9.99998H7.99582V7.99998H4.99661V9.99998ZM7.19587 8.39991L1.19478 16.3999L2.79468 17.6L8.79577 9.60005L7.19587 8.39991ZM1.99473 18H5.99546V16H1.99473V18ZM5.1433 16.4767L0.286398 24.386L1.99071 25.4326L6.84761 17.5233L5.1433 16.4767ZM0.342257 24.3044C0.149135 24.5587 0.0324136 24.8627 0.00583096 25.1809L1.99889 25.3474C1.99383 25.408 1.97159 25.4659 1.93485 25.5142L0.342257 24.3044ZM0.0058301 25.1809C-0.0207638 25.4993 0.0440012 25.8182 0.192107 26.1008L1.96351 25.1723C1.99154 25.2258 2.00397 25.2866 1.99889 25.3474L0.0058301 25.1809ZM0.192334 26.1012C0.340469 26.3835 0.56624 26.6186 0.843939 26.7778L1.83875 25.0427C1.89227 25.0734 1.93522 25.1184 1.96328 25.1718L0.192334 26.1012ZM0.843118 26.7773C1.11966 26.9362 1.43628 27.0135 1.75605 26.999L1.66528 25.001C1.72679 24.9982 1.78718 25.0131 1.83957 25.0432L0.843118 26.7773ZM1.71066 27H17.9976V25H1.71066V27ZM9.99767 26V31H11.9977V26H9.99767ZM6.65267 11.9338L14.8449 11.0232L14.6239 9.03542L6.4317 9.94609L6.65267 11.9338ZM4.8514 20.0193L16.2388 18.9032L16.0438 16.9127L4.65632 18.0288L4.8514 20.0193ZM29.3344 22H22.6665V24H29.3344V22ZM22.6665 22C21.7459 22 20.9997 22.7462 20.9997 23.6667H22.9997C22.9997 23.8509 22.8504 24 22.6665 24V22ZM20.9997 23.6667V30.3333H22.9997V23.6667H20.9997ZM20.9997 30.3333C20.9997 31.2538 21.7459 32 22.6665 32V30C22.8504 30 22.9997 30.1491 22.9997 30.3333H20.9997ZM22.6665 32H29.3344V30H22.6665V32ZM29.3344 32C30.2547 32 31.0012 31.2539 31.0012 30.3333H29.0012C29.0012 30.149 29.1505 30 29.3344 30V32ZM31.0012 30.3333V23.6667H29.0012V30.3333H31.0012ZM31.0012 23.6667C31.0012 22.7461 30.2547 22 29.3344 22V24C29.1505 24 29.0012 23.851 29.0012 23.6667H31.0012ZM25.0004 23V31H27.0004V23H25.0004ZM21.9997 28H30.0012V26H21.9997V28ZM26.8324 22.4452L24.8321 19.4452L23.1681 20.5548L25.1684 23.5548L26.8324 22.4452ZM27.1688 19.4452L25.1684 22.4452L26.8324 23.5548L28.8328 20.5548L27.1688 19.4452ZM15.6697 1.94482C20.7112 3.69281 26.8371 4.6627 31.1531 3.988L30.8442 2.012C26.9721 2.6173 21.1972 1.74452 16.3249 0.05518L15.6697 1.94482ZM28.001 3.20402V7.00002H30.001V3.20402H28.001ZM28.9996 12C30.6565 12 32 10.657 32 9H30C30 9.5521 29.5523 10 28.9996 10V12ZM32 9C32 7.34296 30.6565 6 28.9996 6V8C29.5523 8 30 8.4479 30 9H32ZM28.9996 6C27.3428 6 25.9993 7.34296 25.9993 9H27.9993C27.9993 8.4479 28.447 8 28.9996 8V6ZM25.9993 9C25.9993 10.657 27.3428 12 28.9996 12V10C28.447 10 27.9993 9.5521 27.9993 9H25.9993ZM20.9997 2.58667V5H22.9997V2.58667H20.9997ZM21.9997 10C23.6565 10 25.0001 8.65704 25.0001 7H23.0001C23.0001 7.55211 22.5523 8 21.9997 8V10ZM25.0001 7C25.0001 5.34296 23.6565 4 21.9997 4V6C22.5523 6 23.0001 6.4479 23.0001 7H25.0001ZM21.9997 4C20.3427 4 18.9993 5.343 18.9993 7H20.9993C20.9993 6.44785 21.447 6 21.9997 6V4ZM18.9993 7C18.9993 8.657 20.3427 10 21.9997 10V8C21.447 8 20.9993 7.55215 20.9993 7H18.9993ZM8.49591 14C8.77184 14 8.99582 14.2237 8.99582 14.5H6.99582C6.99582 15.3286 7.66758 16 8.49591 16V14ZM8.99582 14.5C8.99582 14.7763 8.77184 15 8.49591 15V13C7.66758 13 6.99582 13.6714 6.99582 14.5H8.99582ZM8.49591 16C9.32424 16 9.996 15.3286 9.996 14.5H7.996C7.996 14.2237 8.21998 14 8.49591 14V16ZM9.996 14.5C9.996 13.6714 9.32424 13 8.49591 13V15C8.21998 15 7.996 14.7763 7.996 14.5H9.996ZM13.4981 13.47C13.774 13.47 13.998 13.6936 13.998 13.97H11.998C11.998 14.7986 12.6698 15.47 13.4981 15.47V13.47ZM13.998 13.97C13.998 14.2463 13.774 14.47 13.4981 14.47V12.47C12.6698 12.47 11.998 13.1414 11.998 13.97H13.998ZM13.4981 15.47C14.3264 15.47 14.9983 14.7986 14.9983 13.97H12.9983C12.9983 13.6936 13.2223 13.47 13.4981 13.47V15.47ZM14.9983 13.97C14.9983 13.1413 14.3264 12.47 13.4981 12.47V14.47C13.2223 14.47 12.9983 14.2463 12.9983 13.97H14.9983ZM8.49591 22C8.77184 22 8.99582 22.2237 8.99582 22.5H6.99582C6.99582 23.3286 7.66758 24 8.49591 24V22ZM8.99582 22.5C8.99582 22.7763 8.77184 23 8.49591 23V21C7.66758 21 6.99582 21.6714 6.99582 22.5H8.99582ZM8.49591 24C9.32424 24 9.996 23.3286 9.996 22.5H7.996C7.996 22.2237 8.21998 22 8.49591 22V24ZM9.996 22.5C9.996 21.6714 9.32424 21 8.49591 21V23C8.21998 23 7.996 22.7763 7.996 22.5H9.996ZM13.4981 22C13.774 22 13.998 22.2237 13.998 22.5H11.998C11.998 23.3286 12.6698 24 13.4981 24V22ZM13.998 22.5C13.998 22.7763 13.774 23 13.4981 23V21C12.6698 21 11.998 21.6714 11.998 22.5H13.998ZM13.4981 24C14.3264 24 14.9983 23.3286 14.9983 22.5H12.9983C12.9983 22.2236 13.2223 22 13.4981 22V24ZM14.9983 22.5C14.9983 21.6714 14.3264 21 13.4981 21V23C13.2223 23 12.9983 22.7764 12.9983 22.5H14.9983ZM12.4981 13.47V14.47H14.4981V13.47H12.4981ZM7.49591 14V15H9.49591V14H7.49591ZM7.49591 22V23H9.49591V22H7.49591ZM12.4981 22V23H14.4981V22H12.4981Z" fill="currentColor"/>
</svg>
