<svg width="32" height="32" viewBox="0 0 32 32" fill="none" xmlns="http://www.w3.org/2000/svg">
<path d="M9 29C6.79088 29 5 27.3285 5 25.2667V4.73333C5 2.67149 6.79088 1 9 1H19C21.2091 1 23 2.67149 23 4.73333V15M5 23H10M9 7V5H11M9 11H12M16 13H19M18.5757 30.0434C17.3002 31.3189 15.2322 31.3189 13.9566 30.0434C12.6811 28.7678 12.6811 26.6998 13.9566 25.4243L17.4209 21.9593C18.6255 20.752 20.5562 20.6747 21.8534 21.7818C23.1506 22.889 23.3777 24.8078 22.3746 26.1871M23.4235 19.9568C24.6992 18.6811 26.7675 18.6811 28.0432 19.9568C29.3189 21.2325 29.3189 23.3008 28.0432 24.5765L24.5784 28.0413C23.3735 29.2483 21.4428 29.3251 20.1457 28.2177C18.8486 27.1103 18.6218 25.1915 19.6248 23.8121M15 5H19V9H15V5ZM9 15H13V19H9V15Z" stroke="currentColor" stroke-width="2" stroke-linecap="round" stroke-linejoin="round"/>
</svg>
