<svg width="32" height="32" viewBox="0 0 32 32" fill="none" xmlns="http://www.w3.org/2000/svg">
<path d="M10.328 7.19824C10.328 7.19824 16.574 10.3032 17.615 20.653C19.697 14.4431 22.8199 12.3732 22.8199 12.3732M14.492 11.3385C14.492 11.3385 12.3683 14.954 9.28697 14.4434C3.041 13.4085 4.08199 5.12861 2 2.02366C6.09061 0.361076 10.7345 0.745835 14.492 3.05864C17.6108 5.12861 17.6108 8.23355 14.492 11.3385ZM21.3237 14.3709C21.3237 14.3709 22.7991 16.8797 24.9394 16.5278C29.2769 15.8088 28.5482 10.0585 30 7.90157C27.1587 6.74782 23.9337 7.01506 21.3237 8.62054C19.1556 10.0585 19.1556 12.2154 21.3237 14.3709ZM22.3144 31.0029H13.6842C13.1936 31.003 12.7707 30.6686 12.6726 30.2029L11.0209 22.2029C10.9589 21.9087 11.0367 21.603 11.2328 21.3704C11.4289 21.1378 11.7225 21.0029 12.0325 21.0029H23.9661C24.2764 21.0025 24.5704 21.1372 24.7668 21.3699C24.9632 21.6025 25.0412 21.9084 24.9791 22.2029L23.3274 30.2029C23.2287 30.6688 22.8053 31.0031 22.3144 31.0029Z" stroke="currentColor" stroke-width="2" stroke-linecap="round" stroke-linejoin="round"/>
</svg>
