<svg width="32" height="32" viewBox="0 0 32 32" fill="none" xmlns="http://www.w3.org/2000/svg">
<path d="M20.4985 22.0029L23 30.0029L16 26.478L9 30.0029L11.4985 22.0029M23.4246 4.5783C27.5251 8.6788 27.5251 15.327 23.4246 19.4276C19.3241 23.5281 12.6759 23.5281 8.57537 19.4276C4.47487 15.3271 4.47487 8.67884 8.57537 4.5783C12.6759 0.477804 19.3241 0.477804 23.4246 4.5783ZM16.7077 5.92935L18.3708 9.20669H21.2054C21.6337 9.19622 21.9893 9.53506 21.9998 9.96351C22.0051 10.1802 21.9195 10.3893 21.7638 10.54L19.1624 13.0974L20.6031 16.4107C20.7706 16.8107 20.5823 17.2709 20.1825 17.4385C19.9557 17.5336 19.6976 17.5169 19.485 17.3934L16 15.432L12.515 17.3934C12.1402 17.6112 11.6598 17.4837 11.4421 17.1086C11.3186 16.8959 11.3019 16.6376 11.3969 16.4107L12.8389 13.0974L10.2362 10.5347C9.92838 10.2366 9.9204 9.74533 10.2183 9.4374C10.369 9.28165 10.578 9.19606 10.7946 9.20135H13.6292L15.2937 5.92935C15.5 5.5387 15.9838 5.38935 16.3742 5.59576C16.5164 5.67089 16.6326 5.78715 16.7077 5.92935Z" stroke="currentColor" stroke-width="2" stroke-linecap="round" stroke-linejoin="round"/>
</svg>
