<svg width="32" height="32" viewBox="0 0 32 32" fill="none" xmlns="http://www.w3.org/2000/svg">
<path d="M18.3636 9.2017C17.5769 9.06377 16.7853 8.99032 15.9983 9.00167C11.3402 8.9345 6.5226 12.0513 3.49385 14.9008C2.83538 15.5256 2.83538 16.4746 3.49385 17.0994C4.30225 17.8604 5.24768 18.6257 6.29143 19.3349L6.54545 19.5019M25.4545 12.4996C26.5909 13.2486 27.6241 14.0719 28.5062 14.9008C29.1646 15.5256 29.1646 16.4746 28.5062 17.0994C25.541 19.8887 20.7361 23.0698 15.9983 23.0017C15.2099 23.013 14.4196 22.938 13.6364 22.8016M19.4907 16.5903C19.2291 17.9705 18.0641 19.0565 16.5912 19.2888M12.5039 15.446C12.753 14.0502 13.9248 12.9485 15.4094 12.7144M4.18225 26.0016L27.8186 6.00159" stroke="currentColor" stroke-width="2" stroke-linecap="round" stroke-linejoin="round"/>
</svg>
