<svg width="32" height="32" viewBox="0 0 32 32" fill="none" xmlns="http://www.w3.org/2000/svg">
<path d="M25.0015 21.0033L20.0802 7.66429C19.8784 7.14348 20.0778 6.53098 20.5257 6.29624C20.5611 6.27766 20.5976 6.2618 20.6348 6.24876L24.1785 5.00586M12.0015 10.0032H6.00146M12.0015 15.0032L9.00146 10.0032M6.00012 21.0032L11.5062 15.3057L21.0001 13.0032M9.537 17.4676C11.4896 19.4203 11.4896 22.5861 9.537 24.5387C7.58437 26.4913 4.41856 26.4913 2.46593 24.5387C0.513309 22.5861 0.513309 19.4203 2.46593 17.4676C4.41856 15.515 7.58437 15.515 9.537 17.4676ZM28.537 17.4676C30.4896 19.4203 30.4896 22.5861 28.537 24.5387C26.5844 26.4913 23.4186 26.4913 21.4659 24.5387C19.5133 22.5861 19.5133 19.4203 21.4659 17.4676C23.4186 15.515 26.5844 15.515 28.537 17.4676Z" stroke="currentColor" stroke-width="2" stroke-linecap="round" stroke-linejoin="round"/>
</svg>
