<svg width="32" height="32" viewBox="0 0 32 32" fill="none" xmlns="http://www.w3.org/2000/svg">
<path d="M31 16.0029C31 24.2872 24.2843 31.0029 16 31.0029C7.71573 31.0029 1 24.2872 1 16.0029M31 16.0029C31 7.71866 24.2843 1.00293 16 1.00293C7.71573 1.00293 1 7.71866 1 16.0029M31 16.0029H1M12.3853 30.5644C10.356 27.5884 9 22.1804 9 16.0031C9 9.82573 10.356 4.41773 12.3853 1.44173M3.30941 24.0029H28.6907M3.30941 8.00293H28.6907M19.6147 1.44173C21.6441 4.41773 23.0001 9.82573 23.0001 16.0031C23.0001 22.1804 21.6441 27.5884 19.6147 30.5644" stroke="currentColor" stroke-width="2" stroke-linecap="round" stroke-linejoin="round"/>
</svg>
