<svg width="32" height="32" viewBox="0 0 32 32" fill="none" xmlns="http://www.w3.org/2000/svg">
<path d="M23.0001 11.0067H25.8001C28.5598 10.9008 30.8853 13.046 31.0001 15.8037V18.2022C30.8853 20.9599 28.5598 23.1051 25.8001 22.9992H23.0001M22.9998 11.0029V29.1514C23.0077 29.6347 22.8224 30.1014 22.4848 30.4486C22.1473 30.7958 21.685 30.9952 21.1999 31.0029H6.80022C5.79072 30.9862 4.98542 30.1584 5.00026 29.1528V12.6843M11.0001 21.0029V26.0029M17.0001 17.0029V26.0029M25.8166 6.80225C25.4117 5.40104 24.3628 4.27705 22.9931 3.77648C21.6234 3.27591 20.097 3.45881 18.8843 4.26884C17.9921 2.19195 15.9001 0.891408 13.6431 1.01047C11.3862 1.12953 9.44262 2.64295 8.77376 4.80219C7.34921 3.40759 5.1857 3.09631 3.42588 4.03276C1.66607 4.96921 0.715269 6.93771 1.07564 8.89859C1.43602 10.8595 3.02457 12.3611 5.00231 12.6104H5.01031C5.03806 13.8452 5.57274 15.0141 6.48871 15.8425C7.40468 16.6708 8.62116 17.0856 9.85227 16.9892C11.378 16.8213 12.7213 15.9078 13.4384 14.5505C13.7427 14.0185 13.9291 13.4274 13.985 12.8171C14.072 11.7878 14.9359 10.9986 15.9687 11.005C18.2924 11.005 20.908 11.0144 23.005 11.005C24.5652 11.0316 25.8763 9.83834 25.9966 8.28229C26.0156 7.78252 25.9548 7.2829 25.8166 6.80225Z" stroke="currentColor" stroke-width="2" stroke-linecap="round" stroke-linejoin="round"/>
</svg>
