<svg width="32" height="32" viewBox="0 0 32 32" fill="none" xmlns="http://www.w3.org/2000/svg">
<path d="M1 19.0029V18.0029C0.447715 18.0029 0 18.4506 0 19.0029H1ZM23 19.0029H24C24 18.4506 23.5523 18.0029 23 18.0029V19.0029ZM23 25.0029V26.0029C23.5523 26.0029 24 25.5552 24 25.0029H23ZM1 25.0029H0C0 25.5552 0.447715 26.0029 1 26.0029L1 25.0029ZM28 19.0029C28 18.4506 27.5523 18.0029 27 18.0029C26.4477 18.0029 26 18.4506 26 19.0029H28ZM26 25.0029C26 25.5552 26.4477 26.0029 27 26.0029C27.5523 26.0029 28 25.5552 28 25.0029H26ZM31 19.0029C31 18.4506 30.5523 18.0029 30 18.0029C29.4477 18.0029 29 18.4506 29 19.0029H31ZM29 25.0029C29 25.5552 29.4477 26.0029 30 26.0029C30.5523 26.0029 31 25.5552 31 25.0029H29ZM29 15.0029C29 15.5552 29.4477 16.0029 30 16.0029C30.5522 16.0029 31 15.5552 31 15.0029H29ZM18.561 5.20293V6.20293H19.561V5.20293H18.561ZM27.3415 5.20293H26.3415V6.20293H27.3415V5.20293ZM30 8.70293C30 9.25522 30.4477 9.70293 31 9.70293C31.5523 9.70293 32 9.25522 32 8.70293H30ZM1 20.0029H23V18.0029H1V20.0029ZM22 19.0029V25.0029H24V19.0029H22ZM23 24.0029H1V26.0029H23V24.0029ZM2 25.0029V19.0029H0V25.0029H2ZM6 19.0029V25.0029H8V19.0029H6ZM26 19.0029V25.0029H28V19.0029H26ZM29 19.0029V25.0029H31V19.0029H29ZM31 15.0029C31 13.9569 30.8438 12.6442 30.0623 11.5793C29.2355 10.4526 27.8639 9.80293 25.878 9.80293V11.8029C27.4043 11.8029 28.0937 12.2772 28.4499 12.7625C28.8513 13.3096 29 14.097 29 15.0029H31ZM25.878 9.80293H19.2927V11.8029H25.878V9.80293ZM19.2927 9.80293C18.2745 9.80293 17.3628 9.63645 16.7437 9.3074C16.1818 9.00874 15.9024 8.61454 15.9024 8.00293H13.9024C13.9024 9.49132 14.7207 10.4971 15.8051 11.0735C16.8323 11.6194 18.1157 11.8029 19.2927 11.8029V9.80293ZM15.9024 8.00293C15.9024 7.61583 16.0238 7.19306 16.3447 6.86908C16.6558 6.55493 17.2841 6.20293 18.561 6.20293V4.20293C16.911 4.20293 15.71 4.6676 14.9236 5.46179C14.1469 6.24613 13.9024 7.22337 13.9024 8.00293H15.9024ZM19.561 5.20293C19.561 3.63969 20.9359 2.00293 22.9512 2.00293V0.00292969C19.8005 0.00292969 17.561 2.56617 17.561 5.20293H19.561ZM22.9512 2.00293C24.071 2.00293 24.9031 2.30572 25.4445 2.7949C25.9702 3.26987 26.3415 4.02818 26.3415 5.20293H28.3415C28.3415 3.57768 27.8091 2.23599 26.7854 1.31096C25.7774 0.400143 24.4144 0.00292969 22.9512 0.00292969V2.00293ZM27.3415 6.20293C27.9418 6.20293 28.6286 6.35098 29.1365 6.71543C29.5916 7.04193 30 7.60639 30 8.70293H32C32 6.99947 31.3108 5.81393 30.3025 5.09043C29.347 4.40488 28.2045 4.20293 27.3415 4.20293V6.20293Z" fill="currentColor"/>
</svg>
