<svg width="32" height="32" viewBox="0 0 32 32" fill="none" xmlns="http://www.w3.org/2000/svg">
<path d="M11 9.70473C13.5207 8.769 16.4793 8.769 19 9.70473M31 11.0029C31 13.2121 29.2091 15.0029 27 15.0029M8.375 13.3579V13.3779M8.375 13.0029C8.16789 13.0029 8 13.1708 8 13.3779C8 13.585 8.16789 13.7529 8.375 13.7529C8.58211 13.7529 8.75 13.585 8.75 13.3779C8.75 13.1708 8.58211 13.0029 8.375 13.0029ZM10.5333 5.84693C8.968 3.01093 5 3.00293 5 3.00293L5.83467 8.84826C4.74324 10.0377 3.93385 11.4577 3.46667 13.0029H1V21.0029H4.32C5.01046 22.2135 5.91911 23.2858 7 24.1656V28.0029C7 28.5552 7.44772 29.0029 8 29.0029H10C10.5523 29.0029 11 28.5552 11 28.0029V26.3483C13.5953 27.2161 16.4016 27.2212 19 26.3629V28.0029C19 28.5552 19.4477 29.0029 20 29.0029H22C22.5523 29.0029 23 28.5552 23 28.0029V24.1856C25.4983 22.2002 26.9679 19.1939 27 16.0029C27 7.34426 17.6 3.48426 10.5333 5.84693Z" stroke="currentColor" stroke-width="2" stroke-linecap="round" stroke-linejoin="round"/>
</svg>
