<svg width="32" height="32" viewBox="0 0 32 32" fill="none" xmlns="http://www.w3.org/2000/svg">
<path d="M27 13.002V9.00197C27 7.8974 26.1046 7.00197 25 7.00197H13C11.8954 7.00197 11 6.10653 11 5.00196V5.00196C11 3.89739 10.1046 3.00195 9 3.00195H3C1.89543 3.00195 1 3.89738 1 5.00195V25.002V25.9118C1 27.6184 2.38352 29.002 4.09017 29.002H4.22896C5.31437 29.002 6.30662 28.3887 6.79203 27.4179V27.4179C6.92978 27.1424 7.02221 26.8465 7.06576 26.5416L8.75469 14.7191C8.89545 13.7338 9.73929 13.002 10.7346 13.002H28.4384C29.7396 13.002 30.6943 14.2247 30.3787 15.487L27 29.002H4" stroke="currentColor" stroke-width="2" stroke-linecap="round" stroke-linejoin="round"/>
</svg>
