<svg width="32" height="32" viewBox="0 0 32 32" fill="none" xmlns="http://www.w3.org/2000/svg">
<path d="M23.4026 24.0029C26.785 24.5968 29 25.588 29 26.7098C29 28.5287 23.181 30.0029 16 30.0029C8.81905 30.0029 3 28.5287 3 26.7098C3 25.5902 5.20505 24.6012 8.57143 24.0062M18.8284 7.1745C20.3905 8.73659 20.3905 11.2693 18.8284 12.8314C17.2663 14.3934 14.7337 14.3934 13.1716 12.8314C11.6095 11.2693 11.6095 8.73659 13.1716 7.1745C14.7337 5.61241 17.2663 5.61241 18.8284 7.1745ZM16 1.00293C20.9706 1.00293 25 4.77247 25 9.42242C25 13.4775 18.1573 22.5531 16.4053 24.8108C16.2411 25.0202 15.9266 25.0654 15.7027 24.9118C15.6614 24.8835 15.625 24.8494 15.5947 24.8108C13.8427 22.5531 7 13.4775 7 9.42242C7 4.77247 11.0294 1.00293 16 1.00293Z" stroke="currentColor" stroke-width="2" stroke-linecap="round" stroke-linejoin="round"/>
</svg>
