<svg width="32" height="32" viewBox="0 0 32 32" fill="none" xmlns="http://www.w3.org/2000/svg">
<path d="M23 11.0002L29 11.0002V4.00018M20 18.0002V21.7502C20 22.4405 19.5523 23.0002 19 23.0002H13C12.4477 23.0002 12 22.4405 12 21.7502V18.0002M9 16.4172L16 11.0002L23 16.4172M27.8786 10.0801C25.5949 5.86375 21.1318 3.00031 16 3.00031C8.54416 3.00031 2.5 9.04446 2.5 16.5003C2.5 20.4904 4.231 24.0761 6.98302 26.5476M29.5 16.5003C29.5 17.7336 29.3346 18.9282 29.0248 20.0633M26.5658 24.9043C25.447 26.3091 24.0539 27.4857 22.4675 28.3531M16.768 29.9788C16.5138 29.9931 16.2578 30.0003 16 30.0003C14.3323 30.0003 12.7353 29.6979 11.2607 29.145" stroke="currentColor" stroke-width="2" stroke-linecap="round" stroke-linejoin="round"/>
</svg>
