<svg width="32" height="32" viewBox="0 0 32 32" fill="none" xmlns="http://www.w3.org/2000/svg">
<path d="M29 12.0029C29.3066 12.0028 29.6091 12.0732 29.8841 12.2086C30.1592 12.344 30.3994 12.5409 30.5863 12.7839C30.7731 13.027 30.9016 13.3097 30.9618 13.6103C31.022 13.9109 31.0123 14.2213 30.9334 14.5176L28 28.5029C27.8866 28.929 27.6355 29.3203 27.2859 29.5889C26.9362 29.8575 26.4409 30.0031 26 30.0029H3.2627M29 12.0029L29 8.00293C29 7.4725 28.7893 6.96379 28.4142 6.58872C28.0391 6.21364 27.5304 6.00293 27 6.00293H25M29 12.0029H25M15 6.00293H11V4.00293C11 3.4725 10.7893 2.96379 10.4142 2.58872C10.0391 2.21364 9.53043 2.00293 9 2.00293H3C2.46957 2.00293 1.96086 2.21364 1.58579 2.58872C1.21071 2.96379 1 3.4725 1 4.00293V27.7363C1.00753 28.2809 1.2109 28.8046 1.57291 29.2115C1.93492 29.6184 2.45998 29.912 3 29.9829C3.54002 30.0538 4.0589 29.8973 4.51369 29.5976C4.96848 29.2979 5.30014 28.8445 5.448 28.3203L8.584 13.4483C8.70427 13.0316 8.95669 12.6654 9.30324 12.4047C9.64979 12.144 10.0663 12.003 10.5 12.0029H13M15 6.00293V4.00293C15 3.4725 15.2107 2.96379 15.5858 2.58872C15.9609 2.21364 16.4696 2.00293 17 2.00293H23C23.5304 2.00293 24.0391 2.21364 24.4142 2.58872C24.7893 2.96379 25 3.4725 25 4.00293V17.0029L21 14.0029L17 17.0029V6.00293L15 6.00293Z" stroke="currentColor" stroke-width="2" stroke-linecap="round" stroke-linejoin="round"/>
</svg>
