<svg width="32" height="32" viewBox="0 0 32 32" fill="none" xmlns="http://www.w3.org/2000/svg">
<path d="M27 12.3362V4.33618C27 3.23161 26.1046 2.33618 25 2.33618H3C1.89543 2.33618 1 3.23161 1 4.33618V20.3362C1 21.4408 1.89543 22.3362 3 22.3362H13M1 8.33618H27M5 13.3323H13M5 17.3323H9M26 19.6695L22 23.6695L20 21.6695M23 28.3362C26.6819 28.3362 29.6667 25.3514 29.6667 21.6695C29.6667 17.9876 26.6819 15.0028 23 15.0028C19.3181 15.0028 16.3333 17.9876 16.3333 21.6695C16.3333 25.3514 19.3181 28.3362 23 28.3362Z" stroke="currentColor" stroke-width="2" stroke-linecap="round" stroke-linejoin="round"/>
</svg>
