<svg width="32" height="32" viewBox="0 0 32 32" fill="none" xmlns="http://www.w3.org/2000/svg">
<path d="M3 4.03456L3 27.971C2.99997 28.3223 3.10948 28.6611 3.28 28.9667C3.45052 29.2723 3.70329 29.5381 4 29.7185C4.29671 29.8989 4.65431 29.9947 5 30.003C5.34569 30.0112 5.69528 29.9252 6 29.7592L27.94 17.7937C28.2588 17.62 28.5342 17.3617 28.72 17.0464C28.9058 16.731 29 16.3704 29 16.0028C29 15.6353 28.9058 15.2746 28.72 14.9593C28.5342 14.6439 28.2588 14.3856 27.94 14.212L6 2.24643C5.69528 2.08037 5.34569 1.99437 5 2.00262C4.65431 2.01087 4.29671 2.10667 4 2.28708C3.70329 2.46748 3.45052 2.73328 3.28 3.0389C3.10948 3.34452 2.99997 3.68325 3 4.03456Z" stroke="currentColor" stroke-width="2" stroke-linecap="round" stroke-linejoin="round"/>
</svg>
