<svg width="32" height="32" viewBox="0 0 32 32" fill="none" xmlns="http://www.w3.org/2000/svg">
<path d="M10 24.0029H22.0255C22.9123 24.003 23.6698 23.3579 23.8182 22.4761L27.0145 3.52852C27.1635 2.64725 27.9208 2.00274 28.8073 2.00293H30M11.5 28.001C11.2239 28.001 11 28.2248 11 28.501C11 28.7771 11.2239 29.001 11.5 29.001M11.5 28.001C11.7761 28.001 12 28.2248 12 28.501C12 28.7771 11.7761 29.001 11.5 29.001M11.5 28.001V29.001M20.5 28.001C20.2239 28.001 20 28.2248 20 28.501C20 28.7771 20.2239 29.001 20.5 29.001M20.5 28.001C20.7761 28.001 21 28.2248 21 28.501C21 28.7771 20.7761 29.001 20.5 29.001M20.5 28.001V29.001M24.2344 20.0029H9.36094C7.6773 20.0027 6.20975 18.7544 5.80119 16.9749L4.02743 9.24504C3.95885 8.94633 4.02046 8.62984 4.19444 8.38718C4.36842 8.14452 4.63535 8.00276 4.91798 8.00293H26.2578" stroke="currentColor" stroke-width="2" stroke-linecap="round" stroke-linejoin="round"/>
</svg>
