<svg width="32" height="32" viewBox="0 0 32 32" fill="none" xmlns="http://www.w3.org/2000/svg">
<path d="M12 11.9997H5M12 17H5M16 1V8H22L16.3991 1.46561C16.1458 1.17008 15.776 1 15.3868 1H2.33333C1.59695 1 1 1.59695 1 2.33333V27.6667C1 28.403 1.59695 29 2.33333 29H12M25.5 27C25.7761 27 26 27.2239 26 27.5C26 27.7761 25.7761 28 25.5 28M25.5 27C25.2239 27 25 27.2239 25 27.5C25 27.7761 25.2239 28 25.5 28M25.5 27V28M20.5 27C20.7761 27 21 27.2239 21 27.5C21 27.7761 20.7761 28 20.5 28M20.5 27C20.2239 27 20 27.2239 20 27.5C20 27.7761 20.2239 28 20.5 28M20.5 27V28M25.5 23C25.7761 23 26 23.2239 26 23.5C26 23.7761 25.7761 24 25.5 24M25.5 23C25.2239 23 25 23.2239 25 23.5C25 23.7761 25.2239 24 25.5 24M25.5 23V24M20.5 23C20.7761 23 21 23.2239 21 23.5C21 23.7761 20.7761 24 20.5 24M20.5 23C20.2239 23 20 23.2239 20 23.5C20 23.7761 20.2239 24 20.5 24M20.5 23V24M17.3533 31C16.6059 31 16 30.4114 16 29.6853V15.3147C16 14.5886 16.6059 14 17.3533 14H28.6467C29.3941 14 30 14.5886 30 15.3147V29.6853C30 30.4114 29.3941 31 28.6467 31H17.3533ZM25.999 18.5C25.999 18.853 25.785 19 25.57 19H20.428C20.213 19 20 18.836 20 18.482V18.5C20 18.146 20.214 18 20.429 18H25.571C25.786 18 25.999 18.146 25.999 18.5Z" stroke="currentColor" stroke-width="2" stroke-linecap="round" stroke-linejoin="round"/>
</svg>
