<svg width="32" height="32" viewBox="0 0 32 32" fill="none" xmlns="http://www.w3.org/2000/svg">
<path d="M18 11.0031H27M18 16.0031H25M18 21.0029H24M4.5 22.0029C4.5 20.6768 4.97411 19.4051 5.81802 18.4674C6.66193 17.5297 7.80653 17.0029 9 17.0029C10.1935 17.0029 11.3381 17.5297 12.182 18.4674C13.0259 19.4051 13.5 20.6768 13.5 22.0029M3 27.0063C1.89544 27.0063 1 26.1378 1 25.0664V6.94633C1 5.87492 1.89544 5.00635 3 5.00635H29C30.1046 5.00635 31 5.87492 31 6.94633V25.0664C31 26.1378 30.1046 27.0063 29 27.0063H3ZM11.5 12.0029C11.5 13.3836 10.3807 14.5029 9 14.5029C7.61929 14.5029 6.5 13.3836 6.5 12.0029C6.5 10.6222 7.61929 9.50293 9 9.50293C10.3807 9.50293 11.5 10.6222 11.5 12.0029Z" stroke="currentColor" stroke-width="2" stroke-linecap="round" stroke-linejoin="round"/>
</svg>
