<svg width="32" height="32" viewBox="0 0 32 32" fill="none" xmlns="http://www.w3.org/2000/svg">
<path d="M10.4966 23.5029H15.4966M3 16.7254V29.7254M24 28.0029C24 25.5176 22.119 23.5029 19.7987 23.5029H14.547C14.547 21.0176 12.666 19.0029 10.3457 19.0029H3V28.0029H24ZM20.9998 17.0029L14.1815 9.88915C12.9534 8.66164 12.6493 6.78549 13.4268 5.23285C14.0066 4.07302 15.1086 3.26268 16.3884 3.05503C17.6683 2.84738 18.9699 3.26775 19.8866 4.18479L20.9998 5.29819L22.1131 4.18479C23.0301 3.26777 24.3318 2.84742 25.6119 3.05506C26.8919 3.26269 27.9941 4.07299 28.5742 5.23285C29.3505 6.7859 29.046 8.66155 27.8182 9.88915L20.9998 17.0029Z" stroke="currentColor" stroke-width="2" stroke-linecap="round" stroke-linejoin="round"/>
</svg>
