<svg width="32" height="32" viewBox="0 0 32 32" fill="none" xmlns="http://www.w3.org/2000/svg">
<path d="M3.86923 13.0029C2.61685 13.4882 1.84636 14.8803 2.02584 16.3334C2.20533 17.7866 3.28524 18.8995 4.60949 18.9962C5.93374 19.0928 7.13671 18.1464 7.48753 16.732C9.70511 19.3931 13.3881 19.7602 16.0008 17.5804C18.6121 19.7616 22.2951 19.3969 24.514 16.7375C24.8672 18.1501 26.0705 19.0936 27.3938 18.9953C28.717 18.897 29.7953 17.7841 29.9743 16.3319C30.1532 14.8797 29.3835 13.4887 28.1323 13.0029M3.86923 13.0029L3.86921 12.8235C3.86921 7.39977 8.04727 3.00293 13.2012 3.00293H18.8003C23.9542 3.00293 28.1323 7.39977 28.1323 12.8235L28.1323 13.0029M3.86923 13.0029H28.1323M3.86914 25.0102V27.0895C3.88686 28.1636 4.75 29.02 5.79774 29.0029H26.2036C27.2513 29.02 28.1145 28.1636 28.1322 27.0895V25.0102M16.9338 25.0102H4.80227C4.05956 25.0102 3.34728 24.6936 2.82223 24.1301C2.29717 23.5666 2.00236 22.8024 2.00269 22.0057C2.00337 20.3476 3.25659 19.0039 4.80227 19.0039M27.1989 19.0039C28.7446 19.0039 29.9978 20.3476 29.9985 22.0057C29.9989 22.8024 29.7041 23.5666 29.179 24.1301C28.6539 24.6936 27.9417 25.0102 27.1989 25.0102H26.2658M13.2012 19.0029L22.5331 25.0092L26.2659 19.0029M10.4666 8.00684C10.7243 8.00684 10.9332 8.23093 10.9332 8.50736M10.4666 8.00684C10.3427 8.00648 10.2239 8.0591 10.1363 8.15305C10.0487 8.24699 9.99967 8.37451 10 8.50736M10.4666 8.00684V9.00789M10.9332 8.50736C10.9332 8.78379 10.7243 9.00789 10.4666 9.00789M10.9332 8.50736H10M10.4666 9.00789C10.2089 9.00789 10 8.78379 10 8.50736M15.8445 7.00675C16.0332 7.00675 16.2034 7.12869 16.2756 7.31573C16.3478 7.50276 16.3079 7.71805 16.1745 7.8612M15.8445 7.00675C15.7207 7.00639 15.6018 7.05901 15.5142 7.15295M15.8445 7.00675L15.666 7.9697M16.1745 7.8612C16.041 8.00434 15.8403 8.04717 15.666 7.9697M16.1745 7.8612L15.5142 7.15295M15.666 7.9697C15.4916 7.89222 15.3779 7.70971 15.3779 7.50727C15.3776 7.37441 15.4267 7.2469 15.5142 7.15295M21.4666 8.00684C21.7243 8.00684 21.9332 8.23093 21.9332 8.50736C21.9332 8.78379 21.7243 9.00789 21.4666 9.00789M21.4666 8.00684C21.3427 8.00648 21.2239 8.0591 21.1363 8.15305C21.0487 8.24699 20.9997 8.37451 21 8.50736C21 8.78379 21.2089 9.00789 21.4666 9.00789M21.4666 8.00684V9.00789" stroke="currentColor" stroke-width="2" stroke-linecap="round" stroke-linejoin="round"/>
</svg>
