<svg width="32" height="32" viewBox="0 0 32 32" fill="none" xmlns="http://www.w3.org/2000/svg">
<path d="M19 24.0029H23M12.0002 4.00293V7.33626C12.0002 8.25674 12.7038 9.00293 13.5717 9.00293H21.4288C22.2967 9.00293 23.0002 8.25674 23.0002 7.33626V4.00293M16 20.0029C17.933 20.0029 19.5 18.4359 19.5 16.5029C19.5 14.5699 17.933 13.0029 16 13.0029C14.067 13.0029 12.5 14.5699 12.5 16.5029C12.5 18.4359 14.067 20.0029 16 20.0029ZM25.5333 28.0029H6.46667C5.65665 28.0029 5 27.2866 5 26.4029V10.9288C5.00017 10.0802 5.30932 9.26637 5.85947 8.6664L9.27387 4.94053C9.82408 4.34011 10.5705 4.00283 11.3487 4.00293H25.5333C26.3434 4.00293 27 4.71927 27 5.60293V26.4029C27 27.2866 26.3434 28.0029 25.5333 28.0029Z" stroke="currentColor" stroke-width="2" stroke-linecap="round" stroke-linejoin="round"/>
</svg>
