<svg width="32" height="32" viewBox="0 0 32 32" fill="none" xmlns="http://www.w3.org/2000/svg">
<path d="M30 12.2697V6.85647C30.0001 6.09304 29.5353 5.40648 28.8265 5.123L21.3598 2.13639C20.9149 1.95844 20.4185 1.95844 19.9735 2.13639L12.0265 5.31588C11.5815 5.49383 11.0852 5.49383 10.6402 5.31588L3.28054 2.37159C2.99219 2.25602 2.66522 2.2915 2.40837 2.46623C2.15151 2.64096 1.99843 2.93204 2.00001 3.24268V21.1287C1.99988 21.8921 2.46467 22.5787 3.17352 22.8622L10.6402 25.8488C11.0852 26.0267 11.5815 26.0267 12.0265 25.8488L15.6117 24.414M11.3333 5.44901V25.9819M20.6667 2.00323V11.3364M24.4 15.1617C27.4928 15.1617 30 17.6688 30 20.7616C30 23.1521 26.6549 27.7004 25.1355 29.6442C24.9586 29.8706 24.6873 30.0029 24.4 30.0029C24.1127 30.0029 23.8414 29.8706 23.6645 29.6442C22.1451 27.7017 18.8 23.1521 18.8 20.7616C18.8 17.6688 21.3072 15.1617 24.4 15.1617Z" stroke="currentColor" stroke-width="2" stroke-linecap="round" stroke-linejoin="round"/>
</svg>
