<svg width="32" height="32" viewBox="0 0 32 32" fill="none" xmlns="http://www.w3.org/2000/svg">
<path d="M16 21.0011V11.0011M16 24.5311C15.7405 24.5311 15.53 24.7416 15.53 25.0011M16 24.5311C16.2596 24.5311 16.47 24.7416 16.47 25.0011M16 24.5311V25.4711M15.53 25.0011C15.53 25.2607 15.7405 25.4711 16 25.4711M15.53 25.0011H16.47M16 25.4711C16.2596 25.4711 16.47 25.2607 16.47 25.0011M18.1615 2.34798C17.5752 1.15431 16.1323 0.661976 14.9386 1.2483C14.4605 1.48315 14.0738 1.86988 13.8389 2.34798L1.20846 28.0785C0.714361 29.0836 1.12863 30.299 2.13377 30.7931C2.41256 30.9301 2.71911 31.0013 3.02977 31.0011H28.9707C30.0907 31.0018 30.9993 30.0945 31 28.9745C31.0002 28.6638 30.929 28.3572 30.792 28.0785L18.1615 2.34798Z" stroke="currentColor" stroke-width="2" stroke-linecap="round" stroke-linejoin="round"/>
</svg>
