<svg width="32" height="32" viewBox="0 0 32 32" fill="none" xmlns="http://www.w3.org/2000/svg">
<path d="M31 16.0029V3.00293C31 1.89836 30.1046 1.00293 29 1.00293H7C5.89543 1.00293 5 1.89836 5 3.00293V10.0029M5 7.00293H31M1 18.9873H27M5 23.0244H13M5 27.001H9M3 31.0029H25C26.1046 31.0029 27 30.1979 27 29.2029V14.8122C27 13.8173 26.1046 13.0107 25 13.0107H3C1.89543 13.0107 1 13.8173 1 14.8122V29.2029C1 30.1979 1.89543 31.0029 3 31.0029Z" stroke="currentColor" stroke-width="2" stroke-linecap="round" stroke-linejoin="round"/>
</svg>
