<svg width="32" height="32" viewBox="0 0 32 32" fill="none" xmlns="http://www.w3.org/2000/svg">
<path d="M10.5 15.8619V17.144M16.2155 15.8492V17.1313M21.5067 15.8619V17.144M10.5 20.8751V22.1573M16.2155 20.8624V22.1446M21.5067 20.8751V22.1573M10.5002 25.8826V27.1647M16.2157 25.8699V27.152M21.5067 25.8826V27.1647M7 31.0029H25C26.1046 31.0029 27 30.1075 27 29.0029V3.00293C27 1.89836 26.1046 1.00293 25 1.00293H7C5.89543 1.00293 5 1.89836 5 3.00293V29.0029C5 30.1075 5.89543 31.0029 7 31.0029ZM9 5.00293H23V11.0029H9V5.00293ZM10.5 16.0029C10.7761 16.0029 11 16.2268 11 16.5029C11 16.7791 10.7761 17.0029 10.5 17.0029C10.2239 17.0029 10 16.7791 10 16.5029C10 16.2268 10.2239 16.0029 10.5 16.0029ZM16.208 16.0029C16.4842 16.0029 16.708 16.2268 16.708 16.5029C16.708 16.7791 16.4842 17.0029 16.208 17.0029C15.9319 17.0029 15.708 16.7791 15.708 16.5029C15.708 16.2268 15.9319 16.0029 16.208 16.0029ZM21.5 16.0029C21.7761 16.0029 22 16.2268 22 16.5029C22 16.7791 21.7761 17.0029 21.5 17.0029C21.2239 17.0029 21 16.7791 21 16.5029C21 16.2268 21.2239 16.0029 21.5 16.0029ZM10.5 21.0029C10.7761 21.0029 11 21.2268 11 21.5029C11 21.7791 10.7761 22.0029 10.5 22.0029C10.2239 22.0029 10 21.7791 10 21.5029C10 21.2268 10.2239 21.0029 10.5 21.0029ZM16.208 21.0029C16.4842 21.0029 16.708 21.2268 16.708 21.5029C16.708 21.7791 16.4842 22.0029 16.208 22.0029C15.9319 22.0029 15.708 21.7791 15.708 21.5029C15.708 21.2268 15.9319 21.0029 16.208 21.0029ZM21.5 21.0029C21.7761 21.0029 22 21.2268 22 21.5029C22 21.7791 21.7761 22.0029 21.5 22.0029C21.2239 22.0029 21 21.7791 21 21.5029C21 21.2268 21.2239 21.0029 21.5 21.0029ZM10.5 26.0029C10.7761 26.0029 11 26.2268 11 26.5029C11 26.7791 10.7761 27.0029 10.5 27.0029C10.2239 27.0029 10 26.7791 10 26.5029C10 26.2268 10.2239 26.0029 10.5 26.0029ZM16.208 26.0029C16.4842 26.0029 16.708 26.2268 16.708 26.5029C16.708 26.7791 16.4842 27.0029 16.208 27.0029C15.9319 27.0029 15.708 26.7791 15.708 26.5029C15.708 26.2268 15.9319 26.0029 16.208 26.0029ZM21.5 26.0029C21.7761 26.0029 22 26.2268 22 26.5029C22 26.7791 21.7761 27.0029 21.5 27.0029C21.2239 27.0029 21 26.7791 21 26.5029C21 26.2268 21.2239 26.0029 21.5 26.0029Z" stroke="currentColor" stroke-width="2" stroke-linejoin="round"/>
</svg>
