<svg width="32" height="32" viewBox="0 0 32 32" fill="none" xmlns="http://www.w3.org/2000/svg">
<path d="M14 9.00391L10.4 13.8039L8 11.4039M14 19.0039L10.4 23.8039L8 21.4039M17 1.00195H3C1.89543 1.00195 1 1.89738 1 3.00195V29.002C1 30.1065 1.89543 31.002 3 31.002H19M27 10.0033V25.0019C27 26.1065 26.1046 27.0019 25 27.0019H23C21.8954 27.0019 21 26.1065 21 25.0019V10.0033M27 10.0033H21M27 10.0033V3.00195M21 10.0033V3.00195C21 1.89738 21.8954 1.00195 23 1.00195H25C26.1046 1.00195 27 1.89738 27 3.00195M27 3.00195H29C30.1046 3.00195 31 3.89738 31 5.00195V14.0033M24 27.002V31.002" stroke="currentColor" stroke-width="2" stroke-linecap="round" stroke-linejoin="round"/>
</svg>
