<svg width="32" height="32" viewBox="0 0 32 32" fill="none" xmlns="http://www.w3.org/2000/svg">
<path d="M27.0015 1.00244C23.4644 1.66309 20.1725 2.91016 17.3706 4.65087C16.5609 5.11963 15.4283 5.11963 14.6186 4.65087C11.8209 2.91156 8.53378 1.66488 5.00146 1.00346M16.0015 12.0024V30.0024M17.337 29.5624C20.6877 26.8253 24.7905 25.0865 29.1465 24.5575C30.2084 24.4225 31.0019 23.549 31.0015 22.5157V8.08116C31.0049 6.93643 30.0458 6.00576 28.8594 6.00245C28.7574 6.00217 28.6555 6.00889 28.5545 6.02258C24.4164 6.63914 20.5349 8.34516 17.337 10.9529C16.5499 11.5422 15.449 11.5422 14.6619 10.9529C11.4647 8.34719 7.58466 6.64257 3.44846 6.02643C2.27352 5.86726 1.1873 6.65721 1.02233 7.79083C1.00834 7.88701 1.00136 7.98403 1.00147 8.08115V22.5157C1.0011 23.549 1.79475 24.4227 2.85659 24.5575C7.21392 25.0858 11.3182 26.8247 14.67 29.5624C15.455 30.1491 16.5519 30.1491 17.337 29.5624Z" stroke="currentColor" stroke-width="2" stroke-linecap="round" stroke-linejoin="round"/>
</svg>
