<svg width="32" height="32" viewBox="0 0 32 32" fill="none" xmlns="http://www.w3.org/2000/svg">
<path d="M30 12.0029V24.0029C30 24.5334 29.7893 25.0421 29.4142 25.4171C29.0391 25.7922 28.5304 26.0029 28 26.0029H6M6 10.0029C6.19778 10.0029 6.39112 10.0616 6.55557 10.1715C6.72002 10.2813 6.84819 10.4375 6.92388 10.6202C6.99957 10.803 7.01937 11.004 6.98078 11.198C6.9422 11.392 6.84696 11.5702 6.70711 11.71C6.56725 11.8499 6.38907 11.9451 6.19509 11.9837C6.00111 12.0223 5.80004 12.0025 5.61732 11.9268C5.43459 11.8511 5.27841 11.7229 5.16853 11.5585C5.05865 11.3941 5 11.2007 5 11.0029C5 10.7377 5.10536 10.4834 5.29289 10.2958C5.48043 10.1083 5.73478 10.0029 6 10.0029ZM21.9976 16.0029C22.1954 16.0029 22.3887 16.0616 22.5532 16.1715C22.7176 16.2813 22.8458 16.4375 22.9215 16.6202C22.9972 16.803 23.017 17.004 22.9784 17.198C22.9398 17.392 22.8445 17.5702 22.7047 17.71C22.5648 17.8499 22.3867 17.9451 22.1927 17.9837C21.9987 18.0223 21.7976 18.0025 21.6149 17.9268C21.4322 17.8511 21.276 17.7229 21.1661 17.5585C21.0562 17.3941 20.9976 17.2007 20.9976 17.0029C20.9976 16.7377 21.1029 16.4834 21.2905 16.2958C21.478 16.1083 21.7324 16.0029 21.9976 16.0029ZM3 6.00293H25C26.1046 6.00293 27 6.89836 27 8.00293V20.0029C27 21.1075 26.1046 22.0029 25 22.0029H3C1.89543 22.0029 1 21.1075 1 20.0029V8.00293C1 6.89836 1.89543 6.00293 3 6.00293ZM17 14.0029C17 15.6598 15.6569 17.0029 14 17.0029C12.3431 17.0029 11 15.6598 11 14.0029C11 12.3461 12.3431 11.0029 14 11.0029C15.6569 11.0029 17 12.3461 17 14.0029Z" stroke="currentColor" stroke-width="2" stroke-linecap="round" stroke-linejoin="round"/>
</svg>
