<svg width="32" height="32" viewBox="0 0 32 32" fill="none" xmlns="http://www.w3.org/2000/svg">
<path d="M16.0002 23.0046C16.5525 23.0046 17.0002 23.4524 17.0002 24.0046C17.0002 24.5569 16.5525 25.0046 16.0002 25.0046C15.448 25.0046 15.0002 24.5569 15.0002 24.0046C15.0002 23.4524 15.448 23.0046 16.0002 23.0046Z" stroke="currentColor" stroke-width="2"/>
<path d="M15.9998 15.0027C16.552 15.0027 16.9998 15.4504 16.9998 16.0027C16.9998 16.555 16.552 17.0027 15.9998 17.0027C15.4475 17.0027 14.9998 16.555 14.9998 16.0027C14.9998 15.4504 15.4475 15.0027 15.9998 15.0027Z" stroke="currentColor" stroke-width="2"/>
<path d="M16.0002 7.00067C16.5525 7.00067 17.0002 7.44839 17.0002 8.00067C17.0002 8.55296 16.5525 9.00067 16.0002 9.00067C15.448 9.00067 15.0002 8.55296 15.0002 8.00067C15.0002 7.44839 15.448 7.00067 16.0002 7.00067Z" stroke="currentColor" stroke-width="2"/>
</svg>
