<svg width="32" height="32" viewBox="0 0 32 32" fill="none" xmlns="http://www.w3.org/2000/svg">
<path d="M30 12.0006V6.00061C30 3.79147 28.2091 2.00061 26 2.00061H20M20 30.0006H26C28.2091 30.0006 30 28.2097 30 26.0006L30 20.0006M12 2.00061L6 2.00061C3.79087 2.00061 2.00001 3.79147 2.00001 6.00061L2 11.0006M2 20.0006L2 26.0006C2 28.2097 3.79086 30.0006 6 30.0006H12M24 10.0006V22.0006C24 23.1052 23.1046 24.0006 22 24.0006H10C8.89543 24.0006 8 23.1052 8 22.0006V10.0006C8 8.89604 8.89543 8.00061 10 8.00061H22C23.1046 8.00061 24 8.89604 24 10.0006Z" stroke="currentColor" stroke-width="2" stroke-linecap="round" stroke-linejoin="round"/>
</svg>
