<svg width="32" height="32" viewBox="0 0 32 32" fill="none" xmlns="http://www.w3.org/2000/svg">
<path d="M18.0612 9.9763C18.0612 7.97355 19.1075 7.97355 20.1538 7.97355H21.4094C21.6191 7.97624 21.8272 7.93871 22.0214 7.86317C22.2156 7.78763 22.3921 7.67562 22.5403 7.53374C22.6886 7.39186 22.8056 7.22299 22.8845 7.03711C22.9635 6.85122 23.0027 6.65208 22.9999 6.45145V4.56887C22.9999 4.36729 22.9581 4.16771 22.8768 3.98173C22.7956 3.79574 22.6766 3.62705 22.5267 3.48544C22.3768 3.34384 22.1989 3.23214 22.0036 3.15684C21.8082 3.08154 21.5991 3.04412 21.3885 3.04678L18.4169 3.00672C17.5517 2.97469 16.6895 3.12273 15.8898 3.44061C15.0902 3.75849 14.3721 4.23865 13.7852 4.84795C13.1983 5.45724 12.7565 6.18116 12.4904 6.96974C12.2242 7.75832 12.2436 8.63293 12.2436 9.41553V12.3195H10.5904C10.1686 12.3195 9.76408 12.4799 9.46582 12.7653C9.16756 13.0508 9 13.4379 9 13.8416V15.7242C9 16.1279 9.16756 16.515 9.46582 16.8005C9.76408 17.0859 10.1686 17.2463 10.5904 17.2463H12.2436V28.0011C12.2436 28.2666 12.3539 28.5214 12.5501 28.7091C12.7463 28.8969 13.0124 29.0024 13.2899 29.0024H17.0776C17.3441 28.9871 17.5944 28.8749 17.7773 28.6887C17.9601 28.5026 18.0617 28.2566 18.0612 28.0011V17.2463H19.9027C20.3245 17.2463 20.7291 17.0859 21.0273 16.8005C21.3256 16.515 21.4931 16.1279 21.4931 15.7242V13.8416C21.4931 13.4379 21.3256 13.0508 21.0273 12.7653C20.7291 12.4799 20.3245 12.3195 19.9027 12.3195H18.0612V9.9763Z" stroke="currentColor" stroke-width="2" stroke-linecap="round" stroke-linejoin="round"/>
</svg>
