<svg width="32" height="32" viewBox="0 0 32 32" fill="none" xmlns="http://www.w3.org/2000/svg">
<path d="M5.74365 11.787V13.0743M26 10.6667V9.99858C26 8.8948 25.0673 8 23.9168 8H3.08316C1.93266 8 1 8.8948 1 9.99858V22.0014C1 23.1052 1.93267 24 3.08316 24H11.2778M15 13.6135C13.3052 13.1408 11.5632 14.1877 11.109 15.9519C10.878 16.8496 11.0249 17.76 11.4482 18.5M3.00098 4.99512H24.001M6 2H21M23.5 19.5L26.5 22.5M26.5 22.5L23.5 25.5M26.5 22.5H18.5M5.5 12C5.77614 12 6 12.2239 6 12.5C6 12.7761 5.77614 13 5.5 13C5.22386 13 5 12.7761 5 12.5C5 12.2239 5.22386 12 5.5 12ZM30 22.5C30 26.6421 26.6421 30 22.5 30C18.3579 30 15 26.6421 15 22.5C15 18.3579 18.3579 15 22.5 15C26.6421 15 30 18.3579 30 22.5Z" stroke="currentColor" stroke-width="2" stroke-linecap="round" stroke-linejoin="round"/>
</svg>
