<svg width="32" height="32" viewBox="0 0 32 32" fill="none" xmlns="http://www.w3.org/2000/svg">
<path d="M11 21.0029L21 11.0029M25.8995 6.10344C31.3668 11.5708 31.3668 20.4351 25.8995 25.9024C20.4322 31.3698 11.5678 31.3698 6.10051 25.9024C0.633164 20.4351 0.633164 11.5708 6.10051 6.10344C11.5678 0.636094 20.4322 0.636094 25.8995 6.10344ZM13.4142 10.5887C14.1953 11.3698 14.1953 12.6361 13.4142 13.4171C12.6332 14.1982 11.3668 14.1982 10.5858 13.4171C9.80474 12.6361 9.80474 11.3698 10.5858 10.5887C11.3668 9.80767 12.6332 9.80767 13.4142 10.5887ZM21.4142 18.5887C22.1953 19.3697 22.1953 20.636 21.4142 21.4171C20.6332 22.1981 19.3668 22.1981 18.5858 21.4171C17.8047 20.636 17.8047 19.3697 18.5858 18.5887C19.3668 17.8076 20.6332 17.8076 21.4142 18.5887Z" stroke="currentColor" stroke-width="2" stroke-linecap="round" stroke-linejoin="round"/>
</svg>
