<svg width="32" height="32" viewBox="0 0 32 32" fill="none" xmlns="http://www.w3.org/2000/svg">
<path d="M2 25V4M2 6.25748L4.97841 5.38112C7.30396 4.64518 9.82522 4.97473 11.8976 6.28551C13.9196 7.56421 16.3712 7.65692 18.6539 6.98672L20.7383 6.37338C20.8262 6.34771 20.917 6.33347 21.0084 6.33338C21.5555 6.33287 21.9995 6.79763 22 7.36005V9.00003M12 19.5C9.81597 18.0218 7.23269 17.5866 4.78182 18.4165L2 19.4049M29.3237 25H28.3183C28.0981 25.0001 27.8849 24.9162 27.7168 24.7633C27.5487 24.6104 27.4366 24.3984 27.4003 24.1651L26.9097 20.9999H25.9303C25.7889 20.9999 25.6494 20.9652 25.5223 20.8986C25.3952 20.832 25.284 20.7351 25.197 20.6154C25.11 20.4956 25.0495 20.3562 25.0202 20.2076C24.9909 20.059 24.9935 19.9052 25.0278 19.7578L25.493 17.7587C25.5433 17.5425 25.6595 17.3506 25.823 17.2134C25.9865 17.0763 26.188 17.0018 26.3955 17.0018C26.9332 16.9976 30 17.0021 30 17.0021M17 19H20.3606C20.6043 19 20.841 19.0735 21.0331 19.2089C21.2252 19.3442 21.3617 19.5336 21.4208 19.7469L21.9673 21.7192C22.0076 21.8646 22.0107 22.0164 21.9763 22.163C21.9418 22.3096 21.8708 22.4472 21.7686 22.5654C21.6664 22.6835 21.5357 22.7791 21.3864 22.8448C21.2371 22.9106 21.0732 22.9447 20.9071 22.9447H20.1209L19.3876 26M31 20.5C31 24.6421 27.6421 28 23.5 28C19.3579 28 16 24.6421 16 20.5C16 16.3579 19.3579 13 23.5 13C27.6421 13 31 16.3579 31 20.5Z" stroke="currentColor" stroke-width="2" stroke-linecap="round" stroke-linejoin="round"/>
</svg>
