<svg width="32" height="32" viewBox="0 0 32 32" fill="none" xmlns="http://www.w3.org/2000/svg">
<path d="M25.8404 3.00293C25.8404 2.45064 25.3927 2.00293 24.8404 2.00293C24.2881 2.00293 23.8404 2.45064 23.8404 3.00293H25.8404ZM23.8404 29.0029C23.8404 29.5552 24.2881 30.0029 24.8404 30.0029C25.3927 30.0029 25.8404 29.5552 25.8404 29.0029H23.8404ZM29.48 3.00293C29.48 2.45064 29.0323 2.00293 28.48 2.00293C27.9277 2.00293 27.48 2.45064 27.48 3.00293H29.48ZM28.48 11.1929L29.48 11.1959V11.1929H28.48ZM24.84 14.8329L24.837 15.8329L24.843 15.8329L24.84 14.8329ZM21.2 11.1929L20.2 11.1929L20.2 11.1959L21.2 11.1929ZM22.2 3.00293C22.2 2.45064 21.7523 2.00293 21.2 2.00293C20.6477 2.00293 20.2 2.45064 20.2 3.00293H22.2ZM3.0386 11.7124L2.0441 11.6076L2.04409 11.6077L3.0386 11.7124ZM3.87406 3.77946L4.86856 3.8842L4.86864 3.88346L3.87406 3.77946ZM16.1703 3.77946L15.1758 3.88346L15.1758 3.8842L16.1703 3.77946ZM17.0058 11.7124L18.0003 11.6079L18.0003 11.6076L17.0058 11.7124ZM15.2404 17.1456L14.4972 16.4765L14.4972 16.4765L15.2404 17.1456ZM9.02179 29.0031C9.0218 29.5554 9.46952 30.0031 10.0218 30.0031C10.5741 30.003 11.0218 29.5553 11.0218 29.003L9.02179 29.0031ZM5.68884 28.0029C5.13656 28.0029 4.68884 28.4506 4.68884 29.0029C4.68884 29.5552 5.13656 30.0029 5.68884 30.0029V28.0029ZM14.3555 30.0029C14.9078 30.0029 15.3555 29.5552 15.3555 29.0029C15.3555 28.4506 14.9078 28.0029 14.3555 28.0029V30.0029ZM23.8404 3.00293V29.0029H25.8404V3.00293H23.8404ZM27.48 3.00293V11.1929H29.48V3.00293H27.48ZM27.48 11.1899C27.4757 12.6478 26.2949 13.8286 24.837 13.8329L24.843 15.8329C27.4008 15.8253 29.4724 13.7537 29.48 11.1959L27.48 11.1899ZM24.843 13.8329C23.3851 13.8286 22.2044 12.6478 22.2 11.1899L20.2 11.1959C20.2077 13.7537 22.2792 15.8253 24.837 15.8329L24.843 13.8329ZM22.2 11.1929V3.00293H20.2V11.1929H22.2ZM10.0217 18.4696C8.31492 18.4694 6.68835 17.745 5.54643 16.4765L4.05998 17.8146C5.58114 19.5044 7.74788 20.4694 10.0215 20.4696L10.0217 18.4696ZM5.54643 16.4765C4.4045 15.2079 3.85448 13.5144 4.0331 11.817L2.04409 11.6077C1.80614 13.8688 2.53882 16.1248 4.05998 17.8146L5.54643 16.4765ZM4.0331 11.8171L4.86856 3.8842L2.87956 3.67473L2.0441 11.6076L4.0331 11.8171ZM4.86864 3.88346C4.86153 3.95144 4.80423 4.00293 4.73611 4.00293V2.00293C3.78042 2.00293 2.9789 2.72473 2.87948 3.67546L4.86864 3.88346ZM4.73611 4.00293H15.3083V2.00293H4.73611V4.00293ZM15.3083 4.00293C15.2402 4.00293 15.1829 3.95145 15.1758 3.88346L17.1649 3.67546C17.0655 2.72473 16.264 2.00293 15.3083 2.00293V4.00293ZM15.1758 3.8842L16.0113 11.8171L18.0003 11.6076L17.1648 3.67473L15.1758 3.8842ZM16.0113 11.8168C16.1896 13.5144 15.6393 15.2079 14.4972 16.4765L15.9835 17.8147C17.5049 16.125 18.2379 13.8691 18.0003 11.6079L16.0113 11.8168ZM14.4972 16.4765C13.3551 17.745 11.7284 18.4694 10.0215 18.4696L10.0217 20.4696C12.2954 20.4693 14.4622 19.5044 15.9835 17.8147L14.4972 16.4765ZM9.02162 19.4696L9.02179 29.0031L11.0218 29.003L11.0216 19.4696L9.02162 19.4696ZM5.68884 30.0029H14.3555V28.0029H5.68884V30.0029ZM3 10.7544H16.4723V8.75439H3V10.7544Z" fill="currentColor"/>
</svg>
