<svg width="32" height="32" viewBox="0 0 32 32" fill="none" xmlns="http://www.w3.org/2000/svg">
<path d="M19 20.5029V27.3603C19 29.3721 17.3691 31.0029 15.3573 31.0029H6.644C4.63199 31.0029 3.00074 29.3723 3 27.3603V6.64693C3.00074 4.63471 4.63178 3.00367 6.644 3.00293H8.66667M3 25.0029H19M18.5 13.7456V5.26029M22.7426 9.50293H14.2574M18.5 17.0029C22.6421 17.0029 26 13.6451 26 9.50293C26 5.36079 22.6421 2.00293 18.5 2.00293C14.3579 2.00293 11 5.36079 11 9.50293C11 13.6451 14.3579 17.0029 18.5 17.0029Z" stroke="currentColor" stroke-width="2" stroke-linecap="round" stroke-linejoin="round"/>
</svg>
