<svg width="32" height="32" viewBox="0 0 32 32" fill="none" xmlns="http://www.w3.org/2000/svg">
<path d="M9.94007 5.62986C11.5191 3.97973 13.6995 3.03299 15.9884 3.00363C18.2772 2.97428 20.4814 3.86479 22.1026 5.47388M26.1918 18.8359C25.3308 25.2625 22.169 31.0026 16.0984 31.0026C10.0278 31.0026 6.86591 25.2625 6.00494 18.8359M16.0984 24.4526C17.6557 24.4526 18.9182 23.6146 18.9182 22.5808C18.9182 21.547 17.6557 20.709 16.0984 20.709C14.5411 20.709 13.2787 21.547 13.2787 22.5808C13.2787 23.6146 14.5411 24.4526 16.0984 24.4526ZM16.0984 24.4526C16.0984 24.4526 14.0156 28.6001 10.9465 29.2552M16.0984 24.4526C16.0984 24.4526 18.1813 28.6001 21.2504 29.2552M11.8688 14.1572C12.1283 14.1572 12.3387 14.3667 12.3387 14.6252M11.8688 14.1572C11.6092 14.1572 11.3988 14.3667 11.3988 14.6252M11.8688 14.1572L11.8688 15.0941M12.3387 14.6252C12.3387 14.8836 12.1283 15.0941 11.8688 15.0941M12.3387 14.6252H11.3988M11.3988 14.6252C11.3988 14.8836 11.6092 15.0941 11.8688 15.0941M20.3281 14.1572C20.5876 14.1572 20.798 14.3667 20.798 14.6252M20.3281 14.1572C20.0685 14.1572 19.8581 14.3667 19.8581 14.6252M20.3281 14.1572L20.3281 15.0941M20.798 14.6252C20.798 14.8836 20.5876 15.0941 20.3281 15.0941M20.798 14.6252H19.8581M19.8581 14.6252C19.8581 14.8836 20.0685 15.0941 20.3281 15.0941M9.93133 6.97274C10.1716 6.02584 9.90071 5.02262 9.21588 4.32341C8.53106 3.6242 7.53064 3.32939 6.57396 3.54485C4.89123 3.95413 3.46113 5.05353 2.63759 6.57093C1.23023 8.90694 2.41577 12.0104 3.6527 14.1966C3.98836 14.7975 4.62782 15.1668 5.31828 15.1584C6.00873 15.1501 6.63902 14.7655 6.95995 14.1567C8.202 11.8731 9.19801 9.46501 9.93133 6.97274ZM22.0688 6.97334C21.8281 6.02592 22.0993 5.02204 22.7848 4.32266C23.4703 3.62328 24.4716 3.32894 25.4287 3.54545C27.1104 3.95537 28.5395 5.05468 29.3625 6.57153C30.7699 8.90754 29.5843 12.011 28.3474 14.1972C28.0117 14.7981 27.3723 15.1674 26.6818 15.159C25.9914 15.1507 25.3611 14.7661 25.0402 14.1573C23.7981 11.8737 22.8021 9.46561 22.0688 6.97334Z" stroke="currentColor" stroke-width="2" stroke-linecap="round" stroke-linejoin="round"/>
</svg>
