<svg width="32" height="32" viewBox="0 0 32 32" fill="none" xmlns="http://www.w3.org/2000/svg">
<path d="M1.5 28.0029C1.5 23.0324 5.52944 19.0029 10.5 19.0029C15.4706 19.0029 19.5 23.0324 19.5 28.0029M20.9957 20.4576C23.2556 19.6247 25.7799 19.9489 27.7559 21.3258C29.732 22.7027 31.0004 24.9585 31.0017 27.3669M10.5 16.0029C13.5376 16.0029 16 13.5405 16 10.5029C16 7.46536 13.5376 5.00293 10.5 5.00293C7.46243 5.00293 5 7.46536 5 10.5029C5 13.5405 7.46243 16.0029 10.5 16.0029ZM23.5 17.5029C25.9853 17.5029 28 15.4882 28 13.0029C28 10.5176 25.9853 8.50293 23.5 8.50293C21.0147 8.50293 19 10.5176 19 13.0029C19 15.4882 21.0147 17.5029 23.5 17.5029Z" stroke="currentColor" stroke-width="2" stroke-linecap="round" stroke-linejoin="round"/>
</svg>
