<svg width="32" height="32" viewBox="0 0 32 32" fill="none" xmlns="http://www.w3.org/2000/svg">
<path d="M16 2.00159L16.0025 20.7768M10 15.0016L16 21.0016L22 15.0016M20.5858 8.00159H23.3333C24.3058 8.00159 25.2384 8.37244 25.9261 9.03257C26.6137 9.6927 27 10.588 27 11.5216V26.4816C27 27.4151 26.6137 28.3105 25.9261 28.9706C25.2384 29.6307 24.3058 30.0016 23.3333 30.0016H8.66667C7.69421 30.0016 6.76158 29.6307 6.07394 28.9706C5.38631 28.3105 5 27.4151 5 26.4816V11.5216C5 10.588 5.38631 9.6927 6.07394 9.03257C6.76158 8.37244 7.69421 8.00159 8.66667 8.00159H11.4167" stroke="currentColor" stroke-width="2" stroke-linecap="round" stroke-linejoin="round"/>
</svg>
