<svg width="32" height="32" viewBox="0 0 32 32" fill="none" xmlns="http://www.w3.org/2000/svg">
<path d="M16 30.0029C13.0826 30.0029 10.2847 28.844 8.22183 26.7811C6.15893 24.7182 5 21.9203 5 19.0029C5 16.0855 6.15893 13.2877 8.22183 11.2248C10.2847 9.16185 13.0826 8.00293 16 8.00293C18.9174 8.00293 21.7153 9.16185 23.7782 11.2248C25.8411 13.2877 27 16.0855 27 19.0029C27 21.9203 25.8411 24.7182 23.7782 26.7811C21.7153 28.844 18.9174 30.0029 16 30.0029ZM16 30.0029V14.0029M6.5 14.0029H25.5M5.5 15.0029C4.30177 14.3465 2.91485 13.9998 1.5 14.003M2 28.5029C3.03959 28.5038 4.0675 28.2814 5.01567 27.8504C5.96385 27.4194 6.81065 26.7897 7.5 26.0029M2 20.0029H5M26.5 15.0029C27.6982 14.3465 29.0851 13.9998 30.5 14.003M30 28.5029C28.9604 28.5038 27.9325 28.2814 26.9843 27.8504C26.0362 27.4194 25.1894 26.7897 24.5 26.0029M30 20.0029H27M7.5 2.00293C7.5 5.91297 7.79699 7.36409 11 9.00293M24.5 2.00293C24.5 5.91297 24.203 7.36409 21 9.00293" stroke="currentColor" stroke-width="2" stroke-linecap="round" stroke-linejoin="round"/>
</svg>
