<svg width="24" height="24" viewBox="0 0 24 24" fill="none" xmlns="http://www.w3.org/2000/svg">
<path d="M12.75 10.5005C12.75 10.0863 12.4142 9.75049 12 9.75049C11.5858 9.75049 11.25 10.0863 11.25 10.5005H12.75ZM11.25 18.7505C11.25 19.1647 11.5858 19.5005 12 19.5005C12.4142 19.5005 12.75 19.1647 12.75 18.7505H11.25ZM12 8.25049C12.6213 8.25049 13.125 7.74681 13.125 7.12549H11.625C11.625 6.91838 11.7929 6.75049 12 6.75049V8.25049ZM13.125 7.12549C13.125 6.50417 12.6213 6.00049 12 6.00049V7.50049C11.7929 7.50049 11.625 7.3326 11.625 7.12549H13.125ZM12 6.00049C11.3787 6.00049 10.875 6.50417 10.875 7.12549H12.375C12.375 7.3326 12.2071 7.50049 12 7.50049V6.00049ZM10.875 7.12549C10.875 7.74681 11.3787 8.25049 12 8.25049V6.75049C12.2071 6.75049 12.375 6.91838 12.375 7.12549H10.875ZM11.25 6.75049V7.50049H12.75V6.75049H11.25ZM11.25 10.5005L11.25 18.7505H12.75L12.75 10.5005H11.25ZM12 1.00037C5.92487 1.00037 1 5.92523 1 12.0004H2.5C2.5 6.75366 6.7533 2.50037 12 2.50037V1.00037ZM1 12.0004C0.999999 18.0755 5.92487 23.0004 12 23.0004V21.5004C6.75329 21.5004 2.5 17.2471 2.5 12.0004H1ZM12 23.0004C18.0751 23.0004 23 18.0755 23 12.0004H21.5C21.5 17.2471 17.2467 21.5004 12 21.5004V23.0004ZM23 12.0004C23 5.92523 18.0751 1.00037 12 1.00037V2.50037C17.2467 2.50037 21.5 6.75366 21.5 12.0004H23Z" fill="currentColor"/>
</svg>
